<svg width="60" height="60" viewBox="0 0 60 60" fill="none" xmlns="http://www.w3.org/2000/svg">
<path d="M59.2094 12.8257C59.504 12.3086 59.6887 11.7363 59.7518 11.1446C59.8149 10.5528 59.7552 9.95441 59.5762 9.38684C59.3973 8.81927 59.1031 8.29477 58.7121 7.84619C58.321 7.39762 57.8415 7.03465 57.3037 6.78002C57.2482 5.71379 56.7997 4.70592 56.0447 3.95096C55.2898 3.19601 54.2819 2.74751 53.2157 2.69205C52.9611 2.1541 52.5981 1.67455 52.1495 1.28344C51.7008 0.892338 51.1763 0.598108 50.6087 0.419195C50.041 0.240282 49.4426 0.180542 48.8508 0.24372C48.259 0.306899 47.6866 0.491632 47.1695 0.786344C46.4627 0.290839 45.6242 0.0173388 44.7612 0.000797323C43.8981 -0.0157441 43.0498 0.225424 42.3245 0.693481C41.5307 0.347979 40.6511 0.249853 39.8007 0.411914C38.9502 0.573974 38.1684 0.988691 37.5572 1.60192C37.4805 1.67863 37.4058 1.75837 37.3357 1.84215C36.7915 1.6636 36.2173 1.59512 35.6464 1.6407C35.0755 1.68627 34.5194 1.84499 34.0105 2.10761C33.5015 2.37022 33.05 2.73149 32.682 3.17035C32.3141 3.60922 32.0372 4.11691 31.8674 4.66386C30.9336 4.68135 30.0308 5.00149 29.2946 5.57614C28.5584 6.15079 28.0286 6.94889 27.785 7.85046C27.0582 8.04805 26.3955 8.43159 25.8621 8.9633C25.175 9.64543 24.7399 10.5407 24.6281 11.5024C24.2241 11.7069 23.8552 11.9746 23.5355 12.2952C23.0852 12.7487 22.7406 13.2959 22.5261 13.8978C22.3116 14.4998 22.2325 15.1416 22.2945 15.7776C21.5627 16.3365 21.0289 17.1149 20.7712 17.9989C20.5135 18.8829 20.5454 19.8261 20.8621 20.6907C20.4808 21.2164 20.2221 21.8208 20.1051 22.4596C19.9881 23.0984 20.0157 23.7553 20.1859 24.382C20.1107 24.4466 20.039 24.5138 19.9699 24.5839C19.3875 25.165 18.9836 25.9006 18.8058 26.7039C18.6281 27.5071 18.6838 28.3444 18.9665 29.117C18.8923 29.1811 18.8217 29.2472 18.7531 29.3159C18.2115 29.8612 17.8245 30.5406 17.6315 31.2846C17.4386 32.0285 17.4466 32.8104 17.6549 33.5502C17.1172 34.1191 16.744 34.8233 16.5751 35.5877C16.4062 36.3521 16.448 37.148 16.6959 37.8905L9.00954 45.5769C8.38579 44.9713 7.62289 44.5281 6.78782 44.2862C5.95276 44.0443 5.07107 44.0111 4.22019 44.1896C3.36931 44.3681 2.57527 44.7527 1.90778 45.3098C1.2403 45.8668 0.719794 46.5793 0.391975 47.3845C0.0641562 48.1897 -0.0609492 49.0631 0.0276455 49.928C0.11624 50.7928 0.415825 51.6227 0.900091 52.3447C1.38436 53.0668 2.03849 53.6589 2.80506 54.069C3.57162 54.4792 4.42716 54.6949 5.29655 54.6971H5.30463C5.30577 55.5666 5.52042 56.4226 5.92974 57.1897C6.33906 57.9569 6.93051 58.6118 7.65214 59.0969C8.37376 59.582 9.20348 59.8824 10.0684 59.9718C10.9333 60.0613 11.8069 59.9369 12.6125 59.6097C13.4181 59.2825 14.1311 58.7625 14.6887 58.0953C15.2463 57.4281 15.6315 56.6342 15.8105 55.7833C15.9895 54.9324 15.9568 54.0506 15.7153 53.2153C15.4738 52.38 15.0308 51.6168 14.4254 50.9927L22.1102 43.3008C22.8525 43.5507 23.6489 43.5935 24.4137 43.4246C25.1785 43.2556 25.8827 42.8813 26.4506 42.3419C27.1906 42.5499 27.9726 42.5578 28.7167 42.3648C29.4608 42.1718 30.1403 41.7847 30.6859 41.2432C30.754 41.1745 30.8196 41.1039 30.8837 41.0302C31.6561 41.3126 32.4931 41.3683 33.2961 41.1908C34.0991 41.0132 34.8346 40.6097 35.4158 40.0279C35.485 39.9582 35.5526 39.8866 35.6177 39.8108C36.2444 39.9811 36.9013 40.0088 37.5401 39.8917C38.1789 39.7747 38.7834 39.516 39.309 39.1346C40.0828 39.4128 40.9195 39.4664 41.7224 39.289C42.5253 39.1116 43.2616 38.7106 43.8461 38.1323C43.9806 37.9972 44.1062 37.8535 44.2221 37.7023C44.8581 37.7635 45.4997 37.684 46.1015 37.4695C46.7033 37.2551 47.2506 36.9108 47.7045 36.4612C48.0252 36.1415 48.2928 35.7726 48.4974 35.3686C49.4591 35.2568 50.3543 34.8217 51.0364 34.1346C51.5672 33.6009 51.9499 32.9382 52.1468 32.2118C53.0482 31.9679 53.8462 31.438 54.4208 30.7019C54.9954 29.9658 55.3156 29.063 55.3334 28.1293C55.8799 27.9593 56.3872 27.6822 56.8256 27.3143C57.2641 26.9463 57.625 26.4948 57.8874 25.9861C58.1497 25.4774 58.3083 24.9216 58.3538 24.351C58.3993 23.7804 58.3309 23.2064 58.1525 22.6626C58.236 22.5916 58.3161 22.5177 58.3928 22.441C59.0066 21.8303 59.4219 21.0485 59.5844 20.198C59.747 19.3475 59.6491 18.4677 59.3037 17.6737C59.7726 16.9481 60.0141 16.099 59.9973 15.2353C59.9805 14.3715 59.7061 13.5325 59.2094 12.8257ZM12.4959 50.4174C12.4043 50.5089 12.334 50.6195 12.2899 50.7412C12.2458 50.863 12.229 50.9929 12.2407 51.1219C12.2524 51.2508 12.2923 51.3756 12.3576 51.4875C12.4229 51.5993 12.512 51.6954 12.6186 51.7689C12.7971 51.8901 12.964 52.0274 13.1172 52.1792C13.5544 52.6149 13.8703 53.1572 14.0335 53.7524C14.1968 54.3477 14.2018 54.9752 14.048 55.573C13.8943 56.1707 13.5871 56.718 13.1568 57.1605C12.7266 57.6031 12.1883 57.9257 11.5951 58.0963C11.0019 58.2669 10.3745 58.2796 9.77487 58.1333C9.17526 57.9869 8.62426 57.6865 8.1764 57.2618C7.72854 56.8371 7.39935 56.3028 7.22141 55.7118C7.04347 55.1208 7.02295 54.4935 7.16188 53.8921C7.1956 53.7461 7.19161 53.5939 7.15029 53.4498C7.10898 53.3057 7.03169 53.1745 6.9257 53.0685C6.8197 52.9625 6.68849 52.8852 6.54441 52.8439C6.40032 52.8026 6.24809 52.7986 6.10204 52.8323C5.50117 52.9706 4.8746 52.9497 4.28429 52.7716C3.69398 52.5935 3.16038 52.2645 2.73625 51.8169C2.31211 51.3694 2.01213 50.8189 1.86597 50.2199C1.71981 49.6209 1.73253 48.9941 1.90287 48.4015C2.07322 47.8089 2.39528 47.2711 2.83723 46.8411C3.27917 46.4112 3.82569 46.104 4.42273 45.95C5.01978 45.796 5.64668 45.8005 6.24144 45.9631C6.83621 46.1257 7.37824 46.4407 7.81394 46.877C7.96627 47.0302 8.10397 47.1973 8.22526 47.3761C8.29882 47.4827 8.39491 47.5718 8.50673 47.6371C8.61854 47.7024 8.74335 47.7423 8.87231 47.754C9.00127 47.7657 9.13123 47.7489 9.25297 47.7048C9.37472 47.6607 9.48528 47.5903 9.57681 47.4988L17.6236 39.4545C17.6609 39.4949 17.6947 39.5378 17.7341 39.5767C18.199 40.0426 18.7646 40.3955 19.3874 40.6083C19.6005 41.2304 19.9534 41.7953 20.419 42.2596C20.4584 42.299 20.5008 42.3328 20.5412 42.3701L12.4959 50.4174ZM57.5989 17.0035C57.4743 17.1453 57.3984 17.3234 57.3825 17.5115C57.3666 17.6997 57.4115 17.888 57.5106 18.0487C57.8129 18.5373 57.941 19.1138 57.8742 19.6845C57.8073 20.2552 57.5493 20.7864 57.1422 21.1919C56.9849 21.3469 56.8085 21.4813 56.6173 21.5916C56.4181 21.7072 56.2719 21.8961 56.2101 22.118C56.1482 22.3399 56.1755 22.5771 56.2862 22.7791C56.5492 23.264 56.6491 23.8207 56.571 24.3667C56.4929 24.9127 56.241 25.4191 55.8527 25.8108C55.4381 26.2286 54.8906 26.4883 54.3048 26.5451C54.1835 26.5574 54.0661 26.5947 53.9599 26.6546C53.8538 26.7144 53.7611 26.7956 53.6879 26.893C53.6146 26.9904 53.5622 27.102 53.5341 27.2206C53.506 27.3392 53.5028 27.4623 53.5246 27.5823C53.5987 27.9891 53.5732 28.4079 53.4501 28.8027C53.3271 29.1975 53.1102 29.5566 52.818 29.8493C52.4086 30.2605 51.8703 30.5186 51.2933 30.5801C51.0938 30.6022 50.9078 30.6915 50.7659 30.8334C50.624 30.9753 50.5346 31.1614 50.5126 31.3609C50.4434 31.9957 50.138 32.5814 49.6571 33.0017C49.1762 33.4219 48.5549 33.646 47.9165 33.6294C47.7282 33.6246 47.5434 33.6801 47.389 33.7879C47.2346 33.8957 47.1188 34.0501 47.0585 34.2285C46.8535 34.8375 46.4253 35.3462 45.8603 35.6521C45.2952 35.9581 44.6352 36.0385 44.0132 35.8773C43.8237 35.8296 43.6238 35.846 43.4446 35.924C43.2654 36.0019 43.1172 36.1371 43.023 36.3083C42.6998 36.8988 42.156 37.3372 41.5104 37.5279C40.8649 37.7185 40.1701 37.6459 39.578 37.3258C39.4123 37.2368 39.2225 37.203 39.0362 37.2293C38.8499 37.2556 38.6769 37.3407 38.5424 37.4721C38.169 37.8345 37.6943 38.0748 37.1813 38.161C36.6682 38.2473 36.141 38.1755 35.6697 37.9551C35.4728 37.8631 35.249 37.8469 35.0409 37.9097C34.8329 37.9724 34.6553 38.1097 34.5422 38.2953C34.3704 38.582 34.1436 38.8319 33.8748 39.0306C33.6061 39.2294 33.3007 39.3731 32.9763 39.4535C32.6519 39.5339 32.3147 39.5493 31.9843 39.499C31.6539 39.4487 31.3366 39.3336 31.0508 39.1603C30.9505 39.1003 30.8394 39.0607 30.7237 39.0439C30.6081 39.0271 30.4903 39.0334 30.3771 39.0624C30.2639 39.0914 30.1576 39.1425 30.0643 39.2129C29.971 39.2832 29.8925 39.3714 29.8335 39.4722C29.5174 40.0234 29.0056 40.4356 28.3997 40.6271C27.7938 40.8186 27.1381 40.7753 26.5626 40.5058C26.3817 40.4225 26.1779 40.4029 25.9844 40.45C25.7908 40.4972 25.619 40.6085 25.4967 40.7657C25.431 40.8525 25.3597 40.935 25.2832 41.0125C24.9569 41.3392 24.5481 41.5713 24.1003 41.6841C23.6526 41.7969 23.1826 41.7862 22.7404 41.6532C22.2983 41.5201 21.9005 41.2696 21.5894 40.9284C21.2783 40.5872 21.0655 40.168 20.9737 39.7155C20.9394 39.5449 20.8555 39.3883 20.7325 39.2653C20.6094 39.1422 20.4528 39.0583 20.2823 39.024C19.8297 38.9322 19.4105 38.7195 19.0693 38.4084C18.7281 38.0972 18.4776 37.6994 18.3446 37.2573C18.2115 36.8151 18.2008 36.3451 18.3136 35.8974C18.4264 35.4496 18.6585 35.0408 18.9852 34.7145C19.0628 34.6381 19.1452 34.5668 19.232 34.501C19.3892 34.3787 19.5005 34.2069 19.5477 34.0134C19.5949 33.8198 19.5752 33.6161 19.4919 33.4351C19.2224 32.8597 19.1791 32.2039 19.3706 31.598C19.5621 30.9921 19.9743 30.4804 20.5255 30.1642C20.6264 30.1052 20.7145 30.0268 20.7848 29.9335C20.8552 29.8402 20.9063 29.7338 20.9353 29.6206C20.9643 29.5074 20.9706 29.3896 20.9538 29.274C20.937 29.1583 20.8974 29.0472 20.8374 28.9469C20.6634 28.6612 20.5477 28.3439 20.497 28.0133C20.4462 27.6827 20.4614 27.3453 20.5416 27.0205C20.6218 26.6958 20.7655 26.3901 20.9644 26.1212C21.1633 25.8522 21.4134 25.6253 21.7004 25.4535C21.8867 25.3401 22.0244 25.1619 22.0871 24.9531C22.1498 24.7443 22.133 24.5197 22.0401 24.3225C21.8197 23.8512 21.7478 23.324 21.8341 22.8109C21.9203 22.2978 22.1606 21.8231 22.5231 21.4498C22.6545 21.3152 22.7396 21.1422 22.7659 20.956C22.7922 20.7697 22.7584 20.5799 22.6694 20.4142C22.3493 19.822 22.2766 19.1273 22.4673 18.4817C22.658 17.8362 23.0964 17.2924 23.6869 16.9692C23.8582 16.8751 23.9934 16.7268 24.0714 16.5476C24.1494 16.3684 24.1657 16.1684 24.1179 15.979C23.9577 15.3574 24.0386 14.6983 24.3445 14.1341C24.6504 13.5698 25.1585 13.1422 25.7667 12.9372C25.945 12.8767 26.0993 12.7609 26.2072 12.6065C26.315 12.4522 26.3708 12.2675 26.3663 12.0792C26.3495 11.4402 26.5738 10.8183 26.9946 10.3372C27.4154 9.85596 28.0018 9.55073 28.6374 9.48212C28.8369 9.46005 29.0229 9.37071 29.1648 9.22879C29.3067 9.08687 29.3961 8.90085 29.4181 8.70137C29.4795 8.12434 29.7376 7.58601 30.1489 7.1767C30.4418 6.88485 30.801 6.66817 31.1957 6.54513C31.5905 6.4221 32.0091 6.39637 32.416 6.47014C32.5358 6.4914 32.6588 6.48791 32.7773 6.45988C32.8958 6.43184 33.0072 6.37986 33.1049 6.30713C33.2024 6.23389 33.2837 6.14123 33.3437 6.03499C33.4036 5.92876 33.4409 5.81125 33.4531 5.68989C33.5099 5.10409 33.7696 4.55655 34.1874 4.14201C34.5789 3.75331 35.0853 3.5012 35.6314 3.42311C36.1776 3.34501 36.7343 3.44509 37.2191 3.70849C37.4211 3.81902 37.6583 3.84627 37.8802 3.78442C38.102 3.72257 38.2909 3.57653 38.4066 3.37741C38.517 3.18615 38.6513 3.00976 38.8063 2.85254C39.2119 2.44565 39.7432 2.18783 40.3138 2.12095C40.8844 2.05407 41.4608 2.18205 41.9495 2.48411C42.1103 2.5831 42.2985 2.62794 42.4867 2.61205C42.6748 2.59615 42.8529 2.52036 42.9947 2.39579C43.4803 1.97085 44.1085 1.74512 44.7534 1.76384C45.3984 1.78256 46.0125 2.04434 46.4725 2.49673L46.4953 2.52045C46.651 2.67613 46.8592 2.76801 47.0792 2.7781C47.2992 2.78818 47.515 2.71573 47.6843 2.57496C48.0106 2.30378 48.3994 2.11821 48.8155 2.03502C49.2315 1.95182 49.6618 1.97363 50.0673 2.09847C50.4728 2.2233 50.8408 2.44723 51.1381 2.75002C51.4353 3.0528 51.6524 3.42489 51.7698 3.83264C51.8261 4.03268 51.9517 4.20621 52.1241 4.3223C52.2964 4.43839 52.5044 4.4895 52.711 4.46653C53.0914 4.42431 53.4764 4.46817 53.8375 4.59487C54.1986 4.72157 54.5266 4.92786 54.7972 5.19848C55.0678 5.46909 55.2741 5.7971 55.4008 6.15822C55.5275 6.51934 55.5714 6.90434 55.5292 7.28471C55.5064 7.4916 55.5575 7.69989 55.6735 7.87271C55.7895 8.04553 55.9629 8.17173 56.1631 8.22898C56.5708 8.34631 56.9429 8.56341 57.2457 8.86065C57.5485 9.1579 57.7724 9.52591 57.8972 9.93143C58.0221 10.337 58.0439 10.7672 57.9607 11.1833C57.8775 11.5993 57.6919 11.9881 57.4207 12.3144C57.28 12.4837 57.2075 12.6995 57.2176 12.9195C57.2277 13.1395 57.3196 13.3477 57.4753 13.5035C57.4818 13.5105 57.4904 13.5186 57.4985 13.5262C57.9506 13.9863 58.2122 14.6003 58.2309 15.2451C58.2495 15.89 58.0238 16.518 57.5989 17.0035Z" fill="#321F00"/>
<path d="M47.902 8.94271C47.423 8.89921 46.9402 8.9507 46.4812 9.0942C46.0222 9.23771 45.596 9.47041 45.2271 9.77898C45.1381 9.85334 45.0646 9.9445 45.0108 10.0473C44.9571 10.15 44.924 10.2624 44.9137 10.3779C44.9033 10.4934 44.9158 10.6099 44.9505 10.7205C44.9851 10.8312 45.0412 10.934 45.1156 11.023C45.1899 11.112 45.2811 11.1855 45.3839 11.2393C45.4866 11.2931 45.599 11.3261 45.7145 11.3365C45.83 11.3468 45.9465 11.3343 46.0571 11.2997C46.1678 11.265 46.2706 11.2089 46.3596 11.1346C46.7454 10.8129 47.243 10.6576 47.7432 10.7026C48.2434 10.7477 48.7053 10.9894 49.0274 11.3748C49.1017 11.4639 49.1928 11.5374 49.2955 11.5913C49.3983 11.6452 49.5106 11.6783 49.6261 11.6887C49.7416 11.6992 49.8581 11.6868 49.9688 11.6522C50.0796 11.6177 50.1824 11.5616 50.2715 11.4873C50.3605 11.413 50.4341 11.3219 50.488 11.2192C50.5418 11.1165 50.5749 11.0041 50.5854 10.8886C50.5958 10.7731 50.5834 10.6567 50.5489 10.5459C50.5143 10.4352 50.4583 10.3324 50.384 10.2433C50.0768 9.87322 49.6992 9.56774 49.2732 9.3445C48.8472 9.12126 48.3811 8.9847 47.902 8.94271Z" fill="#321F00"/>
<path d="M35.2233 12.8753C34.2535 12.8288 33.3049 13.169 32.5858 13.8212C31.8667 14.4735 31.4357 15.3844 31.3876 16.3541C31.3769 16.5879 31.4594 16.8164 31.6169 16.9894C31.7745 17.1624 31.9942 17.2659 32.2279 17.2772H32.2714C32.498 17.277 32.716 17.1896 32.8801 17.0332C33.0442 16.8768 33.1419 16.6633 33.153 16.4369C33.1651 16.1884 33.226 15.9446 33.3322 15.7197C33.4385 15.4947 33.588 15.2928 33.7723 15.1256C33.9566 14.9585 34.172 14.8292 34.4062 14.7453C34.6405 14.6614 34.889 14.6245 35.1375 14.6367C35.2536 14.6435 35.3699 14.6272 35.4797 14.5885C35.5894 14.5498 35.6903 14.4896 35.7764 14.4115C35.8626 14.3333 35.9323 14.2387 35.9814 14.1333C36.0305 14.0278 36.0581 13.9136 36.0626 13.7974C36.073 13.5639 35.9905 13.3359 35.8333 13.1631C35.676 12.9903 35.4567 12.8868 35.2233 12.8753Z" fill="#321F00"/>
<path d="M45.3052 24.6396C45.1893 24.6423 45.075 24.6678 44.9689 24.7147C44.8629 24.7616 44.7671 24.8289 44.6871 24.9129C44.607 24.9968 44.5444 25.0957 44.5026 25.2039C44.4609 25.3121 44.4409 25.4275 44.4437 25.5435C44.4553 26.0457 44.2672 26.532 43.9207 26.8957C43.5743 27.2595 43.0977 27.471 42.5956 27.484C42.3613 27.4867 42.1378 27.5824 41.9741 27.75C41.8104 27.9176 41.72 28.1433 41.7227 28.3775C41.7255 28.6118 41.8211 28.8353 41.9887 28.999C42.1563 29.1627 42.382 29.2531 42.6163 29.2504H42.638C43.6083 29.2259 44.5292 28.8175 45.1987 28.1148C45.8683 27.4121 46.2316 26.4724 46.2091 25.5021C46.209 25.3853 46.1852 25.2698 46.1392 25.1625C46.0932 25.0552 46.0259 24.9583 45.9414 24.8777C45.857 24.7971 45.7571 24.7345 45.6477 24.6935C45.5384 24.6526 45.4219 24.6343 45.3052 24.6396Z" fill="#321F00"/>
<path d="M27.4536 27.334C26.6286 27.8451 26.04 28.6626 25.8169 29.6071C25.5938 30.5516 25.7545 31.5461 26.2636 32.3723C26.3867 32.5716 26.584 32.7139 26.812 32.7677C27.04 32.8216 27.2801 32.7826 27.4794 32.6595C27.6787 32.5363 27.8209 32.3391 27.8748 32.1111C27.9286 31.8831 27.8897 31.643 27.7665 31.4437C27.503 31.0163 27.4198 30.5017 27.5352 30.013C27.6506 29.5243 27.9553 29.1013 28.3823 28.837C28.5816 28.7138 28.7238 28.5166 28.7776 28.2886C28.8315 28.0606 28.7926 27.8205 28.6694 27.6212C28.5463 27.4219 28.349 27.2797 28.121 27.2258C27.893 27.172 27.6529 27.2109 27.4536 27.334Z" fill="#321F00"/>
</svg>
