<?xml version="1.0" encoding="UTF-8"?>
<svg id="_레이어_1" data-name="레이어_1" xmlns="http://www.w3.org/2000/svg" version="1.1" viewBox="0 0 60 60">
  <!-- Generator: Adobe Illustrator 29.7.1, SVG Export Plug-In . SVG Version: 2.1.1 Build 8)  -->
  <defs>
    <style>
      .st0 {
        fill: #8d8d8d;
      }
    </style>
  </defs>
  <path class="st0" d="M59.21,12.83c.29-.52.48-1.09.54-1.68.06-.59,0-1.19-.18-1.76-.18-.57-.47-1.09-.86-1.54-.39-.45-.87-.81-1.41-1.07-.06-1.07-.5-2.07-1.26-2.83-.75-.75-1.76-1.2-2.83-1.26-.25-.54-.62-1.02-1.07-1.41-.45-.39-.97-.69-1.54-.86-.57-.18-1.17-.24-1.76-.18-.59.06-1.16.25-1.68.54-.71-.5-1.55-.77-2.41-.79-.86-.02-1.71.22-2.44.69-.79-.35-1.67-.44-2.52-.28-.85.16-1.63.58-2.24,1.19-.08.08-.15.16-.22.24-.54-.18-1.12-.25-1.69-.2-.57.05-1.13.2-1.64.47-.51.26-.96.62-1.33,1.06-.37.44-.64.95-.81,1.49-.93.02-1.84.34-2.57.91-.74.57-1.27,1.37-1.51,2.27-.73.2-1.39.58-1.92,1.11-.69.68-1.12,1.58-1.23,2.54-.4.2-.77.47-1.09.79-.45.45-.79,1-1.01,1.6-.21.6-.29,1.24-.23,1.88-.73.56-1.27,1.34-1.52,2.22-.26.88-.23,1.83.09,2.69-.38.53-.64,1.13-.76,1.77-.12.64-.09,1.3.08,1.92-.08.06-.15.13-.22.2-.58.58-.99,1.32-1.16,2.12-.18.8-.12,1.64.16,2.41-.07.06-.14.13-.21.2-.54.55-.93,1.22-1.12,1.97-.19.74-.18,1.53.02,2.27-.54.57-.91,1.27-1.08,2.04s-.13,1.56.12,2.3l-7.69,7.69c-.62-.61-1.39-1.05-2.22-1.29-.84-.24-1.72-.28-2.57-.1-.85.18-1.64.56-2.31,1.12-.67.56-1.19,1.27-1.52,2.07-.33.81-.45,1.68-.36,2.54.09.86.39,1.69.87,2.42.48.72,1.14,1.31,1.9,1.72.77.41,1.62.63,2.49.63h0c0,.87.22,1.73.63,2.49.41.77,1,1.42,1.72,1.91.72.49,1.55.79,2.42.87.86.09,1.74-.03,2.54-.36.81-.33,1.52-.85,2.08-1.51.56-.67.94-1.46,1.12-2.31.18-.85.15-1.73-.1-2.57-.24-.84-.68-1.6-1.29-2.22l7.68-7.69c.74.25,1.54.29,2.3.12.76-.17,1.47-.54,2.04-1.08.74.21,1.52.22,2.27.02.74-.19,1.42-.58,1.97-1.12.07-.07.13-.14.2-.21.77.28,1.61.34,2.41.16.8-.18,1.54-.58,2.12-1.16.07-.07.14-.14.2-.22.63.17,1.28.2,1.92.08.64-.12,1.24-.38,1.77-.76.77.28,1.61.33,2.41.15.8-.18,1.54-.58,2.12-1.16.13-.14.26-.28.38-.43.64.06,1.28-.02,1.88-.23.6-.21,1.15-.56,1.6-1.01.32-.32.59-.69.79-1.09.96-.11,1.86-.55,2.54-1.23.53-.53.91-1.2,1.11-1.92.9-.24,1.7-.77,2.27-1.51.57-.74.89-1.64.91-2.57.55-.17,1.05-.45,1.49-.81.44-.37.8-.82,1.06-1.33.26-.51.42-1.06.47-1.64.05-.57-.02-1.14-.2-1.69.08-.07.16-.14.24-.22.61-.61,1.03-1.39,1.19-2.24.16-.85.06-1.73-.28-2.52.47-.73.71-1.57.69-2.44-.02-.86-.29-1.7-.79-2.41ZM12.5,50.42c-.09.09-.16.2-.21.32-.04.12-.06.25-.05.38.01.13.05.25.12.37.07.11.15.21.26.28.18.12.35.26.5.41.44.44.75.98.92,1.57.16.6.17,1.22.01,1.82-.15.6-.46,1.14-.89,1.59-.43.44-.97.77-1.56.94-.59.17-1.22.18-1.82.04-.6-.15-1.15-.45-1.6-.87-.45-.42-.78-.96-.95-1.55-.18-.59-.2-1.22-.06-1.82.03-.15.03-.3-.01-.44-.04-.14-.12-.28-.22-.38-.11-.11-.24-.18-.38-.22-.14-.04-.3-.05-.44-.01-.6.14-1.23.12-1.82-.06-.59-.18-1.12-.51-1.55-.95-.42-.45-.72-1-.87-1.6-.15-.6-.13-1.23.04-1.82.17-.59.49-1.13.93-1.56.44-.43.99-.74,1.59-.89.6-.15,1.22-.15,1.82.01.59.16,1.14.48,1.57.91.15.15.29.32.41.5.07.11.17.2.28.26.11.07.24.11.37.12.13.01.26,0,.38-.05.12-.04.23-.11.32-.21l8.05-8.04s.07.08.11.12c.46.47,1.03.82,1.65,1.03.21.62.57,1.19,1.03,1.65.04.04.08.07.12.11l-8.05,8.05ZM57.6,17c-.12.14-.2.32-.22.51-.02.19.03.38.13.54.3.49.43,1.07.36,1.64-.07.57-.32,1.1-.73,1.51-.16.16-.33.29-.52.4-.2.12-.35.3-.41.53-.06.22-.03.46.08.66.26.48.36,1.04.28,1.59-.08.55-.33,1.05-.72,1.44-.41.42-.96.68-1.55.73-.12.01-.24.05-.34.11-.11.06-.2.14-.27.24-.07.1-.13.21-.15.33-.03.12-.03.24,0,.36.07.41.05.83-.07,1.22-.12.39-.34.75-.63,1.05-.41.41-.95.67-1.52.73-.2.02-.39.11-.53.25-.14.14-.23.33-.25.53-.07.63-.37,1.22-.86,1.64-.48.42-1.1.64-1.74.63-.19,0-.37.05-.53.16s-.27.26-.33.44c-.2.61-.63,1.12-1.2,1.42-.57.31-1.23.39-1.85.23-.19-.05-.39-.03-.57.05-.18.08-.33.21-.42.38-.32.59-.87,1.03-1.51,1.22-.65.19-1.34.12-1.93-.2-.17-.09-.36-.12-.54-.1-.19.03-.36.11-.49.24-.37.36-.85.6-1.36.69-.51.09-1.04.01-1.51-.21-.2-.09-.42-.11-.63-.05-.21.06-.39.2-.5.39-.17.29-.4.54-.67.74-.27.2-.57.34-.9.42-.32.08-.66.1-.99.05s-.65-.17-.93-.34c-.1-.06-.21-.1-.33-.12-.12-.02-.23-.01-.35.02s-.22.08-.31.15c-.09.07-.17.16-.23.26-.32.55-.83.96-1.43,1.15-.61.19-1.26.15-1.84-.12-.18-.08-.38-.1-.58-.06-.19.05-.37.16-.49.32-.07.09-.14.17-.21.25-.33.33-.74.56-1.18.67-.45.11-.92.1-1.36-.03-.44-.13-.84-.38-1.15-.72-.31-.34-.52-.76-.62-1.21-.03-.17-.12-.33-.24-.45-.12-.12-.28-.21-.45-.24-.45-.09-.87-.3-1.21-.62-.34-.31-.59-.71-.72-1.15-.13-.44-.14-.91-.03-1.36.11-.45.34-.86.67-1.18.08-.08.16-.15.25-.21.16-.12.27-.29.32-.49.05-.19.03-.4-.06-.58-.27-.58-.31-1.23-.12-1.84s.6-1.12,1.15-1.43c.1-.06.19-.14.26-.23.07-.09.12-.2.15-.31.03-.11.04-.23.02-.35-.02-.12-.06-.23-.12-.33-.17-.29-.29-.6-.34-.93-.05-.33-.04-.67.04-.99.08-.32.22-.63.42-.9.2-.27.45-.5.74-.67.19-.11.32-.29.39-.5.06-.21.05-.43-.05-.63-.22-.47-.29-1-.21-1.51.09-.51.33-.99.69-1.36.13-.13.22-.31.24-.49.03-.19,0-.38-.1-.54-.32-.59-.39-1.29-.2-1.93.19-.65.63-1.19,1.22-1.51.17-.09.31-.24.38-.42.08-.18.09-.38.05-.57-.16-.62-.08-1.28.23-1.84.31-.56.81-.99,1.42-1.2.18-.06.33-.18.44-.33.11-.15.16-.34.16-.53-.02-.64.21-1.26.63-1.74.42-.48,1.01-.79,1.64-.86.2-.02.39-.11.53-.25.14-.14.23-.33.25-.53.06-.58.32-1.12.73-1.52.29-.29.65-.51,1.05-.63.39-.12.81-.15,1.22-.07.12.02.24.02.36-.01.12-.03.23-.08.33-.15.1-.07.18-.17.24-.27.06-.11.1-.22.11-.35.06-.59.32-1.13.73-1.55.39-.39.9-.64,1.44-.72.55-.08,1.1.02,1.59.29.2.11.44.14.66.08.22-.06.41-.21.53-.41.11-.19.24-.37.4-.52.41-.41.94-.66,1.51-.73.57-.07,1.15.06,1.64.36.16.1.35.14.54.13.19-.02.37-.09.51-.22.49-.42,1.11-.65,1.76-.63.65.02,1.26.28,1.72.73l.02.02c.16.16.36.25.58.26.22.01.44-.06.61-.2.33-.27.72-.46,1.13-.54.42-.08.85-.06,1.25.06.41.12.77.35,1.07.65.3.3.51.67.63,1.08.06.2.18.37.35.49.17.12.38.17.59.14.38-.04.77,0,1.13.13.36.13.69.33.96.6.27.27.48.6.6.96.13.36.17.75.13,1.13-.02.21.03.42.14.59s.29.3.49.36c.41.12.78.33,1.08.63.3.3.53.67.65,1.07.12.41.15.84.06,1.25-.08.42-.27.8-.54,1.13-.14.17-.21.39-.2.61.01.22.1.43.26.58,0,0,.02.02.02.02.45.46.71,1.07.73,1.72.02.64-.21,1.27-.63,1.76Z"/>
  <path class="st0" d="M47.9,8.94c-.48-.04-.96,0-1.42.15-.46.14-.89.38-1.25.68-.09.07-.16.17-.22.27-.05.1-.09.22-.1.33-.01.12,0,.23.04.34.03.11.09.21.17.3.07.09.17.16.27.22.1.05.22.09.33.1.12.01.23,0,.34-.04.11-.03.21-.09.3-.17.39-.32.88-.48,1.38-.43.5.05.96.29,1.28.67.07.09.17.16.27.22.1.05.22.09.33.1.12.01.23,0,.34-.04.11-.03.21-.09.3-.16.09-.07.16-.17.22-.27.05-.1.09-.22.1-.33.01-.12,0-.23-.04-.34-.03-.11-.09-.21-.16-.3-.31-.37-.68-.68-1.11-.9-.43-.22-.89-.36-1.37-.4Z"/>
  <path class="st0" d="M35.22,12.88c-.97-.05-1.92.29-2.64.95-.72.65-1.15,1.56-1.2,2.53-.01.23.07.46.23.64.16.17.38.28.61.29h.04c.23,0,.44-.09.61-.24.16-.16.26-.37.27-.6.01-.25.07-.49.18-.72.11-.22.26-.43.44-.59.18-.17.4-.3.63-.38.23-.08.48-.12.73-.11.12,0,.23,0,.34-.05.11-.04.21-.1.3-.18.09-.08.16-.17.2-.28.05-.11.08-.22.08-.34.01-.23-.07-.46-.23-.63-.16-.17-.38-.28-.61-.29Z"/>
  <path class="st0" d="M45.31,24.64c-.12,0-.23.03-.34.08-.11.05-.2.11-.28.2-.08.08-.14.18-.18.29-.04.11-.06.22-.06.34.01.5-.18.99-.52,1.35-.35.36-.82.58-1.33.59-.23,0-.46.1-.62.27s-.25.39-.25.63c0,.23.1.46.27.62.17.16.39.25.63.25h.02c.97-.02,1.89-.43,2.56-1.14.67-.7,1.03-1.64,1.01-2.61,0-.12-.02-.23-.07-.34-.05-.11-.11-.2-.2-.28-.08-.08-.18-.14-.29-.18-.11-.04-.23-.06-.34-.05Z"/>
  <path class="st0" d="M27.45,27.33c-.83.51-1.41,1.33-1.64,2.27s-.06,1.94.45,2.77c.12.2.32.34.55.4.23.05.47.01.67-.11.2-.12.34-.32.4-.55.05-.23.01-.47-.11-.67-.26-.43-.35-.94-.23-1.43.12-.49.42-.91.85-1.18.2-.12.34-.32.4-.55.05-.23.02-.47-.11-.67-.12-.2-.32-.34-.55-.4-.23-.05-.47-.01-.67.11Z"/>
</svg>