<svg width="1814" height="134" viewBox="0 0 1814 134" fill="none" xmlns="http://www.w3.org/2000/svg">
<mask id="path-1-outside-1_8_58" maskUnits="userSpaceOnUse" x="0" y="0" width="5492" height="134" fill="black">
<rect fill="white" width="5492" height="134"/>
<path d="M1.61328 131V3.73438H56.1055C85.1094 3.73438 100.402 16.2148 100.402 35.7266C100.402 49.7891 90.3828 60.5117 75.9688 63.5V64.7305C91.9648 65.2578 105.324 77.0352 105.324 95.1406C105.324 115.883 88.4492 131 60.6758 131H1.61328ZM52.0625 104.105C64.0156 104.105 69.9922 99.5352 69.9922 90.9219C69.9922 81.6055 63.3125 76.332 52.5898 76.332H35.0117V104.105H52.0625ZM49.9531 55.4141C59.2695 55.4141 65.9492 50.8438 65.9492 42.7578C65.9492 34.6719 59.6211 30.1016 50.4805 30.1016H35.0117V55.4141H49.9531ZM118.156 131V3.73438H151.555V53.832H198.488V3.73438H232.062V131H198.488V80.9023H151.555V131H118.156ZM332.961 51.0195C331.906 39.0664 323.82 31.1562 310.285 31.1562C292.707 31.1562 282.688 44.6914 282.688 67.3672C282.688 91.2734 292.883 103.578 310.109 103.578C322.941 103.578 331.203 96.5469 332.961 85.2969L366.887 85.6484C365.129 107.445 345.969 132.758 309.406 132.758C274.426 132.758 248.234 109.555 248.234 67.3672C248.234 25.0039 275.129 1.97656 309.406 1.97656C341.047 1.97656 364.074 19.7305 366.887 51.0195H332.961ZM506.105 51.0195C505.051 39.0664 496.965 31.1562 483.43 31.1562C465.852 31.1562 455.832 44.6914 455.832 67.3672C455.832 91.2734 466.027 103.578 483.254 103.578C496.086 103.578 504.348 96.5469 506.105 85.2969L540.031 85.6484C538.273 107.445 519.113 132.758 482.551 132.758C447.57 132.758 421.379 109.555 421.379 67.3672C421.379 25.0039 448.273 1.97656 482.551 1.97656C514.191 1.97656 537.219 19.7305 540.031 51.0195H506.105ZM556.203 131V3.73438H589.602V53.832H636.535V3.73438H670.109V131H636.535V80.9023H589.602V131H556.203ZM720.559 3.73438V131H687.16V3.73438H720.559ZM821.633 51.0195C820.578 39.0664 812.492 31.1562 798.957 31.1562C781.379 31.1562 771.359 44.6914 771.359 67.3672C771.359 91.2734 781.555 103.578 798.781 103.578C811.613 103.578 819.875 96.5469 821.633 85.2969L855.559 85.6484C853.801 107.445 834.641 132.758 798.078 132.758C763.098 132.758 736.906 109.555 736.906 67.3672C736.906 25.0039 763.801 1.97656 798.078 1.97656C829.719 1.97656 852.746 19.7305 855.559 51.0195H821.633ZM871.73 131V3.73438H905.129V55.7656H906.887L946.262 3.73438H985.461L941.867 60.5117L986.34 131H946.262L916.906 82.6602L905.129 97.7773V131H871.73ZM996.008 131V3.73438H1086.89V30.8047H1029.41V53.832H1082.14V80.9023H1029.41V103.93H1086.71V131H996.008ZM1213.98 3.73438V131H1186.03L1138.74 62.2695H1137.86V131H1104.46V3.73438H1132.94L1179.52 72.1133H1180.58V3.73438H1213.98ZM1427.2 131V3.73438H1481.69C1510.7 3.73438 1525.99 16.2148 1525.99 35.7266C1525.99 49.7891 1515.97 60.5117 1501.55 63.5V64.7305C1517.55 65.2578 1530.91 77.0352 1530.91 95.1406C1530.91 115.883 1514.04 131 1486.26 131H1427.2ZM1477.65 104.105C1489.6 104.105 1495.58 99.5352 1495.58 90.9219C1495.58 81.6055 1488.9 76.332 1478.18 76.332H1460.6V104.105H1477.65ZM1475.54 55.4141C1484.86 55.4141 1491.54 50.8438 1491.54 42.7578C1491.54 34.6719 1485.21 30.1016 1476.07 30.1016H1460.6V55.4141H1475.54ZM1543.74 131V3.73438H1577.14V53.832H1624.07V3.73438H1657.65V131H1624.07V80.9023H1577.14V131H1543.74ZM1758.55 51.0195C1757.49 39.0664 1749.41 31.1562 1735.87 31.1562C1718.29 31.1562 1708.27 44.6914 1708.27 67.3672C1708.27 91.2734 1718.47 103.578 1735.7 103.578C1748.53 103.578 1756.79 96.5469 1758.55 85.2969L1792.47 85.6484C1790.71 107.445 1771.55 132.758 1734.99 132.758C1700.01 132.758 1673.82 109.555 1673.82 67.3672C1673.82 25.0039 1700.71 1.97656 1734.99 1.97656C1766.63 1.97656 1789.66 19.7305 1792.47 51.0195H1758.55ZM1931.69 51.0195C1930.64 39.0664 1922.55 31.1562 1909.02 31.1562C1891.44 31.1562 1881.42 44.6914 1881.42 67.3672C1881.42 91.2734 1891.61 103.578 1908.84 103.578C1921.67 103.578 1929.93 96.5469 1931.69 85.2969L1965.62 85.6484C1963.86 107.445 1944.7 132.758 1908.14 132.758C1873.16 132.758 1846.96 109.555 1846.96 67.3672C1846.96 25.0039 1873.86 1.97656 1908.14 1.97656C1939.78 1.97656 1962.8 19.7305 1965.62 51.0195H1931.69ZM1981.79 131V3.73438H2015.19V53.832H2062.12V3.73438H2095.7V131H2062.12V80.9023H2015.19V131H1981.79ZM2146.14 3.73438V131H2112.75V3.73438H2146.14ZM2247.22 51.0195C2246.16 39.0664 2238.08 31.1562 2224.54 31.1562C2206.96 31.1562 2196.95 44.6914 2196.95 67.3672C2196.95 91.2734 2207.14 103.578 2224.37 103.578C2237.2 103.578 2245.46 96.5469 2247.22 85.2969L2281.14 85.6484C2279.39 107.445 2260.23 132.758 2223.66 132.758C2188.68 132.758 2162.49 109.555 2162.49 67.3672C2162.49 25.0039 2189.39 1.97656 2223.66 1.97656C2255.3 1.97656 2278.33 19.7305 2281.14 51.0195H2247.22ZM2297.32 131V3.73438H2330.71V55.7656H2332.47L2371.85 3.73438H2411.05L2367.45 60.5117L2411.93 131H2371.85L2342.49 82.6602L2330.71 97.7773V131H2297.32ZM2421.59 131V3.73438H2512.47V30.8047H2454.99V53.832H2507.73V80.9023H2454.99V103.93H2512.3V131H2421.59ZM2639.56 3.73438V131H2611.61L2564.33 62.2695H2563.45V131H2530.05V3.73438H2558.53L2605.11 72.1133H2606.16V3.73438H2639.56ZM2852.79 131V3.73438H2907.28C2936.28 3.73438 2951.57 16.2148 2951.57 35.7266C2951.57 49.7891 2941.55 60.5117 2927.14 63.5V64.7305C2943.14 65.2578 2956.5 77.0352 2956.5 95.1406C2956.5 115.883 2939.62 131 2911.85 131H2852.79ZM2903.23 104.105C2915.19 104.105 2921.16 99.5352 2921.16 90.9219C2921.16 81.6055 2914.48 76.332 2903.76 76.332H2886.18V104.105H2903.23ZM2901.12 55.4141C2910.44 55.4141 2917.12 50.8438 2917.12 42.7578C2917.12 34.6719 2910.79 30.1016 2901.65 30.1016H2886.18V55.4141H2901.12ZM2969.33 131V3.73438H3002.73V53.832H3049.66V3.73438H3083.23V131H3049.66V80.9023H3002.73V131H2969.33ZM3184.13 51.0195C3183.08 39.0664 3174.99 31.1562 3161.46 31.1562C3143.88 31.1562 3133.86 44.6914 3133.86 67.3672C3133.86 91.2734 3144.05 103.578 3161.28 103.578C3174.11 103.578 3182.38 96.5469 3184.13 85.2969L3218.06 85.6484C3216.3 107.445 3197.14 132.758 3160.58 132.758C3125.6 132.758 3099.41 109.555 3099.41 67.3672C3099.41 25.0039 3126.3 1.97656 3160.58 1.97656C3192.22 1.97656 3215.25 19.7305 3218.06 51.0195H3184.13ZM3357.28 51.0195C3356.22 39.0664 3348.14 31.1562 3334.6 31.1562C3317.02 31.1562 3307 44.6914 3307 67.3672C3307 91.2734 3317.2 103.578 3334.43 103.578C3347.26 103.578 3355.52 96.5469 3357.28 85.2969L3391.2 85.6484C3389.45 107.445 3370.29 132.758 3333.72 132.758C3298.74 132.758 3272.55 109.555 3272.55 67.3672C3272.55 25.0039 3299.45 1.97656 3333.72 1.97656C3365.36 1.97656 3388.39 19.7305 3391.2 51.0195H3357.28ZM3407.38 131V3.73438H3440.77V53.832H3487.71V3.73438H3521.28V131H3487.71V80.9023H3440.77V131H3407.38ZM3571.73 3.73438V131H3538.33V3.73438H3571.73ZM3672.8 51.0195C3671.75 39.0664 3663.66 31.1562 3650.13 31.1562C3632.55 31.1562 3622.53 44.6914 3622.53 67.3672C3622.53 91.2734 3632.73 103.578 3649.95 103.578C3662.79 103.578 3671.05 96.5469 3672.8 85.2969L3706.73 85.6484C3704.97 107.445 3685.81 132.758 3649.25 132.758C3614.27 132.758 3588.08 109.555 3588.08 67.3672C3588.08 25.0039 3614.97 1.97656 3649.25 1.97656C3680.89 1.97656 3703.92 19.7305 3706.73 51.0195H3672.8ZM3722.9 131V3.73438H3756.3V55.7656H3758.06L3797.43 3.73438H3836.63L3793.04 60.5117L3837.51 131H3797.43L3768.08 82.6602L3756.3 97.7773V131H3722.9ZM3847.18 131V3.73438H3938.06V30.8047H3880.58V53.832H3933.31V80.9023H3880.58V103.93H3937.88V131H3847.18ZM4065.15 3.73438V131H4037.2L3989.91 62.2695H3989.04V131H3955.64V3.73438H3984.11L4030.7 72.1133H4031.75V3.73438H4065.15ZM4278.37 131V3.73438H4332.86C4361.87 3.73438 4377.16 16.2148 4377.16 35.7266C4377.16 49.7891 4367.14 60.5117 4352.73 63.5V64.7305C4368.72 65.2578 4382.08 77.0352 4382.08 95.1406C4382.08 115.883 4365.21 131 4337.43 131H4278.37ZM4328.82 104.105C4340.77 104.105 4346.75 99.5352 4346.75 90.9219C4346.75 81.6055 4340.07 76.332 4329.35 76.332H4311.77V104.105H4328.82ZM4326.71 55.4141C4336.03 55.4141 4342.71 50.8438 4342.71 42.7578C4342.71 34.6719 4336.38 30.1016 4327.24 30.1016H4311.77V55.4141H4326.71ZM4394.91 131V3.73438H4428.31V53.832H4475.25V3.73438H4508.82V131H4475.25V80.9023H4428.31V131H4394.91ZM4609.72 51.0195C4608.66 39.0664 4600.58 31.1562 4587.04 31.1562C4569.46 31.1562 4559.45 44.6914 4559.45 67.3672C4559.45 91.2734 4569.64 103.578 4586.87 103.578C4599.7 103.578 4607.96 96.5469 4609.72 85.2969L4643.64 85.6484C4641.89 107.445 4622.73 132.758 4586.16 132.758C4551.18 132.758 4524.99 109.555 4524.99 67.3672C4524.99 25.0039 4551.89 1.97656 4586.16 1.97656C4617.8 1.97656 4640.83 19.7305 4643.64 51.0195H4609.72ZM4782.86 51.0195C4781.81 39.0664 4773.72 31.1562 4760.19 31.1562C4742.61 31.1562 4732.59 44.6914 4732.59 67.3672C4732.59 91.2734 4742.79 103.578 4760.01 103.578C4772.84 103.578 4781.11 96.5469 4782.86 85.2969L4816.79 85.6484C4815.03 107.445 4795.87 132.758 4759.31 132.758C4724.33 132.758 4698.14 109.555 4698.14 67.3672C4698.14 25.0039 4725.03 1.97656 4759.31 1.97656C4790.95 1.97656 4813.98 19.7305 4816.79 51.0195H4782.86ZM4832.96 131V3.73438H4866.36V53.832H4913.29V3.73438H4946.87V131H4913.29V80.9023H4866.36V131H4832.96ZM4997.32 3.73438V131H4963.92V3.73438H4997.32ZM5098.39 51.0195C5097.34 39.0664 5089.25 31.1562 5075.71 31.1562C5058.14 31.1562 5048.12 44.6914 5048.12 67.3672C5048.12 91.2734 5058.31 103.578 5075.54 103.578C5088.37 103.578 5096.63 96.5469 5098.39 85.2969L5132.32 85.6484C5130.56 107.445 5111.4 132.758 5074.84 132.758C5039.86 132.758 5013.66 109.555 5013.66 67.3672C5013.66 25.0039 5040.56 1.97656 5074.84 1.97656C5106.48 1.97656 5129.5 19.7305 5132.32 51.0195H5098.39ZM5148.49 131V3.73438H5181.89V55.7656H5183.64L5223.02 3.73438H5262.22L5218.62 60.5117L5263.1 131H5223.02L5193.66 82.6602L5181.89 97.7773V131H5148.49ZM5272.77 131V3.73438H5363.64V30.8047H5306.16V53.832H5358.9V80.9023H5306.16V103.93H5363.47V131H5272.77ZM5490.73 3.73438V131H5462.79L5415.5 62.2695H5414.62V131H5381.22V3.73438H5409.7L5456.28 72.1133H5457.34V3.73438H5490.73Z"/>
</mask>
<path d="M1.61328 131H0.613281V132H1.61328V131ZM1.61328 3.73438V2.73438H0.613281V3.73438H1.61328ZM75.9688 63.5L75.7657 62.5208L74.9688 62.6861V63.5H75.9688ZM75.9688 64.7305H74.9688V65.698L75.9358 65.7299L75.9688 64.7305ZM35.0117 76.332V75.332H34.0117V76.332H35.0117ZM35.0117 104.105H34.0117V105.105H35.0117V104.105ZM35.0117 30.1016V29.1016H34.0117V30.1016H35.0117ZM35.0117 55.4141H34.0117V56.4141H35.0117V55.4141ZM1.61328 131H2.61328V3.73438H1.61328H0.613281V131H1.61328ZM1.61328 3.73438V4.73438H56.1055V3.73438V2.73438H1.61328V3.73438ZM56.1055 3.73438V4.73438C70.4823 4.73438 81.3169 7.83007 88.5323 13.215C95.7097 18.5716 99.4023 26.2627 99.4023 35.7266H100.402H101.402C101.402 25.6787 97.4485 17.3737 89.7285 11.6122C82.0464 5.87891 70.7326 2.73438 56.1055 2.73438V3.73438ZM100.402 35.7266H99.4023C99.4023 49.2368 89.7967 59.612 75.7657 62.5208L75.9688 63.5L76.1718 64.4792C90.9689 61.4115 101.402 50.3413 101.402 35.7266H100.402ZM75.9688 63.5H74.9688V64.7305H75.9688H76.9688V63.5H75.9688ZM75.9688 64.7305L75.9358 65.7299C91.4353 66.2409 104.324 77.6162 104.324 95.1406H105.324H106.324C106.324 76.4541 92.4944 64.2747 76.0017 63.731L75.9688 64.7305ZM105.324 95.1406H104.324C104.324 105.22 100.234 113.9 92.777 120.079C85.3059 126.269 74.3873 130 60.6758 130V131V132C74.7377 132 86.1433 128.172 94.0531 121.619C101.977 115.053 106.324 105.803 106.324 95.1406H105.324ZM60.6758 131V130H1.61328V131V132H60.6758V131ZM52.0625 104.105V105.105C58.1396 105.105 62.8719 103.948 66.106 101.546C69.3926 99.1056 70.9922 95.4853 70.9922 90.9219H69.9922H68.9922C68.9922 94.9717 67.6034 97.9432 64.9136 99.9408C62.1711 101.978 57.9385 103.105 52.0625 103.105V104.105ZM69.9922 90.9219H70.9922C70.9922 86.0047 69.2178 82.0586 65.9483 79.3619C62.7048 76.6866 58.102 75.332 52.5898 75.332V76.332V77.332C57.8004 77.332 61.8987 78.6142 64.6757 80.9047C67.4268 83.1738 68.9922 86.5226 68.9922 90.9219H69.9922ZM52.5898 76.332V75.332H35.0117V76.332V77.332H52.5898V76.332ZM35.0117 76.332H34.0117V104.105H35.0117H36.0117V76.332H35.0117ZM35.0117 104.105V105.105H52.0625V104.105V103.105H35.0117V104.105ZM49.9531 55.4141V56.4141C54.761 56.4141 58.9935 55.2362 62.0498 52.9144C65.1361 50.5697 66.9492 47.1096 66.9492 42.7578H65.9492H64.9492C64.9492 46.492 63.4225 49.3599 60.8399 51.3219C58.2272 53.3067 54.4616 54.4141 49.9531 54.4141V55.4141ZM65.9492 42.7578H66.9492C66.9492 38.4262 65.2404 34.9663 62.2626 32.6129C59.3127 30.2815 55.2046 29.1016 50.4805 29.1016V30.1016V31.1016C54.8969 31.1016 58.5232 32.2068 61.0225 34.182C63.494 36.1353 64.9492 39.0035 64.9492 42.7578H65.9492ZM50.4805 30.1016V29.1016H35.0117V30.1016V31.1016H50.4805V30.1016ZM35.0117 30.1016H34.0117V55.4141H35.0117H36.0117V30.1016H35.0117ZM35.0117 55.4141V56.4141H49.9531V55.4141V54.4141H35.0117V55.4141ZM118.156 131H117.156V132H118.156V131ZM118.156 3.73438V2.73438H117.156V3.73438H118.156ZM151.555 3.73438H152.555V2.73438H151.555V3.73438ZM151.555 53.832H150.555V54.832H151.555V53.832ZM198.488 53.832V54.832H199.488V53.832H198.488ZM198.488 3.73438V2.73438H197.488V3.73438H198.488ZM232.062 3.73438H233.062V2.73438H232.062V3.73438ZM232.062 131V132H233.062V131H232.062ZM198.488 131H197.488V132H198.488V131ZM198.488 80.9023H199.488V79.9023H198.488V80.9023ZM151.555 80.9023V79.9023H150.555V80.9023H151.555ZM151.555 131V132H152.555V131H151.555ZM118.156 131H119.156V3.73438H118.156H117.156V131H118.156ZM118.156 3.73438V4.73438H151.555V3.73438V2.73438H118.156V3.73438ZM151.555 3.73438H150.555V53.832H151.555H152.555V3.73438H151.555ZM151.555 53.832V54.832H198.488V53.832V52.832H151.555V53.832ZM198.488 53.832H199.488V3.73438H198.488H197.488V53.832H198.488ZM198.488 3.73438V4.73438H232.062V3.73438V2.73438H198.488V3.73438ZM232.062 3.73438H231.062V131H232.062H233.062V3.73438H232.062ZM232.062 131V130H198.488V131V132H232.062V131ZM198.488 131H199.488V80.9023H198.488H197.488V131H198.488ZM198.488 80.9023V79.9023H151.555V80.9023V81.9023H198.488V80.9023ZM151.555 80.9023H150.555V131H151.555H152.555V80.9023H151.555ZM151.555 131V130H118.156V131V132H151.555V131ZM332.961 51.0195L331.965 51.1074L332.045 52.0195H332.961V51.0195ZM332.961 85.2969L332.971 84.2969L332.106 84.288L331.973 85.1425L332.961 85.2969ZM366.887 85.6484L367.883 85.7288L367.97 84.6596L366.897 84.6485L366.887 85.6484ZM366.887 51.0195V52.0195H367.981L367.883 50.93L366.887 51.0195ZM332.961 51.0195L333.957 50.9316C333.411 44.7479 331.036 39.5316 326.973 35.8632C322.91 32.195 317.25 30.1562 310.285 30.1562V31.1562V32.1562C316.855 32.1562 322.006 34.0726 325.633 37.3477C329.26 40.6227 331.456 45.3381 331.965 51.1074L332.961 51.0195ZM310.285 31.1562V30.1562C301.209 30.1562 294.004 33.6665 289.097 40.1551C284.219 46.6063 281.688 55.8999 281.688 67.3672H282.688H283.688C283.688 56.1587 286.166 47.3468 290.692 41.3615C295.19 35.4136 301.783 32.1562 310.285 32.1562V31.1562ZM282.688 67.3672H281.688C281.688 79.4422 284.259 88.7451 289.148 95.0502C294.067 101.394 301.235 104.578 310.109 104.578V103.578V102.578C301.758 102.578 295.214 99.6096 290.729 93.8248C286.213 88.001 283.688 79.1984 283.688 67.3672H282.688ZM310.109 103.578V104.578C316.709 104.578 322.219 102.768 326.319 99.432C330.424 96.0926 333.037 91.2882 333.949 85.4512L332.961 85.2969L331.973 85.1425C331.127 90.5556 328.731 94.8918 325.057 97.8805C321.379 100.873 316.342 102.578 310.109 102.578V103.578ZM332.961 85.2969L332.951 86.2968L366.876 86.6484L366.887 85.6484L366.897 84.6485L332.971 84.2969L332.961 85.2969ZM366.887 85.6484L365.89 85.5681C364.172 106.867 345.426 131.758 309.406 131.758V132.758V133.758C346.511 133.758 366.086 108.023 367.883 85.7288L366.887 85.6484ZM309.406 132.758V131.758C292.14 131.758 277.119 126.035 266.415 115.181C255.712 104.328 249.234 88.2501 249.234 67.3672H248.234H247.234C247.234 88.6718 253.852 105.29 264.991 116.585C276.128 127.879 291.692 133.758 309.406 133.758V132.758ZM248.234 67.3672H249.234C249.234 46.4029 255.884 30.3252 266.675 19.4913C277.469 8.65409 292.493 2.97656 309.406 2.97656V1.97656V0.976562C292.042 0.976562 276.48 6.81271 265.258 18.0799C254.032 29.3506 247.234 45.9682 247.234 67.3672H248.234ZM309.406 1.97656V2.97656C325.043 2.97656 338.469 7.36223 348.319 15.5342C358.157 23.6975 364.506 35.7032 365.891 51.1091L366.887 51.0195L367.883 50.93C366.455 35.0468 359.884 22.531 349.596 13.9951C339.318 5.46785 325.41 0.976562 309.406 0.976562V1.97656ZM366.887 51.0195V50.0195H332.961V51.0195V52.0195H366.887V51.0195ZM506.105 51.0195L505.109 51.1074L505.19 52.0195H506.105V51.0195ZM506.105 85.2969L506.116 84.2969L505.251 84.288L505.117 85.1425L506.105 85.2969ZM540.031 85.6484L541.028 85.7288L541.114 84.6596L540.042 84.6485L540.031 85.6484ZM540.031 51.0195V52.0195H541.125L541.027 50.93L540.031 51.0195ZM506.105 51.0195L507.102 50.9316C506.556 44.7479 504.181 39.5316 500.118 35.8632C496.055 32.195 490.395 30.1562 483.43 30.1562V31.1562V32.1562C490 32.1562 495.15 34.0726 498.778 37.3477C502.405 40.6227 504.6 45.3381 505.109 51.1074L506.105 51.0195ZM483.43 31.1562V30.1562C474.354 30.1562 467.148 33.6665 462.241 40.1551C457.363 46.6063 454.832 55.8999 454.832 67.3672H455.832H456.832C456.832 56.1587 459.311 47.3468 463.837 41.3615C468.334 35.4136 474.927 32.1562 483.43 32.1562V31.1562ZM455.832 67.3672H454.832C454.832 79.4422 457.404 88.7451 462.293 95.0502C467.212 101.394 474.379 104.578 483.254 104.578V103.578V102.578C474.902 102.578 468.359 99.6096 463.873 93.8248C459.358 88.001 456.832 79.1984 456.832 67.3672H455.832ZM483.254 103.578V104.578C489.853 104.578 495.363 102.768 499.464 99.432C503.568 96.0926 506.181 91.2882 507.094 85.4512L506.105 85.2969L505.117 85.1425C504.272 90.5556 501.875 94.8918 498.201 97.8805C494.524 100.873 489.487 102.578 483.254 102.578V103.578ZM506.105 85.2969L506.095 86.2968L540.021 86.6484L540.031 85.6484L540.042 84.6485L506.116 84.2969L506.105 85.2969ZM540.031 85.6484L539.034 85.5681C537.317 106.867 518.571 131.758 482.551 131.758V132.758V133.758C519.656 133.758 539.23 108.023 541.028 85.7288L540.031 85.6484ZM482.551 132.758V131.758C465.284 131.758 450.263 126.035 439.559 115.181C428.857 104.328 422.379 88.2501 422.379 67.3672H421.379H420.379C420.379 88.6718 426.997 105.29 438.135 116.585C449.272 127.879 464.837 133.758 482.551 133.758V132.758ZM421.379 67.3672H422.379C422.379 46.4029 429.029 30.3252 439.819 19.4913C450.614 8.65409 465.638 2.97656 482.551 2.97656V1.97656V0.976562C465.186 0.976562 449.625 6.81271 438.402 18.0799C427.177 29.3506 420.379 45.9682 420.379 67.3672H421.379ZM482.551 1.97656V2.97656C498.187 2.97656 511.614 7.36223 521.463 15.5342C531.302 23.6975 537.65 35.7032 539.035 51.1091L540.031 51.0195L541.027 50.93C539.6 35.0468 533.028 22.531 522.74 13.9951C512.463 5.46785 498.555 0.976562 482.551 0.976562V1.97656ZM540.031 51.0195V50.0195H506.105V51.0195V52.0195H540.031V51.0195ZM556.203 131H555.203V132H556.203V131ZM556.203 3.73438V2.73438H555.203V3.73438H556.203ZM589.602 3.73438H590.602V2.73438H589.602V3.73438ZM589.602 53.832H588.602V54.832H589.602V53.832ZM636.535 53.832V54.832H637.535V53.832H636.535ZM636.535 3.73438V2.73438H635.535V3.73438H636.535ZM670.109 3.73438H671.109V2.73438H670.109V3.73438ZM670.109 131V132H671.109V131H670.109ZM636.535 131H635.535V132H636.535V131ZM636.535 80.9023H637.535V79.9023H636.535V80.9023ZM589.602 80.9023V79.9023H588.602V80.9023H589.602ZM589.602 131V132H590.602V131H589.602ZM556.203 131H557.203V3.73438H556.203H555.203V131H556.203ZM556.203 3.73438V4.73438H589.602V3.73438V2.73438H556.203V3.73438ZM589.602 3.73438H588.602V53.832H589.602H590.602V3.73438H589.602ZM589.602 53.832V54.832H636.535V53.832V52.832H589.602V53.832ZM636.535 53.832H637.535V3.73438H636.535H635.535V53.832H636.535ZM636.535 3.73438V4.73438H670.109V3.73438V2.73438H636.535V3.73438ZM670.109 3.73438H669.109V131H670.109H671.109V3.73438H670.109ZM670.109 131V130H636.535V131V132H670.109V131ZM636.535 131H637.535V80.9023H636.535H635.535V131H636.535ZM636.535 80.9023V79.9023H589.602V80.9023V81.9023H636.535V80.9023ZM589.602 80.9023H588.602V131H589.602H590.602V80.9023H589.602ZM589.602 131V130H556.203V131V132H589.602V131ZM720.559 3.73438H721.559V2.73438H720.559V3.73438ZM720.559 131V132H721.559V131H720.559ZM687.16 131H686.16V132H687.16V131ZM687.16 3.73438V2.73438H686.16V3.73438H687.16ZM720.559 3.73438H719.559V131H720.559H721.559V3.73438H720.559ZM720.559 131V130H687.16V131V132H720.559V131ZM687.16 131H688.16V3.73438H687.16H686.16V131H687.16ZM687.16 3.73438V4.73438H720.559V3.73438V2.73438H687.16V3.73438ZM821.633 51.0195L820.637 51.1074L820.717 52.0195H821.633V51.0195ZM821.633 85.2969L821.643 84.2969L820.778 84.288L820.645 85.1425L821.633 85.2969ZM855.559 85.6484L856.555 85.7288L856.642 84.6596L855.569 84.6485L855.559 85.6484ZM855.559 51.0195V52.0195H856.653L856.555 50.93L855.559 51.0195ZM821.633 51.0195L822.629 50.9316C822.083 44.7479 819.708 39.5316 815.645 35.8632C811.582 32.195 805.922 30.1562 798.957 30.1562V31.1562V32.1562C805.527 32.1562 810.677 34.0726 814.305 37.3477C817.932 40.6227 820.128 45.3381 820.637 51.1074L821.633 51.0195ZM798.957 31.1562V30.1562C789.881 30.1562 782.675 33.6665 777.769 40.1551C772.891 46.6063 770.359 55.8999 770.359 67.3672H771.359H772.359C772.359 56.1587 774.838 47.3468 779.364 41.3615C783.862 35.4136 790.455 32.1562 798.957 32.1562V31.1562ZM771.359 67.3672H770.359C770.359 79.4422 772.931 88.7451 777.82 95.0502C782.739 101.394 789.906 104.578 798.781 104.578V103.578V102.578C790.429 102.578 783.886 99.6096 779.401 93.8248C774.885 88.001 772.359 79.1984 772.359 67.3672H771.359ZM798.781 103.578V104.578C805.381 104.578 810.89 102.768 814.991 99.432C819.096 96.0926 821.709 91.2882 822.621 85.4512L821.633 85.2969L820.645 85.1425C819.799 90.5556 817.402 94.8918 813.729 97.8805C810.051 100.873 805.014 102.578 798.781 102.578V103.578ZM821.633 85.2969L821.622 86.2968L855.548 86.6484L855.559 85.6484L855.569 84.6485L821.643 84.2969L821.633 85.2969ZM855.559 85.6484L854.562 85.5681C852.844 106.867 834.098 131.758 798.078 131.758V132.758V133.758C835.183 133.758 854.757 108.023 856.555 85.7288L855.559 85.6484ZM798.078 132.758V131.758C780.812 131.758 765.79 126.035 755.087 115.181C744.384 104.328 737.906 88.2501 737.906 67.3672H736.906H735.906C735.906 88.6718 742.524 105.29 753.662 116.585C764.799 127.879 780.364 133.758 798.078 133.758V132.758ZM736.906 67.3672H737.906C737.906 46.4029 744.556 30.3252 755.347 19.4913C766.141 8.65409 781.165 2.97656 798.078 2.97656V1.97656V0.976562C780.714 0.976562 765.152 6.81271 753.93 18.0799C742.704 29.3506 735.906 45.9682 735.906 67.3672H736.906ZM798.078 1.97656V2.97656C813.715 2.97656 827.141 7.36223 836.99 15.5342C846.829 23.6975 853.178 35.7032 854.563 51.1091L855.559 51.0195L856.555 50.93C855.127 35.0468 848.556 22.531 838.267 13.9951C827.99 5.46785 814.082 0.976562 798.078 0.976562V1.97656ZM855.559 51.0195V50.0195H821.633V51.0195V52.0195H855.559V51.0195ZM871.73 131H870.73V132H871.73V131ZM871.73 3.73438V2.73438H870.73V3.73438H871.73ZM905.129 3.73438H906.129V2.73438H905.129V3.73438ZM905.129 55.7656H904.129V56.7656H905.129V55.7656ZM906.887 55.7656V56.7656H907.384L907.684 56.3691L906.887 55.7656ZM946.262 3.73438V2.73438H945.764L945.464 3.13093L946.262 3.73438ZM985.461 3.73438L986.254 4.34337L987.49 2.73438H985.461V3.73438ZM941.867 60.5117L941.074 59.9027L940.649 60.4557L941.021 61.0453L941.867 60.5117ZM986.34 131V132H988.153L987.186 130.466L986.34 131ZM946.262 131L945.407 131.519L945.699 132H946.262V131ZM916.906 82.6602L917.761 82.1411L917.008 80.9019L916.117 82.0456L916.906 82.6602ZM905.129 97.7773L904.34 97.1628L904.129 97.4338V97.7773H905.129ZM905.129 131V132H906.129V131H905.129ZM871.73 131H872.73V3.73438H871.73H870.73V131H871.73ZM871.73 3.73438V4.73438H905.129V3.73438V2.73438H871.73V3.73438ZM905.129 3.73438H904.129V55.7656H905.129H906.129V3.73438H905.129ZM905.129 55.7656V56.7656H906.887V55.7656V54.7656H905.129V55.7656ZM906.887 55.7656L907.684 56.3691L947.059 4.33782L946.262 3.73438L945.464 3.13093L906.089 55.1622L906.887 55.7656ZM946.262 3.73438V4.73438H985.461V3.73438V2.73438H946.262V3.73438ZM985.461 3.73438L984.668 3.12538L941.074 59.9027L941.867 60.5117L942.66 61.1207L986.254 4.34337L985.461 3.73438ZM941.867 60.5117L941.021 61.0453L985.494 131.534L986.34 131L987.186 130.466L942.713 59.9781L941.867 60.5117ZM986.34 131V130H946.262V131V132H986.34V131ZM946.262 131L947.116 130.481L917.761 82.1411L916.906 82.6602L916.052 83.1792L945.407 131.519L946.262 131ZM916.906 82.6602L916.117 82.0456L904.34 97.1628L905.129 97.7773L905.918 98.3919L917.695 83.2747L916.906 82.6602ZM905.129 97.7773H904.129V131H905.129H906.129V97.7773H905.129ZM905.129 131V130H871.73V131V132H905.129V131ZM996.008 131H995.008V132H996.008V131ZM996.008 3.73438V2.73438H995.008V3.73438H996.008ZM1086.89 3.73438H1087.89V2.73438H1086.89V3.73438ZM1086.89 30.8047V31.8047H1087.89V30.8047H1086.89ZM1029.41 30.8047V29.8047H1028.41V30.8047H1029.41ZM1029.41 53.832H1028.41V54.832H1029.41V53.832ZM1082.14 53.832H1083.14V52.832H1082.14V53.832ZM1082.14 80.9023V81.9023H1083.14V80.9023H1082.14ZM1029.41 80.9023V79.9023H1028.41V80.9023H1029.41ZM1029.41 103.93H1028.41V104.93H1029.41V103.93ZM1086.71 103.93H1087.71V102.93H1086.71V103.93ZM1086.71 131V132H1087.71V131H1086.71ZM996.008 131H997.008V3.73438H996.008H995.008V131H996.008ZM996.008 3.73438V4.73438H1086.89V3.73438V2.73438H996.008V3.73438ZM1086.89 3.73438H1085.89V30.8047H1086.89H1087.89V3.73438H1086.89ZM1086.89 30.8047V29.8047H1029.41V30.8047V31.8047H1086.89V30.8047ZM1029.41 30.8047H1028.41V53.832H1029.41H1030.41V30.8047H1029.41ZM1029.41 53.832V54.832H1082.14V53.832V52.832H1029.41V53.832ZM1082.14 53.832H1081.14V80.9023H1082.14H1083.14V53.832H1082.14ZM1082.14 80.9023V79.9023H1029.41V80.9023V81.9023H1082.14V80.9023ZM1029.41 80.9023H1028.41V103.93H1029.41H1030.41V80.9023H1029.41ZM1029.41 103.93V104.93H1086.71V103.93V102.93H1029.41V103.93ZM1086.71 103.93H1085.71V131H1086.71H1087.71V103.93H1086.71ZM1086.71 131V130H996.008V131V132H1086.71V131ZM1213.98 3.73438H1214.98V2.73438H1213.98V3.73438ZM1213.98 131V132H1214.98V131H1213.98ZM1186.03 131L1185.2 131.567L1185.5 132H1186.03V131ZM1138.74 62.2695L1139.57 61.7027L1139.27 61.2695H1138.74V62.2695ZM1137.86 62.2695V61.2695H1136.86V62.2695H1137.86ZM1137.86 131V132H1138.86V131H1137.86ZM1104.46 131H1103.46V132H1104.46V131ZM1104.46 3.73438V2.73438H1103.46V3.73438H1104.46ZM1132.94 3.73438L1133.77 3.17137L1133.47 2.73438H1132.94V3.73438ZM1179.52 72.1133L1178.7 72.6763L1178.99 73.1133H1179.52V72.1133ZM1180.58 72.1133V73.1133H1181.58V72.1133H1180.58ZM1180.58 3.73438V2.73438H1179.58V3.73438H1180.58ZM1213.98 3.73438H1212.98V131H1213.98H1214.98V3.73438H1213.98ZM1213.98 131V130H1186.03V131V132H1213.98V131ZM1186.03 131L1186.85 130.433L1139.57 61.7027L1138.74 62.2695L1137.92 62.8363L1185.2 131.567L1186.03 131ZM1138.74 62.2695V61.2695H1137.86V62.2695V63.2695H1138.74V62.2695ZM1137.86 62.2695H1136.86V131H1137.86H1138.86V62.2695H1137.86ZM1137.86 131V130H1104.46V131V132H1137.86V131ZM1104.46 131H1105.46V3.73438H1104.46H1103.46V131H1104.46ZM1104.46 3.73438V4.73438H1132.94V3.73438V2.73438H1104.46V3.73438ZM1132.94 3.73438L1132.11 4.29738L1178.7 72.6763L1179.52 72.1133L1180.35 71.5503L1133.77 3.17137L1132.94 3.73438ZM1179.52 72.1133V73.1133H1180.58V72.1133V71.1133H1179.52V72.1133ZM1180.58 72.1133H1181.58V3.73438H1180.58H1179.58V72.1133H1180.58ZM1180.58 3.73438V4.73438H1213.98V3.73438V2.73438H1180.58V3.73438ZM1427.2 131H1426.2V132H1427.2V131ZM1427.2 3.73438V2.73438H1426.2V3.73438H1427.2ZM1501.55 63.5L1501.35 62.5208L1500.55 62.6861V63.5H1501.55ZM1501.55 64.7305H1500.55V65.698L1501.52 65.7299L1501.55 64.7305ZM1460.6 76.332V75.332H1459.6V76.332H1460.6ZM1460.6 104.105H1459.6V105.105H1460.6V104.105ZM1460.6 30.1016V29.1016H1459.6V30.1016H1460.6ZM1460.6 55.4141H1459.6V56.4141H1460.6V55.4141ZM1427.2 131H1428.2V3.73438H1427.2H1426.2V131H1427.2ZM1427.2 3.73438V4.73438H1481.69V3.73438V2.73438H1427.2V3.73438ZM1481.69 3.73438V4.73438C1496.07 4.73438 1506.9 7.83007 1514.12 13.215C1521.3 18.5716 1524.99 26.2627 1524.99 35.7266H1525.99H1526.99C1526.99 25.6787 1523.03 17.3737 1515.31 11.6122C1507.63 5.87891 1496.32 2.73438 1481.69 2.73438V3.73438ZM1525.99 35.7266H1524.99C1524.99 49.2368 1515.38 59.612 1501.35 62.5208L1501.55 63.5L1501.76 64.4792C1516.55 61.4115 1526.99 50.3413 1526.99 35.7266H1525.99ZM1501.55 63.5H1500.55V64.7305H1501.55H1502.55V63.5H1501.55ZM1501.55 64.7305L1501.52 65.7299C1517.02 66.2409 1529.91 77.6162 1529.91 95.1406H1530.91H1531.91C1531.91 76.4541 1518.08 64.2747 1501.59 63.731L1501.55 64.7305ZM1530.91 95.1406H1529.91C1529.91 105.22 1525.82 113.9 1518.36 120.079C1510.89 126.269 1499.97 130 1486.26 130V131V132C1500.32 132 1511.73 128.172 1519.64 121.619C1527.56 115.053 1531.91 105.803 1531.91 95.1406H1530.91ZM1486.26 131V130H1427.2V131V132H1486.26V131ZM1477.65 104.105V105.105C1483.73 105.105 1488.46 103.948 1491.69 101.546C1494.98 99.1056 1496.58 95.4853 1496.58 90.9219H1495.58H1494.58C1494.58 94.9717 1493.19 97.9432 1490.5 99.9408C1487.76 101.978 1483.52 103.105 1477.65 103.105V104.105ZM1495.58 90.9219H1496.58C1496.58 86.0047 1494.8 82.0586 1491.53 79.3619C1488.29 76.6866 1483.69 75.332 1478.18 75.332V76.332V77.332C1483.39 77.332 1487.48 78.6142 1490.26 80.9047C1493.01 83.1738 1494.58 86.5226 1494.58 90.9219H1495.58ZM1478.18 76.332V75.332H1460.6V76.332V77.332H1478.18V76.332ZM1460.6 76.332H1459.6V104.105H1460.6H1461.6V76.332H1460.6ZM1460.6 104.105V105.105H1477.65V104.105V103.105H1460.6V104.105ZM1475.54 55.4141V56.4141C1480.35 56.4141 1484.58 55.2362 1487.64 52.9144C1490.72 50.5697 1492.54 47.1096 1492.54 42.7578H1491.54H1490.54C1490.54 46.492 1489.01 49.3599 1486.43 51.3219C1483.81 53.3067 1480.05 54.4141 1475.54 54.4141V55.4141ZM1491.54 42.7578H1492.54C1492.54 38.4262 1490.83 34.9663 1487.85 32.6129C1484.9 30.2815 1480.79 29.1016 1476.07 29.1016V30.1016V31.1016C1480.48 31.1016 1484.11 32.2068 1486.61 34.182C1489.08 36.1353 1490.54 39.0035 1490.54 42.7578H1491.54ZM1476.07 30.1016V29.1016H1460.6V30.1016V31.1016H1476.07V30.1016ZM1460.6 30.1016H1459.6V55.4141H1460.6H1461.6V30.1016H1460.6ZM1460.6 55.4141V56.4141H1475.54V55.4141V54.4141H1460.6V55.4141ZM1543.74 131H1542.74V132H1543.74V131ZM1543.74 3.73438V2.73438H1542.74V3.73438H1543.74ZM1577.14 3.73438H1578.14V2.73438H1577.14V3.73438ZM1577.14 53.832H1576.14V54.832H1577.14V53.832ZM1624.07 53.832V54.832H1625.07V53.832H1624.07ZM1624.07 3.73438V2.73438H1623.07V3.73438H1624.07ZM1657.65 3.73438H1658.65V2.73438H1657.65V3.73438ZM1657.65 131V132H1658.65V131H1657.65ZM1624.07 131H1623.07V132H1624.07V131ZM1624.07 80.9023H1625.07V79.9023H1624.07V80.9023ZM1577.14 80.9023V79.9023H1576.14V80.9023H1577.14ZM1577.14 131V132H1578.14V131H1577.14ZM1543.74 131H1544.74V3.73438H1543.74H1542.74V131H1543.74ZM1543.74 3.73438V4.73438H1577.14V3.73438V2.73438H1543.74V3.73438ZM1577.14 3.73438H1576.14V53.832H1577.14H1578.14V3.73438H1577.14ZM1577.14 53.832V54.832H1624.07V53.832V52.832H1577.14V53.832ZM1624.07 53.832H1625.07V3.73438H1624.07H1623.07V53.832H1624.07ZM1624.07 3.73438V4.73438H1657.65V3.73438V2.73438H1624.07V3.73438ZM1657.65 3.73438H1656.65V131H1657.65H1658.65V3.73438H1657.65ZM1657.65 131V130H1624.07V131V132H1657.65V131ZM1624.07 131H1625.07V80.9023H1624.07H1623.07V131H1624.07ZM1624.07 80.9023V79.9023H1577.14V80.9023V81.9023H1624.07V80.9023ZM1577.14 80.9023H1576.14V131H1577.14H1578.14V80.9023H1577.14ZM1577.14 131V130H1543.74V131V132H1577.14V131ZM1758.55 51.0195L1757.55 51.1074L1757.63 52.0195H1758.55V51.0195ZM1758.55 85.2969L1758.56 84.2969L1757.69 84.288L1757.56 85.1425L1758.55 85.2969ZM1792.47 85.6484L1793.47 85.7288L1793.56 84.6596L1792.48 84.6485L1792.47 85.6484ZM1792.47 51.0195V52.0195H1793.57L1793.47 50.93L1792.47 51.0195ZM1758.55 51.0195L1759.54 50.9316C1759 44.7479 1756.62 39.5316 1752.56 35.8632C1748.5 32.195 1742.84 30.1562 1735.87 30.1562V31.1562V32.1562C1742.44 32.1562 1747.59 34.0726 1751.22 37.3477C1754.85 40.6227 1757.04 45.3381 1757.55 51.1074L1758.55 51.0195ZM1735.87 31.1562V30.1562C1726.8 30.1562 1719.59 33.6665 1714.68 40.1551C1709.8 46.6063 1707.27 55.8999 1707.27 67.3672H1708.27H1709.27C1709.27 56.1587 1711.75 47.3468 1716.28 41.3615C1720.78 35.4136 1727.37 32.1562 1735.87 32.1562V31.1562ZM1708.27 67.3672H1707.27C1707.27 79.4422 1709.85 88.7451 1714.73 95.0502C1719.65 101.394 1726.82 104.578 1735.7 104.578V103.578V102.578C1727.34 102.578 1720.8 99.6096 1716.31 93.8248C1711.8 88.001 1709.27 79.1984 1709.27 67.3672H1708.27ZM1735.7 103.578V104.578C1742.29 104.578 1747.8 102.768 1751.91 99.432C1756.01 96.0926 1758.62 91.2882 1759.53 85.4512L1758.55 85.2969L1757.56 85.1425C1756.71 90.5556 1754.32 94.8918 1750.64 97.8805C1746.96 100.873 1741.93 102.578 1735.7 102.578V103.578ZM1758.55 85.2969L1758.54 86.2968L1792.46 86.6484L1792.47 85.6484L1792.48 84.6485L1758.56 84.2969L1758.55 85.2969ZM1792.47 85.6484L1791.48 85.5681C1789.76 106.867 1771.01 131.758 1734.99 131.758V132.758V133.758C1772.1 133.758 1791.67 108.023 1793.47 85.7288L1792.47 85.6484ZM1734.99 132.758V131.758C1717.73 131.758 1702.7 126.035 1692 115.181C1681.3 104.328 1674.82 88.2501 1674.82 67.3672H1673.82H1672.82C1672.82 88.6718 1679.44 105.29 1690.58 116.585C1701.71 127.879 1717.28 133.758 1734.99 133.758V132.758ZM1673.82 67.3672H1674.82C1674.82 46.4029 1681.47 30.3252 1692.26 19.4913C1703.05 8.65409 1718.08 2.97656 1734.99 2.97656V1.97656V0.976562C1717.63 0.976562 1702.07 6.81271 1690.84 18.0799C1679.62 29.3506 1672.82 45.9682 1672.82 67.3672H1673.82ZM1734.99 1.97656V2.97656C1750.63 2.97656 1764.06 7.36223 1773.9 15.5342C1783.74 23.6975 1790.09 35.7032 1791.48 51.1091L1792.47 51.0195L1793.47 50.93C1792.04 35.0468 1785.47 22.531 1775.18 13.9951C1764.9 5.46785 1751 0.976562 1734.99 0.976562V1.97656ZM1792.47 51.0195V50.0195H1758.55V51.0195V52.0195H1792.47V51.0195ZM1931.69 51.0195L1930.7 51.1074L1930.78 52.0195H1931.69V51.0195ZM1931.69 85.2969L1931.7 84.2969L1930.84 84.288L1930.7 85.1425L1931.69 85.2969ZM1965.62 85.6484L1966.61 85.7288L1966.7 84.6596L1965.63 84.6485L1965.62 85.6484ZM1965.62 51.0195V52.0195H1966.71L1966.61 50.93L1965.62 51.0195ZM1931.69 51.0195L1932.69 50.9316C1932.14 44.7479 1929.77 39.5316 1925.7 35.8632C1921.64 32.195 1915.98 30.1562 1909.02 30.1562V31.1562V32.1562C1915.59 32.1562 1920.74 34.0726 1924.36 37.3477C1927.99 40.6227 1930.19 45.3381 1930.7 51.1074L1931.69 51.0195ZM1909.02 31.1562V30.1562C1899.94 30.1562 1892.73 33.6665 1887.83 40.1551C1882.95 46.6063 1880.42 55.8999 1880.42 67.3672H1881.42H1882.42C1882.42 56.1587 1884.9 47.3468 1889.42 41.3615C1893.92 35.4136 1900.51 32.1562 1909.02 32.1562V31.1562ZM1881.42 67.3672H1880.42C1880.42 79.4422 1882.99 88.7451 1887.88 95.0502C1892.8 101.394 1899.97 104.578 1908.84 104.578V103.578V102.578C1900.49 102.578 1893.94 99.6096 1889.46 93.8248C1884.94 88.001 1882.42 79.1984 1882.42 67.3672H1881.42ZM1908.84 103.578V104.578C1915.44 104.578 1920.95 102.768 1925.05 99.432C1929.15 96.0926 1931.77 91.2882 1932.68 85.4512L1931.69 85.2969L1930.7 85.1425C1929.86 90.5556 1927.46 94.8918 1923.79 97.8805C1920.11 100.873 1915.07 102.578 1908.84 102.578V103.578ZM1931.69 85.2969L1931.68 86.2968L1965.61 86.6484L1965.62 85.6484L1965.63 84.6485L1931.7 84.2969L1931.69 85.2969ZM1965.62 85.6484L1964.62 85.5681C1962.9 106.867 1944.16 131.758 1908.14 131.758V132.758V133.758C1945.24 133.758 1964.82 108.023 1966.61 85.7288L1965.62 85.6484ZM1908.14 132.758V131.758C1890.87 131.758 1875.85 126.035 1865.15 115.181C1854.44 104.328 1847.96 88.2501 1847.96 67.3672H1846.96H1845.96C1845.96 88.6718 1852.58 105.29 1863.72 116.585C1874.86 127.879 1890.42 133.758 1908.14 133.758V132.758ZM1846.96 67.3672H1847.96C1847.96 46.4029 1854.61 30.3252 1865.41 19.4913C1876.2 8.65409 1891.22 2.97656 1908.14 2.97656V1.97656V0.976562C1890.77 0.976562 1875.21 6.81271 1863.99 18.0799C1852.76 29.3506 1845.96 45.9682 1845.96 67.3672H1846.96ZM1908.14 1.97656V2.97656C1923.77 2.97656 1937.2 7.36223 1947.05 15.5342C1956.89 23.6975 1963.24 35.7032 1964.62 51.1091L1965.62 51.0195L1966.61 50.93C1965.19 35.0468 1958.61 22.531 1948.33 13.9951C1938.05 5.46785 1924.14 0.976562 1908.14 0.976562V1.97656ZM1965.62 51.0195V50.0195H1931.69V51.0195V52.0195H1965.62V51.0195ZM1981.79 131H1980.79V132H1981.79V131ZM1981.79 3.73438V2.73438H1980.79V3.73438H1981.79ZM2015.19 3.73438H2016.19V2.73438H2015.19V3.73438ZM2015.19 53.832H2014.19V54.832H2015.19V53.832ZM2062.12 53.832V54.832H2063.12V53.832H2062.12ZM2062.12 3.73438V2.73438H2061.12V3.73438H2062.12ZM2095.7 3.73438H2096.7V2.73438H2095.7V3.73438ZM2095.7 131V132H2096.7V131H2095.7ZM2062.12 131H2061.12V132H2062.12V131ZM2062.12 80.9023H2063.12V79.9023H2062.12V80.9023ZM2015.19 80.9023V79.9023H2014.19V80.9023H2015.19ZM2015.19 131V132H2016.19V131H2015.19ZM1981.79 131H1982.79V3.73438H1981.79H1980.79V131H1981.79ZM1981.79 3.73438V4.73438H2015.19V3.73438V2.73438H1981.79V3.73438ZM2015.19 3.73438H2014.19V53.832H2015.19H2016.19V3.73438H2015.19ZM2015.19 53.832V54.832H2062.12V53.832V52.832H2015.19V53.832ZM2062.12 53.832H2063.12V3.73438H2062.12H2061.12V53.832H2062.12ZM2062.12 3.73438V4.73438H2095.7V3.73438V2.73438H2062.12V3.73438ZM2095.7 3.73438H2094.7V131H2095.7H2096.7V3.73438H2095.7ZM2095.7 131V130H2062.12V131V132H2095.7V131ZM2062.12 131H2063.12V80.9023H2062.12H2061.12V131H2062.12ZM2062.12 80.9023V79.9023H2015.19V80.9023V81.9023H2062.12V80.9023ZM2015.19 80.9023H2014.19V131H2015.19H2016.19V80.9023H2015.19ZM2015.19 131V130H1981.79V131V132H2015.19V131ZM2146.14 3.73438H2147.14V2.73438H2146.14V3.73438ZM2146.14 131V132H2147.14V131H2146.14ZM2112.75 131H2111.75V132H2112.75V131ZM2112.75 3.73438V2.73438H2111.75V3.73438H2112.75ZM2146.14 3.73438H2145.14V131H2146.14H2147.14V3.73438H2146.14ZM2146.14 131V130H2112.75V131V132H2146.14V131ZM2112.75 131H2113.75V3.73438H2112.75H2111.75V131H2112.75ZM2112.75 3.73438V4.73438H2146.14V3.73438V2.73438H2112.75V3.73438ZM2247.22 51.0195L2246.22 51.1074L2246.3 52.0195H2247.22V51.0195ZM2247.22 85.2969L2247.23 84.2969L2246.36 84.288L2246.23 85.1425L2247.22 85.2969ZM2281.14 85.6484L2282.14 85.7288L2282.23 84.6596L2281.15 84.6485L2281.14 85.6484ZM2281.14 51.0195V52.0195H2282.24L2282.14 50.93L2281.14 51.0195ZM2247.22 51.0195L2248.21 50.9316C2247.67 44.7479 2245.29 39.5316 2241.23 35.8632C2237.17 32.195 2231.51 30.1562 2224.54 30.1562V31.1562V32.1562C2231.11 32.1562 2236.26 34.0726 2239.89 37.3477C2243.52 40.6227 2245.71 45.3381 2246.22 51.1074L2247.22 51.0195ZM2224.54 31.1562V30.1562C2215.47 30.1562 2208.26 33.6665 2203.35 40.1551C2198.48 46.6063 2195.95 55.8999 2195.95 67.3672H2196.95H2197.95C2197.95 56.1587 2200.42 47.3468 2204.95 41.3615C2209.45 35.4136 2216.04 32.1562 2224.54 32.1562V31.1562ZM2196.95 67.3672H2195.95C2195.95 79.4422 2198.52 88.7451 2203.41 95.0502C2208.32 101.394 2215.49 104.578 2224.37 104.578V103.578V102.578C2216.02 102.578 2209.47 99.6096 2204.99 93.8248C2200.47 88.001 2197.95 79.1984 2197.95 67.3672H2196.95ZM2224.37 103.578V104.578C2230.97 104.578 2236.48 102.768 2240.58 99.432C2244.68 96.0926 2247.29 91.2882 2248.21 85.4512L2247.22 85.2969L2246.23 85.1425C2245.39 90.5556 2242.99 94.8918 2239.31 97.8805C2235.64 100.873 2230.6 102.578 2224.37 102.578V103.578ZM2247.22 85.2969L2247.21 86.2968L2281.13 86.6484L2281.14 85.6484L2281.15 84.6485L2247.23 84.2969L2247.22 85.2969ZM2281.14 85.6484L2280.15 85.5681C2278.43 106.867 2259.68 131.758 2223.66 131.758V132.758V133.758C2260.77 133.758 2280.34 108.023 2282.14 85.7288L2281.14 85.6484ZM2223.66 132.758V131.758C2206.4 131.758 2191.38 126.035 2180.67 115.181C2169.97 104.328 2163.49 88.2501 2163.49 67.3672H2162.49H2161.49C2161.49 88.6718 2168.11 105.29 2179.25 116.585C2190.39 127.879 2205.95 133.758 2223.66 133.758V132.758ZM2162.49 67.3672H2163.49C2163.49 46.4029 2170.14 30.3252 2180.93 19.4913C2191.73 8.65409 2206.75 2.97656 2223.66 2.97656V1.97656V0.976562C2206.3 0.976562 2190.74 6.81271 2179.52 18.0799C2168.29 29.3506 2161.49 45.9682 2161.49 67.3672H2162.49ZM2223.66 1.97656V2.97656C2239.3 2.97656 2252.73 7.36223 2262.58 15.5342C2272.42 23.6975 2278.76 35.7032 2280.15 51.1091L2281.14 51.0195L2282.14 50.93C2280.71 35.0468 2274.14 22.531 2263.85 13.9951C2253.58 5.46785 2239.67 0.976562 2223.66 0.976562V1.97656ZM2281.14 51.0195V50.0195H2247.22V51.0195V52.0195H2281.14V51.0195ZM2297.32 131H2296.32V132H2297.32V131ZM2297.32 3.73438V2.73438H2296.32V3.73438H2297.32ZM2330.71 3.73438H2331.71V2.73438H2330.71V3.73438ZM2330.71 55.7656H2329.71V56.7656H2330.71V55.7656ZM2332.47 55.7656V56.7656H2332.97L2333.27 56.3691L2332.47 55.7656ZM2371.85 3.73438V2.73438H2371.35L2371.05 3.13093L2371.85 3.73438ZM2411.05 3.73438L2411.84 4.34337L2413.08 2.73438H2411.05V3.73438ZM2367.45 60.5117L2366.66 59.9027L2366.24 60.4557L2366.61 61.0453L2367.45 60.5117ZM2411.93 131V132H2413.74L2412.77 130.466L2411.93 131ZM2371.85 131L2370.99 131.519L2371.28 132H2371.85V131ZM2342.49 82.6602L2343.35 82.1411L2342.59 80.9019L2341.7 82.0456L2342.49 82.6602ZM2330.71 97.7773L2329.93 97.1628L2329.71 97.4338V97.7773H2330.71ZM2330.71 131V132H2331.71V131H2330.71ZM2297.32 131H2298.32V3.73438H2297.32H2296.32V131H2297.32ZM2297.32 3.73438V4.73438H2330.71V3.73438V2.73438H2297.32V3.73438ZM2330.71 3.73438H2329.71V55.7656H2330.71H2331.71V3.73438H2330.71ZM2330.71 55.7656V56.7656H2332.47V55.7656V54.7656H2330.71V55.7656ZM2332.47 55.7656L2333.27 56.3691L2372.65 4.33782L2371.85 3.73438L2371.05 3.13093L2331.68 55.1622L2332.47 55.7656ZM2371.85 3.73438V4.73438H2411.05V3.73438V2.73438H2371.85V3.73438ZM2411.05 3.73438L2410.25 3.12538L2366.66 59.9027L2367.45 60.5117L2368.25 61.1207L2411.84 4.34337L2411.05 3.73438ZM2367.45 60.5117L2366.61 61.0453L2411.08 131.534L2411.93 131L2412.77 130.466L2368.3 59.9781L2367.45 60.5117ZM2411.93 131V130H2371.85V131V132H2411.93V131ZM2371.85 131L2372.7 130.481L2343.35 82.1411L2342.49 82.6602L2341.64 83.1792L2370.99 131.519L2371.85 131ZM2342.49 82.6602L2341.7 82.0456L2329.93 97.1628L2330.71 97.7773L2331.5 98.3919L2343.28 83.2747L2342.49 82.6602ZM2330.71 97.7773H2329.71V131H2330.71H2331.71V97.7773H2330.71ZM2330.71 131V130H2297.32V131V132H2330.71V131ZM2421.59 131H2420.59V132H2421.59V131ZM2421.59 3.73438V2.73438H2420.59V3.73438H2421.59ZM2512.47 3.73438H2513.47V2.73438H2512.47V3.73438ZM2512.47 30.8047V31.8047H2513.47V30.8047H2512.47ZM2454.99 30.8047V29.8047H2453.99V30.8047H2454.99ZM2454.99 53.832H2453.99V54.832H2454.99V53.832ZM2507.73 53.832H2508.73V52.832H2507.73V53.832ZM2507.73 80.9023V81.9023H2508.73V80.9023H2507.73ZM2454.99 80.9023V79.9023H2453.99V80.9023H2454.99ZM2454.99 103.93H2453.99V104.93H2454.99V103.93ZM2512.3 103.93H2513.3V102.93H2512.3V103.93ZM2512.3 131V132H2513.3V131H2512.3ZM2421.59 131H2422.59V3.73438H2421.59H2420.59V131H2421.59ZM2421.59 3.73438V4.73438H2512.47V3.73438V2.73438H2421.59V3.73438ZM2512.47 3.73438H2511.47V30.8047H2512.47H2513.47V3.73438H2512.47ZM2512.47 30.8047V29.8047H2454.99V30.8047V31.8047H2512.47V30.8047ZM2454.99 30.8047H2453.99V53.832H2454.99H2455.99V30.8047H2454.99ZM2454.99 53.832V54.832H2507.73V53.832V52.832H2454.99V53.832ZM2507.73 53.832H2506.73V80.9023H2507.73H2508.73V53.832H2507.73ZM2507.73 80.9023V79.9023H2454.99V80.9023V81.9023H2507.73V80.9023ZM2454.99 80.9023H2453.99V103.93H2454.99H2455.99V80.9023H2454.99ZM2454.99 103.93V104.93H2512.3V103.93V102.93H2454.99V103.93ZM2512.3 103.93H2511.3V131H2512.3H2513.3V103.93H2512.3ZM2512.3 131V130H2421.59V131V132H2512.3V131ZM2639.56 3.73438H2640.56V2.73438H2639.56V3.73438ZM2639.56 131V132H2640.56V131H2639.56ZM2611.61 131L2610.79 131.567L2611.09 132H2611.61V131ZM2564.33 62.2695L2565.15 61.7027L2564.85 61.2695H2564.33V62.2695ZM2563.45 62.2695V61.2695H2562.45V62.2695H2563.45ZM2563.45 131V132H2564.45V131H2563.45ZM2530.05 131H2529.05V132H2530.05V131ZM2530.05 3.73438V2.73438H2529.05V3.73438H2530.05ZM2558.53 3.73438L2559.35 3.17137L2559.06 2.73438H2558.53V3.73438ZM2605.11 72.1133L2604.28 72.6763L2604.58 73.1133H2605.11V72.1133ZM2606.16 72.1133V73.1133H2607.16V72.1133H2606.16ZM2606.16 3.73438V2.73438H2605.16V3.73438H2606.16ZM2639.56 3.73438H2638.56V131H2639.56H2640.56V3.73438H2639.56ZM2639.56 131V130H2611.61V131V132H2639.56V131ZM2611.61 131L2612.44 130.433L2565.15 61.7027L2564.33 62.2695L2563.5 62.8363L2610.79 131.567L2611.61 131ZM2564.33 62.2695V61.2695H2563.45V62.2695V63.2695H2564.33V62.2695ZM2563.45 62.2695H2562.45V131H2563.45H2564.45V62.2695H2563.45ZM2563.45 131V130H2530.05V131V132H2563.45V131ZM2530.05 131H2531.05V3.73438H2530.05H2529.05V131H2530.05ZM2530.05 3.73438V4.73438H2558.53V3.73438V2.73438H2530.05V3.73438ZM2558.53 3.73438L2557.7 4.29738L2604.28 72.6763L2605.11 72.1133L2605.94 71.5503L2559.35 3.17137L2558.53 3.73438ZM2605.11 72.1133V73.1133H2606.16V72.1133V71.1133H2605.11V72.1133ZM2606.16 72.1133H2607.16V3.73438H2606.16H2605.16V72.1133H2606.16ZM2606.16 3.73438V4.73438H2639.56V3.73438V2.73438H2606.16V3.73438ZM2852.79 131H2851.79V132H2852.79V131ZM2852.79 3.73438V2.73438H2851.79V3.73438H2852.79ZM2927.14 63.5L2926.94 62.5208L2926.14 62.6861V63.5H2927.14ZM2927.14 64.7305H2926.14V65.698L2927.11 65.7299L2927.14 64.7305ZM2886.18 76.332V75.332H2885.18V76.332H2886.18ZM2886.18 104.105H2885.18V105.105H2886.18V104.105ZM2886.18 30.1016V29.1016H2885.18V30.1016H2886.18ZM2886.18 55.4141H2885.18V56.4141H2886.18V55.4141ZM2852.79 131H2853.79V3.73438H2852.79H2851.79V131H2852.79ZM2852.79 3.73438V4.73438H2907.28V3.73438V2.73438H2852.79V3.73438ZM2907.28 3.73438V4.73438C2921.65 4.73438 2932.49 7.83007 2939.7 13.215C2946.88 18.5716 2950.57 26.2627 2950.57 35.7266H2951.57H2952.57C2952.57 25.6787 2948.62 17.3737 2940.9 11.6122C2933.22 5.87891 2921.9 2.73438 2907.28 2.73438V3.73438ZM2951.57 35.7266H2950.57C2950.57 49.2368 2940.97 59.612 2926.94 62.5208L2927.14 63.5L2927.34 64.4792C2942.14 61.4115 2952.57 50.3413 2952.57 35.7266H2951.57ZM2927.14 63.5H2926.14V64.7305H2927.14H2928.14V63.5H2927.14ZM2927.14 64.7305L2927.11 65.7299C2942.61 66.2409 2955.5 77.6162 2955.5 95.1406H2956.5H2957.5C2957.5 76.4541 2943.67 64.2747 2927.17 63.731L2927.14 64.7305ZM2956.5 95.1406H2955.5C2955.5 105.22 2951.41 113.9 2943.95 120.079C2936.48 126.269 2925.56 130 2911.85 130V131V132C2925.91 132 2937.32 128.172 2945.22 121.619C2953.15 115.053 2957.5 105.803 2957.5 95.1406H2956.5ZM2911.85 131V130H2852.79V131V132H2911.85V131ZM2903.23 104.105V105.105C2909.31 105.105 2914.04 103.948 2917.28 101.546C2920.56 99.1056 2922.16 95.4853 2922.16 90.9219H2921.16H2920.16C2920.16 94.9717 2918.78 97.9432 2916.09 99.9408C2913.34 101.978 2909.11 103.105 2903.23 103.105V104.105ZM2921.16 90.9219H2922.16C2922.16 86.0047 2920.39 82.0586 2917.12 79.3619C2913.88 76.6866 2909.27 75.332 2903.76 75.332V76.332V77.332C2908.97 77.332 2913.07 78.6142 2915.85 80.9047C2918.6 83.1738 2920.16 86.5226 2920.16 90.9219H2921.16ZM2903.76 76.332V75.332H2886.18V76.332V77.332H2903.76V76.332ZM2886.18 76.332H2885.18V104.105H2886.18H2887.18V76.332H2886.18ZM2886.18 104.105V105.105H2903.23V104.105V103.105H2886.18V104.105ZM2901.12 55.4141V56.4141C2905.93 56.4141 2910.17 55.2362 2913.22 52.9144C2916.31 50.5697 2918.12 47.1096 2918.12 42.7578H2917.12H2916.12C2916.12 46.492 2914.59 49.3599 2912.01 51.3219C2909.4 53.3067 2905.63 54.4141 2901.12 54.4141V55.4141ZM2917.12 42.7578H2918.12C2918.12 38.4262 2916.41 34.9663 2913.43 32.6129C2910.48 30.2815 2906.38 29.1016 2901.65 29.1016V30.1016V31.1016C2906.07 31.1016 2909.7 32.2068 2912.19 34.182C2914.67 36.1353 2916.12 39.0035 2916.12 42.7578H2917.12ZM2901.65 30.1016V29.1016H2886.18V30.1016V31.1016H2901.65V30.1016ZM2886.18 30.1016H2885.18V55.4141H2886.18H2887.18V30.1016H2886.18ZM2886.18 55.4141V56.4141H2901.12V55.4141V54.4141H2886.18V55.4141ZM2969.33 131H2968.33V132H2969.33V131ZM2969.33 3.73438V2.73438H2968.33V3.73438H2969.33ZM3002.73 3.73438H3003.73V2.73438H3002.73V3.73438ZM3002.73 53.832H3001.73V54.832H3002.73V53.832ZM3049.66 53.832V54.832H3050.66V53.832H3049.66ZM3049.66 3.73438V2.73438H3048.66V3.73438H3049.66ZM3083.23 3.73438H3084.23V2.73438H3083.23V3.73438ZM3083.23 131V132H3084.23V131H3083.23ZM3049.66 131H3048.66V132H3049.66V131ZM3049.66 80.9023H3050.66V79.9023H3049.66V80.9023ZM3002.73 80.9023V79.9023H3001.73V80.9023H3002.73ZM3002.73 131V132H3003.73V131H3002.73ZM2969.33 131H2970.33V3.73438H2969.33H2968.33V131H2969.33ZM2969.33 3.73438V4.73438H3002.73V3.73438V2.73438H2969.33V3.73438ZM3002.73 3.73438H3001.73V53.832H3002.73H3003.73V3.73438H3002.73ZM3002.73 53.832V54.832H3049.66V53.832V52.832H3002.73V53.832ZM3049.66 53.832H3050.66V3.73438H3049.66H3048.66V53.832H3049.66ZM3049.66 3.73438V4.73438H3083.23V3.73438V2.73438H3049.66V3.73438ZM3083.23 3.73438H3082.23V131H3083.23H3084.23V3.73438H3083.23ZM3083.23 131V130H3049.66V131V132H3083.23V131ZM3049.66 131H3050.66V80.9023H3049.66H3048.66V131H3049.66ZM3049.66 80.9023V79.9023H3002.73V80.9023V81.9023H3049.66V80.9023ZM3002.73 80.9023H3001.73V131H3002.73H3003.73V80.9023H3002.73ZM3002.73 131V130H2969.33V131V132H3002.73V131ZM3184.13 51.0195L3183.14 51.1074L3183.22 52.0195H3184.13V51.0195ZM3184.13 85.2969L3184.14 84.2969L3183.28 84.288L3183.14 85.1425L3184.13 85.2969ZM3218.06 85.6484L3219.06 85.7288L3219.14 84.6596L3218.07 84.6485L3218.06 85.6484ZM3218.06 51.0195V52.0195H3219.15L3219.05 50.93L3218.06 51.0195ZM3184.13 51.0195L3185.13 50.9316C3184.58 44.7479 3182.21 39.5316 3178.15 35.8632C3174.08 32.195 3168.42 30.1562 3161.46 30.1562V31.1562V32.1562C3168.03 32.1562 3173.18 34.0726 3176.8 37.3477C3180.43 40.6227 3182.63 45.3381 3183.14 51.1074L3184.13 51.0195ZM3161.46 31.1562V30.1562C3152.38 30.1562 3145.18 33.6665 3140.27 40.1551C3135.39 46.6063 3132.86 55.8999 3132.86 67.3672H3133.86H3134.86C3134.86 56.1587 3137.34 47.3468 3141.86 41.3615C3146.36 35.4136 3152.95 32.1562 3161.46 32.1562V31.1562ZM3133.86 67.3672H3132.86C3132.86 79.4422 3135.43 88.7451 3140.32 95.0502C3145.24 101.394 3152.41 104.578 3161.28 104.578V103.578V102.578C3152.93 102.578 3146.39 99.6096 3141.9 93.8248C3137.39 88.001 3134.86 79.1984 3134.86 67.3672H3133.86ZM3161.28 103.578V104.578C3167.88 104.578 3173.39 102.768 3177.49 99.432C3181.6 96.0926 3184.21 91.2882 3185.12 85.4512L3184.13 85.2969L3183.14 85.1425C3182.3 90.5556 3179.9 94.8918 3176.23 97.8805C3172.55 100.873 3167.51 102.578 3161.28 102.578V103.578ZM3184.13 85.2969L3184.12 86.2968L3218.05 86.6484L3218.06 85.6484L3218.07 84.6485L3184.14 84.2969L3184.13 85.2969ZM3218.06 85.6484L3217.06 85.5681C3215.34 106.867 3196.6 131.758 3160.58 131.758V132.758V133.758C3197.68 133.758 3217.26 108.023 3219.06 85.7288L3218.06 85.6484ZM3160.58 132.758V131.758C3143.31 131.758 3128.29 126.035 3117.59 115.181C3106.88 104.328 3100.41 88.2501 3100.41 67.3672H3099.41H3098.41C3098.41 88.6718 3105.02 105.29 3116.16 116.585C3127.3 127.879 3142.86 133.758 3160.58 133.758V132.758ZM3099.41 67.3672H3100.41C3100.41 46.4029 3107.06 30.3252 3117.85 19.4913C3128.64 8.65409 3143.67 2.97656 3160.58 2.97656V1.97656V0.976562C3143.21 0.976562 3127.65 6.81271 3116.43 18.0799C3105.2 29.3506 3098.41 45.9682 3098.41 67.3672H3099.41ZM3160.58 1.97656V2.97656C3176.21 2.97656 3189.64 7.36223 3199.49 15.5342C3209.33 23.6975 3215.68 35.7032 3217.06 51.1091L3218.06 51.0195L3219.05 50.93C3217.63 35.0468 3211.06 22.531 3200.77 13.9951C3190.49 5.46785 3176.58 0.976562 3160.58 0.976562V1.97656ZM3218.06 51.0195V50.0195H3184.13V51.0195V52.0195H3218.06V51.0195ZM3357.28 51.0195L3356.28 51.1074L3356.36 52.0195H3357.28V51.0195ZM3357.28 85.2969L3357.29 84.2969L3356.42 84.288L3356.29 85.1425L3357.28 85.2969ZM3391.2 85.6484L3392.2 85.7288L3392.29 84.6596L3391.21 84.6485L3391.2 85.6484ZM3391.2 51.0195V52.0195H3392.3L3392.2 50.93L3391.2 51.0195ZM3357.28 51.0195L3358.27 50.9316C3357.73 44.7479 3355.35 39.5316 3351.29 35.8632C3347.23 32.195 3341.57 30.1562 3334.6 30.1562V31.1562V32.1562C3341.17 32.1562 3346.32 34.0726 3349.95 37.3477C3353.58 40.6227 3355.77 45.3381 3356.28 51.1074L3357.28 51.0195ZM3334.6 31.1562V30.1562C3325.53 30.1562 3318.32 33.6665 3313.41 40.1551C3308.54 46.6063 3306 55.8999 3306 67.3672H3307H3308C3308 56.1587 3310.48 47.3468 3315.01 41.3615C3319.51 35.4136 3326.1 32.1562 3334.6 32.1562V31.1562ZM3307 67.3672H3306C3306 79.4422 3308.58 88.7451 3313.46 95.0502C3318.38 101.394 3325.55 104.578 3334.43 104.578V103.578V102.578C3326.07 102.578 3319.53 99.6096 3315.05 93.8248C3310.53 88.001 3308 79.1984 3308 67.3672H3307ZM3334.43 103.578V104.578C3341.03 104.578 3346.53 102.768 3350.64 99.432C3354.74 96.0926 3357.35 91.2882 3358.27 85.4512L3357.28 85.2969L3356.29 85.1425C3355.44 90.5556 3353.05 94.8918 3349.37 97.8805C3345.7 100.873 3340.66 102.578 3334.43 102.578V103.578ZM3357.28 85.2969L3357.27 86.2968L3391.19 86.6484L3391.2 85.6484L3391.21 84.6485L3357.29 84.2969L3357.28 85.2969ZM3391.2 85.6484L3390.21 85.5681C3388.49 106.867 3369.74 131.758 3333.72 131.758V132.758V133.758C3370.83 133.758 3390.4 108.023 3392.2 85.7288L3391.2 85.6484ZM3333.72 132.758V131.758C3316.46 131.758 3301.43 126.035 3290.73 115.181C3280.03 104.328 3273.55 88.2501 3273.55 67.3672H3272.55H3271.55C3271.55 88.6718 3278.17 105.29 3289.31 116.585C3300.44 127.879 3316.01 133.758 3333.72 133.758V132.758ZM3272.55 67.3672H3273.55C3273.55 46.4029 3280.2 30.3252 3290.99 19.4913C3301.79 8.65409 3316.81 2.97656 3333.72 2.97656V1.97656V0.976562C3316.36 0.976562 3300.8 6.81271 3289.57 18.0799C3278.35 29.3506 3271.55 45.9682 3271.55 67.3672H3272.55ZM3333.72 1.97656V2.97656C3349.36 2.97656 3362.79 7.36223 3372.64 15.5342C3382.47 23.6975 3388.82 35.7032 3390.21 51.1091L3391.2 51.0195L3392.2 50.93C3390.77 35.0468 3384.2 22.531 3373.91 13.9951C3363.63 5.46785 3349.73 0.976562 3333.72 0.976562V1.97656ZM3391.2 51.0195V50.0195H3357.28V51.0195V52.0195H3391.2V51.0195ZM3407.38 131H3406.38V132H3407.38V131ZM3407.38 3.73438V2.73438H3406.38V3.73438H3407.38ZM3440.77 3.73438H3441.77V2.73438H3440.77V3.73438ZM3440.77 53.832H3439.77V54.832H3440.77V53.832ZM3487.71 53.832V54.832H3488.71V53.832H3487.71ZM3487.71 3.73438V2.73438H3486.71V3.73438H3487.71ZM3521.28 3.73438H3522.28V2.73438H3521.28V3.73438ZM3521.28 131V132H3522.28V131H3521.28ZM3487.71 131H3486.71V132H3487.71V131ZM3487.71 80.9023H3488.71V79.9023H3487.71V80.9023ZM3440.77 80.9023V79.9023H3439.77V80.9023H3440.77ZM3440.77 131V132H3441.77V131H3440.77ZM3407.38 131H3408.38V3.73438H3407.38H3406.38V131H3407.38ZM3407.38 3.73438V4.73438H3440.77V3.73438V2.73438H3407.38V3.73438ZM3440.77 3.73438H3439.77V53.832H3440.77H3441.77V3.73438H3440.77ZM3440.77 53.832V54.832H3487.71V53.832V52.832H3440.77V53.832ZM3487.71 53.832H3488.71V3.73438H3487.71H3486.71V53.832H3487.71ZM3487.71 3.73438V4.73438H3521.28V3.73438V2.73438H3487.71V3.73438ZM3521.28 3.73438H3520.28V131H3521.28H3522.28V3.73438H3521.28ZM3521.28 131V130H3487.71V131V132H3521.28V131ZM3487.71 131H3488.71V80.9023H3487.71H3486.71V131H3487.71ZM3487.71 80.9023V79.9023H3440.77V80.9023V81.9023H3487.71V80.9023ZM3440.77 80.9023H3439.77V131H3440.77H3441.77V80.9023H3440.77ZM3440.77 131V130H3407.38V131V132H3440.77V131ZM3571.73 3.73438H3572.73V2.73438H3571.73V3.73438ZM3571.73 131V132H3572.73V131H3571.73ZM3538.33 131H3537.33V132H3538.33V131ZM3538.33 3.73438V2.73438H3537.33V3.73438H3538.33ZM3571.73 3.73438H3570.73V131H3571.73H3572.73V3.73438H3571.73ZM3571.73 131V130H3538.33V131V132H3571.73V131ZM3538.33 131H3539.33V3.73438H3538.33H3537.33V131H3538.33ZM3538.33 3.73438V4.73438H3571.73V3.73438V2.73438H3538.33V3.73438ZM3672.8 51.0195L3671.81 51.1074L3671.89 52.0195H3672.8V51.0195ZM3672.8 85.2969L3672.81 84.2969L3671.95 84.288L3671.82 85.1425L3672.8 85.2969ZM3706.73 85.6484L3707.73 85.7288L3707.81 84.6596L3706.74 84.6485L3706.73 85.6484ZM3706.73 51.0195V52.0195H3707.82L3707.73 50.93L3706.73 51.0195ZM3672.8 51.0195L3673.8 50.9316C3673.26 44.7479 3670.88 39.5316 3666.82 35.8632C3662.75 32.195 3657.09 30.1562 3650.13 30.1562V31.1562V32.1562C3656.7 32.1562 3661.85 34.0726 3665.48 37.3477C3669.1 40.6227 3671.3 45.3381 3671.81 51.1074L3672.8 51.0195ZM3650.13 31.1562V30.1562C3641.05 30.1562 3633.85 33.6665 3628.94 40.1551C3624.06 46.6063 3621.53 55.8999 3621.53 67.3672H3622.53H3623.53C3623.53 56.1587 3626.01 47.3468 3630.54 41.3615C3635.03 35.4136 3641.63 32.1562 3650.13 32.1562V31.1562ZM3622.53 67.3672H3621.53C3621.53 79.4422 3624.1 88.7451 3628.99 95.0502C3633.91 101.394 3641.08 104.578 3649.95 104.578V103.578V102.578C3641.6 102.578 3635.06 99.6096 3630.57 93.8248C3626.06 88.001 3623.53 79.1984 3623.53 67.3672H3622.53ZM3649.95 103.578V104.578C3656.55 104.578 3662.06 102.768 3666.16 99.432C3670.27 96.0926 3672.88 91.2882 3673.79 85.4512L3672.8 85.2969L3671.82 85.1425C3670.97 90.5556 3668.57 94.8918 3664.9 97.8805C3661.22 100.873 3656.19 102.578 3649.95 102.578V103.578ZM3672.8 85.2969L3672.79 86.2968L3706.72 86.6484L3706.73 85.6484L3706.74 84.6485L3672.81 84.2969L3672.8 85.2969ZM3706.73 85.6484L3705.73 85.5681C3704.02 106.867 3685.27 131.758 3649.25 131.758V132.758V133.758C3686.36 133.758 3705.93 108.023 3707.73 85.7288L3706.73 85.6484ZM3649.25 132.758V131.758C3631.98 131.758 3616.96 126.035 3606.26 115.181C3595.56 104.328 3589.08 88.2501 3589.08 67.3672H3588.08H3587.08C3587.08 88.6718 3593.7 105.29 3604.83 116.585C3615.97 127.879 3631.54 133.758 3649.25 133.758V132.758ZM3588.08 67.3672H3589.08C3589.08 46.4029 3595.73 30.3252 3606.52 19.4913C3617.31 8.65409 3632.34 2.97656 3649.25 2.97656V1.97656V0.976562C3631.89 0.976562 3616.32 6.81271 3605.1 18.0799C3593.88 29.3506 3587.08 45.9682 3587.08 67.3672H3588.08ZM3649.25 1.97656V2.97656C3664.89 2.97656 3678.31 7.36223 3688.16 15.5342C3698 23.6975 3704.35 35.7032 3705.73 51.1091L3706.73 51.0195L3707.73 50.93C3706.3 35.0468 3699.73 22.531 3689.44 13.9951C3679.16 5.46785 3665.25 0.976562 3649.25 0.976562V1.97656ZM3706.73 51.0195V50.0195H3672.8V51.0195V52.0195H3706.73V51.0195ZM3722.9 131H3721.9V132H3722.9V131ZM3722.9 3.73438V2.73438H3721.9V3.73438H3722.9ZM3756.3 3.73438H3757.3V2.73438H3756.3V3.73438ZM3756.3 55.7656H3755.3V56.7656H3756.3V55.7656ZM3758.06 55.7656V56.7656H3758.56L3758.86 56.3691L3758.06 55.7656ZM3797.43 3.73438V2.73438H3796.94L3796.64 3.13093L3797.43 3.73438ZM3836.63 3.73438L3837.43 4.34337L3838.66 2.73438H3836.63V3.73438ZM3793.04 60.5117L3792.25 59.9027L3791.82 60.4557L3792.19 61.0453L3793.04 60.5117ZM3837.51 131V132H3839.32L3838.36 130.466L3837.51 131ZM3797.43 131L3796.58 131.519L3796.87 132H3797.43V131ZM3768.08 82.6602L3768.93 82.1411L3768.18 80.9019L3767.29 82.0456L3768.08 82.6602ZM3756.3 97.7773L3755.51 97.1628L3755.3 97.4338V97.7773H3756.3ZM3756.3 131V132H3757.3V131H3756.3ZM3722.9 131H3723.9V3.73438H3722.9H3721.9V131H3722.9ZM3722.9 3.73438V4.73438H3756.3V3.73438V2.73438H3722.9V3.73438ZM3756.3 3.73438H3755.3V55.7656H3756.3H3757.3V3.73438H3756.3ZM3756.3 55.7656V56.7656H3758.06V55.7656V54.7656H3756.3V55.7656ZM3758.06 55.7656L3758.86 56.3691L3798.23 4.33782L3797.43 3.73438L3796.64 3.13093L3757.26 55.1622L3758.06 55.7656ZM3797.43 3.73438V4.73438H3836.63V3.73438V2.73438H3797.43V3.73438ZM3836.63 3.73438L3835.84 3.12538L3792.25 59.9027L3793.04 60.5117L3793.83 61.1207L3837.43 4.34337L3836.63 3.73438ZM3793.04 60.5117L3792.19 61.0453L3836.67 131.534L3837.51 131L3838.36 130.466L3793.88 59.9781L3793.04 60.5117ZM3837.51 131V130H3797.43V131V132H3837.51V131ZM3797.43 131L3798.29 130.481L3768.93 82.1411L3768.08 82.6602L3767.22 83.1792L3796.58 131.519L3797.43 131ZM3768.08 82.6602L3767.29 82.0456L3755.51 97.1628L3756.3 97.7773L3757.09 98.3919L3768.87 83.2747L3768.08 82.6602ZM3756.3 97.7773H3755.3V131H3756.3H3757.3V97.7773H3756.3ZM3756.3 131V130H3722.9V131V132H3756.3V131ZM3847.18 131H3846.18V132H3847.18V131ZM3847.18 3.73438V2.73438H3846.18V3.73438H3847.18ZM3938.06 3.73438H3939.06V2.73438H3938.06V3.73438ZM3938.06 30.8047V31.8047H3939.06V30.8047H3938.06ZM3880.58 30.8047V29.8047H3879.58V30.8047H3880.58ZM3880.58 53.832H3879.58V54.832H3880.58V53.832ZM3933.31 53.832H3934.31V52.832H3933.31V53.832ZM3933.31 80.9023V81.9023H3934.31V80.9023H3933.31ZM3880.58 80.9023V79.9023H3879.58V80.9023H3880.58ZM3880.58 103.93H3879.58V104.93H3880.58V103.93ZM3937.88 103.93H3938.88V102.93H3937.88V103.93ZM3937.88 131V132H3938.88V131H3937.88ZM3847.18 131H3848.18V3.73438H3847.18H3846.18V131H3847.18ZM3847.18 3.73438V4.73438H3938.06V3.73438V2.73438H3847.18V3.73438ZM3938.06 3.73438H3937.06V30.8047H3938.06H3939.06V3.73438H3938.06ZM3938.06 30.8047V29.8047H3880.58V30.8047V31.8047H3938.06V30.8047ZM3880.58 30.8047H3879.58V53.832H3880.58H3881.58V30.8047H3880.58ZM3880.58 53.832V54.832H3933.31V53.832V52.832H3880.58V53.832ZM3933.31 53.832H3932.31V80.9023H3933.31H3934.31V53.832H3933.31ZM3933.31 80.9023V79.9023H3880.58V80.9023V81.9023H3933.31V80.9023ZM3880.58 80.9023H3879.58V103.93H3880.58H3881.58V80.9023H3880.58ZM3880.58 103.93V104.93H3937.88V103.93V102.93H3880.58V103.93ZM3937.88 103.93H3936.88V131H3937.88H3938.88V103.93H3937.88ZM3937.88 131V130H3847.18V131V132H3937.88V131ZM4065.15 3.73438H4066.15V2.73438H4065.15V3.73438ZM4065.15 131V132H4066.15V131H4065.15ZM4037.2 131L4036.38 131.567L4036.67 132H4037.2V131ZM3989.91 62.2695L3990.74 61.7027L3990.44 61.2695H3989.91V62.2695ZM3989.04 62.2695V61.2695H3988.04V62.2695H3989.04ZM3989.04 131V132H3990.04V131H3989.04ZM3955.64 131H3954.64V132H3955.64V131ZM3955.64 3.73438V2.73438H3954.64V3.73438H3955.64ZM3984.11 3.73438L3984.94 3.17137L3984.64 2.73438H3984.11V3.73438ZM4030.7 72.1133L4029.87 72.6763L4030.17 73.1133H4030.7V72.1133ZM4031.75 72.1133V73.1133H4032.75V72.1133H4031.75ZM4031.75 3.73438V2.73438H4030.75V3.73438H4031.75ZM4065.15 3.73438H4064.15V131H4065.15H4066.15V3.73438H4065.15ZM4065.15 131V130H4037.2V131V132H4065.15V131ZM4037.2 131L4038.02 130.433L3990.74 61.7027L3989.91 62.2695L3989.09 62.8363L4036.38 131.567L4037.2 131ZM3989.91 62.2695V61.2695H3989.04V62.2695V63.2695H3989.91V62.2695ZM3989.04 62.2695H3988.04V131H3989.04H3990.04V62.2695H3989.04ZM3989.04 131V130H3955.64V131V132H3989.04V131ZM3955.64 131H3956.64V3.73438H3955.64H3954.64V131H3955.64ZM3955.64 3.73438V4.73438H3984.11V3.73438V2.73438H3955.64V3.73438ZM3984.11 3.73438L3983.29 4.29738L4029.87 72.6763L4030.7 72.1133L4031.52 71.5503L3984.94 3.17137L3984.11 3.73438ZM4030.7 72.1133V73.1133H4031.75V72.1133V71.1133H4030.7V72.1133ZM4031.75 72.1133H4032.75V3.73438H4031.75H4030.75V72.1133H4031.75ZM4031.75 3.73438V4.73438H4065.15V3.73438V2.73438H4031.75V3.73438ZM4278.37 131H4277.37V132H4278.37V131ZM4278.37 3.73438V2.73438H4277.37V3.73438H4278.37ZM4352.73 63.5L4352.52 62.5208L4351.73 62.6861V63.5H4352.73ZM4352.73 64.7305H4351.73V65.698L4352.69 65.7299L4352.73 64.7305ZM4311.77 76.332V75.332H4310.77V76.332H4311.77ZM4311.77 104.105H4310.77V105.105H4311.77V104.105ZM4311.77 30.1016V29.1016H4310.77V30.1016H4311.77ZM4311.77 55.4141H4310.77V56.4141H4311.77V55.4141ZM4278.37 131H4279.37V3.73438H4278.37H4277.37V131H4278.37ZM4278.37 3.73438V4.73438H4332.86V3.73438V2.73438H4278.37V3.73438ZM4332.86 3.73438V4.73438C4347.24 4.73438 4358.07 7.83007 4365.29 13.215C4372.47 18.5716 4376.16 26.2627 4376.16 35.7266H4377.16H4378.16C4378.16 25.6787 4374.21 17.3737 4366.49 11.6122C4358.8 5.87891 4347.49 2.73438 4332.86 2.73438V3.73438ZM4377.16 35.7266H4376.16C4376.16 49.2368 4366.55 59.612 4352.52 62.5208L4352.73 63.5L4352.93 64.4792C4367.73 61.4115 4378.16 50.3413 4378.16 35.7266H4377.16ZM4352.73 63.5H4351.73V64.7305H4352.73H4353.73V63.5H4352.73ZM4352.73 64.7305L4352.69 65.7299C4368.19 66.2409 4381.08 77.6162 4381.08 95.1406H4382.08H4383.08C4383.08 76.4541 4369.25 64.2747 4352.76 63.731L4352.73 64.7305ZM4382.08 95.1406H4381.08C4381.08 105.22 4376.99 113.9 4369.53 120.079C4362.06 126.269 4351.15 130 4337.43 130V131V132C4351.5 132 4362.9 128.172 4370.81 121.619C4378.74 115.053 4383.08 105.803 4383.08 95.1406H4382.08ZM4337.43 131V130H4278.37V131V132H4337.43V131ZM4328.82 104.105V105.105C4334.9 105.105 4339.63 103.948 4342.86 101.546C4346.15 99.1056 4347.75 95.4853 4347.75 90.9219H4346.75H4345.75C4345.75 94.9717 4344.36 97.9432 4341.67 99.9408C4338.93 101.978 4334.7 103.105 4328.82 103.105V104.105ZM4346.75 90.9219H4347.75C4347.75 86.0047 4345.98 82.0586 4342.71 79.3619C4339.46 76.6866 4334.86 75.332 4329.35 75.332V76.332V77.332C4334.56 77.332 4338.66 78.6142 4341.43 80.9047C4344.18 83.1738 4345.75 86.5226 4345.75 90.9219H4346.75ZM4329.35 76.332V75.332H4311.77V76.332V77.332H4329.35V76.332ZM4311.77 76.332H4310.77V104.105H4311.77H4312.77V76.332H4311.77ZM4311.77 104.105V105.105H4328.82V104.105V103.105H4311.77V104.105ZM4326.71 55.4141V56.4141C4331.52 56.4141 4335.75 55.2362 4338.81 52.9144C4341.89 50.5697 4343.71 47.1096 4343.71 42.7578H4342.71H4341.71C4341.71 46.492 4340.18 49.3599 4337.6 51.3219C4334.98 53.3067 4331.22 54.4141 4326.71 54.4141V55.4141ZM4342.71 42.7578H4343.71C4343.71 38.4262 4342 34.9663 4339.02 32.6129C4336.07 30.2815 4331.96 29.1016 4327.24 29.1016V30.1016V31.1016C4331.65 31.1016 4335.28 32.2068 4337.78 34.182C4340.25 36.1353 4341.71 39.0035 4341.71 42.7578H4342.71ZM4327.24 30.1016V29.1016H4311.77V30.1016V31.1016H4327.24V30.1016ZM4311.77 30.1016H4310.77V55.4141H4311.77H4312.77V30.1016H4311.77ZM4311.77 55.4141V56.4141H4326.71V55.4141V54.4141H4311.77V55.4141ZM4394.91 131H4393.91V132H4394.91V131ZM4394.91 3.73438V2.73438H4393.91V3.73438H4394.91ZM4428.31 3.73438H4429.31V2.73438H4428.31V3.73438ZM4428.31 53.832H4427.31V54.832H4428.31V53.832ZM4475.25 53.832V54.832H4476.25V53.832H4475.25ZM4475.25 3.73438V2.73438H4474.25V3.73438H4475.25ZM4508.82 3.73438H4509.82V2.73438H4508.82V3.73438ZM4508.82 131V132H4509.82V131H4508.82ZM4475.25 131H4474.25V132H4475.25V131ZM4475.25 80.9023H4476.25V79.9023H4475.25V80.9023ZM4428.31 80.9023V79.9023H4427.31V80.9023H4428.31ZM4428.31 131V132H4429.31V131H4428.31ZM4394.91 131H4395.91V3.73438H4394.91H4393.91V131H4394.91ZM4394.91 3.73438V4.73438H4428.31V3.73438V2.73438H4394.91V3.73438ZM4428.31 3.73438H4427.31V53.832H4428.31H4429.31V3.73438H4428.31ZM4428.31 53.832V54.832H4475.25V53.832V52.832H4428.31V53.832ZM4475.25 53.832H4476.25V3.73438H4475.25H4474.25V53.832H4475.25ZM4475.25 3.73438V4.73438H4508.82V3.73438V2.73438H4475.25V3.73438ZM4508.82 3.73438H4507.82V131H4508.82H4509.82V3.73438H4508.82ZM4508.82 131V130H4475.25V131V132H4508.82V131ZM4475.25 131H4476.25V80.9023H4475.25H4474.25V131H4475.25ZM4475.25 80.9023V79.9023H4428.31V80.9023V81.9023H4475.25V80.9023ZM4428.31 80.9023H4427.31V131H4428.31H4429.31V80.9023H4428.31ZM4428.31 131V130H4394.91V131V132H4428.31V131ZM4609.72 51.0195L4608.72 51.1074L4608.8 52.0195H4609.72V51.0195ZM4609.72 85.2969L4609.73 84.2969L4608.86 84.288L4608.73 85.1425L4609.72 85.2969ZM4643.64 85.6484L4644.64 85.7288L4644.73 84.6596L4643.65 84.6485L4643.64 85.6484ZM4643.64 51.0195V52.0195H4644.74L4644.64 50.93L4643.64 51.0195ZM4609.72 51.0195L4610.71 50.9316C4610.17 44.7479 4607.79 39.5316 4603.73 35.8632C4599.67 32.195 4594.01 30.1562 4587.04 30.1562V31.1562V32.1562C4593.61 32.1562 4598.76 34.0726 4602.39 37.3477C4606.02 40.6227 4608.21 45.3381 4608.72 51.1074L4609.72 51.0195ZM4587.04 31.1562V30.1562C4577.97 30.1562 4570.76 33.6665 4565.85 40.1551C4560.98 46.6063 4558.45 55.8999 4558.45 67.3672H4559.45H4560.45C4560.45 56.1587 4562.92 47.3468 4567.45 41.3615C4571.95 35.4136 4578.54 32.1562 4587.04 32.1562V31.1562ZM4559.45 67.3672H4558.45C4558.45 79.4422 4561.02 88.7451 4565.91 95.0502C4570.83 101.394 4577.99 104.578 4586.87 104.578V103.578V102.578C4578.52 102.578 4571.97 99.6096 4567.49 93.8248C4562.97 88.001 4560.45 79.1984 4560.45 67.3672H4559.45ZM4586.87 103.578V104.578C4593.47 104.578 4598.98 102.768 4603.08 99.432C4607.18 96.0926 4609.79 91.2882 4610.71 85.4512L4609.72 85.2969L4608.73 85.1425C4607.88 90.5556 4605.49 94.8918 4601.81 97.8805C4598.14 100.873 4593.1 102.578 4586.87 102.578V103.578ZM4609.72 85.2969L4609.71 86.2968L4643.63 86.6484L4643.64 85.6484L4643.65 84.6485L4609.73 84.2969L4609.72 85.2969ZM4643.64 85.6484L4642.65 85.5681C4640.93 106.867 4622.18 131.758 4586.16 131.758V132.758V133.758C4623.27 133.758 4642.84 108.023 4644.64 85.7288L4643.64 85.6484ZM4586.16 132.758V131.758C4568.9 131.758 4553.88 126.035 4543.17 115.181C4532.47 104.328 4525.99 88.2501 4525.99 67.3672H4524.99H4523.99C4523.99 88.6718 4530.61 105.29 4541.75 116.585C4552.89 127.879 4568.45 133.758 4586.16 133.758V132.758ZM4524.99 67.3672H4525.99C4525.99 46.4029 4532.64 30.3252 4543.43 19.4913C4554.23 8.65409 4569.25 2.97656 4586.16 2.97656V1.97656V0.976562C4568.8 0.976562 4553.24 6.81271 4542.02 18.0799C4530.79 29.3506 4523.99 45.9682 4523.99 67.3672H4524.99ZM4586.16 1.97656V2.97656C4601.8 2.97656 4615.23 7.36223 4625.08 15.5342C4634.92 23.6975 4641.26 35.7032 4642.65 51.1091L4643.64 51.0195L4644.64 50.93C4643.21 35.0468 4636.64 22.531 4626.35 13.9951C4616.08 5.46785 4602.17 0.976562 4586.16 0.976562V1.97656ZM4643.64 51.0195V50.0195H4609.72V51.0195V52.0195H4643.64V51.0195ZM4782.86 51.0195L4781.87 51.1074L4781.95 52.0195H4782.86V51.0195ZM4782.86 85.2969L4782.87 84.2969L4782.01 84.288L4781.88 85.1425L4782.86 85.2969ZM4816.79 85.6484L4817.79 85.7288L4817.87 84.6596L4816.8 84.6485L4816.79 85.6484ZM4816.79 51.0195V52.0195H4817.88L4817.79 50.93L4816.79 51.0195ZM4782.86 51.0195L4783.86 50.9316C4783.31 44.7479 4780.94 39.5316 4776.88 35.8632C4772.81 32.195 4767.15 30.1562 4760.19 30.1562V31.1562V32.1562C4766.76 32.1562 4771.91 34.0726 4775.54 37.3477C4779.16 40.6227 4781.36 45.3381 4781.87 51.1074L4782.86 51.0195ZM4760.19 31.1562V30.1562C4751.11 30.1562 4743.91 33.6665 4739 40.1551C4734.12 46.6063 4731.59 55.8999 4731.59 67.3672H4732.59H4733.59C4733.59 56.1587 4736.07 47.3468 4740.59 41.3615C4745.09 35.4136 4751.69 32.1562 4760.19 32.1562V31.1562ZM4732.59 67.3672H4731.59C4731.59 79.4422 4734.16 88.7451 4739.05 95.0502C4743.97 101.394 4751.14 104.578 4760.01 104.578V103.578V102.578C4751.66 102.578 4745.12 99.6096 4740.63 93.8248C4736.12 88.001 4733.59 79.1984 4733.59 67.3672H4732.59ZM4760.01 103.578V104.578C4766.61 104.578 4772.12 102.768 4776.22 99.432C4780.33 96.0926 4782.94 91.2882 4783.85 85.4512L4782.86 85.2969L4781.88 85.1425C4781.03 90.5556 4778.63 94.8918 4774.96 97.8805C4771.28 100.873 4766.24 102.578 4760.01 102.578V103.578ZM4782.86 85.2969L4782.85 86.2968L4816.78 86.6484L4816.79 85.6484L4816.8 84.6485L4782.87 84.2969L4782.86 85.2969ZM4816.79 85.6484L4815.79 85.5681C4814.07 106.867 4795.33 131.758 4759.31 131.758V132.758V133.758C4796.41 133.758 4815.99 108.023 4817.79 85.7288L4816.79 85.6484ZM4759.31 132.758V131.758C4742.04 131.758 4727.02 126.035 4716.32 115.181C4705.61 104.328 4699.14 88.2501 4699.14 67.3672H4698.14H4697.14C4697.14 88.6718 4703.75 105.29 4714.89 116.585C4726.03 127.879 4741.59 133.758 4759.31 133.758V132.758ZM4698.14 67.3672H4699.14C4699.14 46.4029 4705.79 30.3252 4716.58 19.4913C4727.37 8.65409 4742.4 2.97656 4759.31 2.97656V1.97656V0.976562C4741.94 0.976562 4726.38 6.81271 4715.16 18.0799C4703.93 29.3506 4697.14 45.9682 4697.14 67.3672H4698.14ZM4759.31 1.97656V2.97656C4774.94 2.97656 4788.37 7.36223 4798.22 15.5342C4808.06 23.6975 4814.41 35.7032 4815.79 51.1091L4816.79 51.0195L4817.79 50.93C4816.36 35.0468 4809.79 22.531 4799.5 13.9951C4789.22 5.46785 4775.31 0.976562 4759.31 0.976562V1.97656ZM4816.79 51.0195V50.0195H4782.86V51.0195V52.0195H4816.79V51.0195ZM4832.96 131H4831.96V132H4832.96V131ZM4832.96 3.73438V2.73438H4831.96V3.73438H4832.96ZM4866.36 3.73438H4867.36V2.73438H4866.36V3.73438ZM4866.36 53.832H4865.36V54.832H4866.36V53.832ZM4913.29 53.832V54.832H4914.29V53.832H4913.29ZM4913.29 3.73438V2.73438H4912.29V3.73438H4913.29ZM4946.87 3.73438H4947.87V2.73438H4946.87V3.73438ZM4946.87 131V132H4947.87V131H4946.87ZM4913.29 131H4912.29V132H4913.29V131ZM4913.29 80.9023H4914.29V79.9023H4913.29V80.9023ZM4866.36 80.9023V79.9023H4865.36V80.9023H4866.36ZM4866.36 131V132H4867.36V131H4866.36ZM4832.96 131H4833.96V3.73438H4832.96H4831.96V131H4832.96ZM4832.96 3.73438V4.73438H4866.36V3.73438V2.73438H4832.96V3.73438ZM4866.36 3.73438H4865.36V53.832H4866.36H4867.36V3.73438H4866.36ZM4866.36 53.832V54.832H4913.29V53.832V52.832H4866.36V53.832ZM4913.29 53.832H4914.29V3.73438H4913.29H4912.29V53.832H4913.29ZM4913.29 3.73438V4.73438H4946.87V3.73438V2.73438H4913.29V3.73438ZM4946.87 3.73438H4945.87V131H4946.87H4947.87V3.73438H4946.87ZM4946.87 131V130H4913.29V131V132H4946.87V131ZM4913.29 131H4914.29V80.9023H4913.29H4912.29V131H4913.29ZM4913.29 80.9023V79.9023H4866.36V80.9023V81.9023H4913.29V80.9023ZM4866.36 80.9023H4865.36V131H4866.36H4867.36V80.9023H4866.36ZM4866.36 131V130H4832.96V131V132H4866.36V131ZM4997.32 3.73438H4998.32V2.73438H4997.32V3.73438ZM4997.32 131V132H4998.32V131H4997.32ZM4963.92 131H4962.92V132H4963.92V131ZM4963.92 3.73438V2.73438H4962.92V3.73438H4963.92ZM4997.32 3.73438H4996.32V131H4997.32H4998.32V3.73438H4997.32ZM4997.32 131V130H4963.92V131V132H4997.32V131ZM4963.92 131H4964.92V3.73438H4963.92H4962.92V131H4963.92ZM4963.92 3.73438V4.73438H4997.32V3.73438V2.73438H4963.92V3.73438ZM5098.39 51.0195L5097.39 51.1074L5097.48 52.0195H5098.39V51.0195ZM5098.39 85.2969L5098.4 84.2969L5097.54 84.288L5097.4 85.1425L5098.39 85.2969ZM5132.32 85.6484L5133.31 85.7288L5133.4 84.6596L5132.33 84.6485L5132.32 85.6484ZM5132.32 51.0195V52.0195H5133.41L5133.31 50.93L5132.32 51.0195ZM5098.39 51.0195L5099.39 50.9316C5098.84 44.7479 5096.47 39.5316 5092.4 35.8632C5088.34 32.195 5082.68 30.1562 5075.71 30.1562V31.1562V32.1562C5082.28 32.1562 5087.44 34.0726 5091.06 37.3477C5094.69 40.6227 5096.89 45.3381 5097.39 51.1074L5098.39 51.0195ZM5075.71 31.1562V30.1562C5066.64 30.1562 5059.43 33.6665 5054.53 40.1551C5049.65 46.6063 5047.12 55.8999 5047.12 67.3672H5048.12H5049.12C5049.12 56.1587 5051.6 47.3468 5056.12 41.3615C5060.62 35.4136 5067.21 32.1562 5075.71 32.1562V31.1562ZM5048.12 67.3672H5047.12C5047.12 79.4422 5049.69 88.7451 5054.58 95.0502C5059.5 101.394 5066.66 104.578 5075.54 104.578V103.578V102.578C5067.19 102.578 5060.64 99.6096 5056.16 93.8248C5051.64 88.001 5049.12 79.1984 5049.12 67.3672H5048.12ZM5075.54 103.578V104.578C5082.14 104.578 5087.65 102.768 5091.75 99.432C5095.85 96.0926 5098.47 91.2882 5099.38 85.4512L5098.39 85.2969L5097.4 85.1425C5096.56 90.5556 5094.16 94.8918 5090.49 97.8805C5086.81 100.873 5081.77 102.578 5075.54 102.578V103.578ZM5098.39 85.2969L5098.38 86.2968L5132.31 86.6484L5132.32 85.6484L5132.33 84.6485L5098.4 84.2969L5098.39 85.2969ZM5132.32 85.6484L5131.32 85.5681C5129.6 106.867 5110.86 131.758 5074.84 131.758V132.758V133.758C5111.94 133.758 5131.52 108.023 5133.31 85.7288L5132.32 85.6484ZM5074.84 132.758V131.758C5057.57 131.758 5042.55 126.035 5031.84 115.181C5021.14 104.328 5014.66 88.2501 5014.66 67.3672H5013.66H5012.66C5012.66 88.6718 5019.28 105.29 5030.42 116.585C5041.56 127.879 5057.12 133.758 5074.84 133.758V132.758ZM5013.66 67.3672H5014.66C5014.66 46.4029 5021.31 30.3252 5032.1 19.4913C5042.9 8.65409 5057.92 2.97656 5074.84 2.97656V1.97656V0.976562C5057.47 0.976562 5041.91 6.81271 5030.69 18.0799C5019.46 29.3506 5012.66 45.9682 5012.66 67.3672H5013.66ZM5074.84 1.97656V2.97656C5090.47 2.97656 5103.9 7.36223 5113.75 15.5342C5123.59 23.6975 5129.94 35.7032 5131.32 51.1091L5132.32 51.0195L5133.31 50.93C5131.88 35.0468 5125.31 22.531 5115.03 13.9951C5104.75 5.46785 5090.84 0.976562 5074.84 0.976562V1.97656ZM5132.32 51.0195V50.0195H5098.39V51.0195V52.0195H5132.32V51.0195ZM5148.49 131H5147.49V132H5148.49V131ZM5148.49 3.73438V2.73438H5147.49V3.73438H5148.49ZM5181.89 3.73438H5182.89V2.73438H5181.89V3.73438ZM5181.89 55.7656H5180.89V56.7656H5181.89V55.7656ZM5183.64 55.7656V56.7656H5184.14L5184.44 56.3691L5183.64 55.7656ZM5223.02 3.73438V2.73438H5222.52L5222.22 3.13093L5223.02 3.73438ZM5262.22 3.73438L5263.01 4.34337L5264.25 2.73438H5262.22V3.73438ZM5218.62 60.5117L5217.83 59.9027L5217.41 60.4557L5217.78 61.0453L5218.62 60.5117ZM5263.1 131V132H5264.91L5263.94 130.466L5263.1 131ZM5223.02 131L5222.16 131.519L5222.46 132H5223.02V131ZM5193.66 82.6602L5194.52 82.1411L5193.77 80.9019L5192.88 82.0456L5193.66 82.6602ZM5181.89 97.7773L5181.1 97.1628L5180.89 97.4338V97.7773H5181.89ZM5181.89 131V132H5182.89V131H5181.89ZM5148.49 131H5149.49V3.73438H5148.49H5147.49V131H5148.49ZM5148.49 3.73438V4.73438H5181.89V3.73438V2.73438H5148.49V3.73438ZM5181.89 3.73438H5180.89V55.7656H5181.89H5182.89V3.73438H5181.89ZM5181.89 55.7656V56.7656H5183.64V55.7656V54.7656H5181.89V55.7656ZM5183.64 55.7656L5184.44 56.3691L5223.82 4.33782L5223.02 3.73438L5222.22 3.13093L5182.85 55.1622L5183.64 55.7656ZM5223.02 3.73438V4.73438H5262.22V3.73438V2.73438H5223.02V3.73438ZM5262.22 3.73438L5261.43 3.12538L5217.83 59.9027L5218.62 60.5117L5219.42 61.1207L5263.01 4.34337L5262.22 3.73438ZM5218.62 60.5117L5217.78 61.0453L5262.25 131.534L5263.1 131L5263.94 130.466L5219.47 59.9781L5218.62 60.5117ZM5263.1 131V130H5223.02V131V132H5263.1V131ZM5223.02 131L5223.87 130.481L5194.52 82.1411L5193.66 82.6602L5192.81 83.1792L5222.16 131.519L5223.02 131ZM5193.66 82.6602L5192.88 82.0456L5181.1 97.1628L5181.89 97.7773L5182.68 98.3919L5194.45 83.2747L5193.66 82.6602ZM5181.89 97.7773H5180.89V131H5181.89H5182.89V97.7773H5181.89ZM5181.89 131V130H5148.49V131V132H5181.89V131ZM5272.77 131H5271.77V132H5272.77V131ZM5272.77 3.73438V2.73438H5271.77V3.73438H5272.77ZM5363.64 3.73438H5364.64V2.73438H5363.64V3.73438ZM5363.64 30.8047V31.8047H5364.64V30.8047H5363.64ZM5306.16 30.8047V29.8047H5305.16V30.8047H5306.16ZM5306.16 53.832H5305.16V54.832H5306.16V53.832ZM5358.9 53.832H5359.9V52.832H5358.9V53.832ZM5358.9 80.9023V81.9023H5359.9V80.9023H5358.9ZM5306.16 80.9023V79.9023H5305.16V80.9023H5306.16ZM5306.16 103.93H5305.16V104.93H5306.16V103.93ZM5363.47 103.93H5364.47V102.93H5363.47V103.93ZM5363.47 131V132H5364.47V131H5363.47ZM5272.77 131H5273.77V3.73438H5272.77H5271.77V131H5272.77ZM5272.77 3.73438V4.73438H5363.64V3.73438V2.73438H5272.77V3.73438ZM5363.64 3.73438H5362.64V30.8047H5363.64H5364.64V3.73438H5363.64ZM5363.64 30.8047V29.8047H5306.16V30.8047V31.8047H5363.64V30.8047ZM5306.16 30.8047H5305.16V53.832H5306.16H5307.16V30.8047H5306.16ZM5306.16 53.832V54.832H5358.9V53.832V52.832H5306.16V53.832ZM5358.9 53.832H5357.9V80.9023H5358.9H5359.9V53.832H5358.9ZM5358.9 80.9023V79.9023H5306.16V80.9023V81.9023H5358.9V80.9023ZM5306.16 80.9023H5305.16V103.93H5306.16H5307.16V80.9023H5306.16ZM5306.16 103.93V104.93H5363.47V103.93V102.93H5306.16V103.93ZM5363.47 103.93H5362.47V131H5363.47H5364.47V103.93H5363.47ZM5363.47 131V130H5272.77V131V132H5363.47V131ZM5490.73 3.73438H5491.73V2.73438H5490.73V3.73438ZM5490.73 131V132H5491.73V131H5490.73ZM5462.79 131L5461.96 131.567L5462.26 132H5462.79V131ZM5415.5 62.2695L5416.32 61.7027L5416.03 61.2695H5415.5V62.2695ZM5414.62 62.2695V61.2695H5413.62V62.2695H5414.62ZM5414.62 131V132H5415.62V131H5414.62ZM5381.22 131H5380.22V132H5381.22V131ZM5381.22 3.73438V2.73438H5380.22V3.73438H5381.22ZM5409.7 3.73438L5410.53 3.17137L5410.23 2.73438H5409.7V3.73438ZM5456.28 72.1133L5455.45 72.6763L5455.75 73.1133H5456.28V72.1133ZM5457.34 72.1133V73.1133H5458.34V72.1133H5457.34ZM5457.34 3.73438V2.73438H5456.34V3.73438H5457.34ZM5490.73 3.73438H5489.73V131H5490.73H5491.73V3.73438H5490.73ZM5490.73 131V130H5462.79V131V132H5490.73V131ZM5462.79 131L5463.61 130.433L5416.32 61.7027L5415.5 62.2695L5414.68 62.8363L5461.96 131.567L5462.79 131ZM5415.5 62.2695V61.2695H5414.62V62.2695V63.2695H5415.5V62.2695ZM5414.62 62.2695H5413.62V131H5414.62H5415.62V62.2695H5414.62ZM5414.62 131V130H5381.22V131V132H5414.62V131ZM5381.22 131H5382.22V3.73438H5381.22H5380.22V131H5381.22ZM5381.22 3.73438V4.73438H5409.7V3.73438V2.73438H5381.22V3.73438ZM5409.7 3.73438L5408.87 4.29738L5455.45 72.6763L5456.28 72.1133L5457.11 71.5503L5410.53 3.17137L5409.7 3.73438ZM5456.28 72.1133V73.1133H5457.34V72.1133V71.1133H5456.28V72.1133ZM5457.34 72.1133H5458.34V3.73438H5457.34H5456.34V72.1133H5457.34ZM5457.34 3.73438V4.73438H5490.73V3.73438V2.73438H5457.34V3.73438Z" fill="white" mask="url(#path-1-outside-1_8_58)"/>
</svg>
