<svg width="1694" height="73" viewBox="0 0 1694 73" fill="none" xmlns="http://www.w3.org/2000/svg">
<path d="M-2243.21 72V1.29688H-2212.94C-2196.83 1.29688 -2188.33 8.23047 -2188.33 19.0703C-2188.33 26.8828 -2193.9 32.8398 -2201.91 34.5V35.1836C-2193.02 35.4766 -2185.6 42.0195 -2185.6 52.0781C-2185.6 63.6016 -2194.97 72 -2210.4 72H-2243.21ZM-2215.19 57.0586C-2208.55 57.0586 -2205.23 54.5195 -2205.23 49.7344C-2205.23 44.5586 -2208.94 41.6289 -2214.89 41.6289H-2224.66V57.0586H-2215.19ZM-2216.36 30.0078C-2211.18 30.0078 -2207.47 27.4688 -2207.47 22.9766C-2207.47 18.4844 -2210.99 15.9453 -2216.07 15.9453H-2224.66V30.0078H-2216.36ZM-2178.47 72V1.29688H-2127.98V16.3359H-2159.91V29.1289H-2130.62V44.168H-2159.91V56.9609H-2128.08V72H-2178.47ZM-2120.27 16.3359V1.29688H-2059.33V16.3359H-2080.62V72H-2098.98V16.3359H-2120.27ZM-2053.86 16.3359V1.29688H-1992.92V16.3359H-2014.21V72H-2032.57V16.3359H-2053.86ZM-1985.4 72V1.29688H-1934.91V16.3359H-1966.85V29.1289H-1937.55V44.168H-1966.85V56.9609H-1935.01V72H-1985.4ZM-1925.15 72V1.29688H-1895.07C-1879.25 1.29688 -1868.9 10.2812 -1868.9 25.2227C-1868.9 34.9883 -1873.39 41.9219 -1881.01 45.5352L-1866.55 72H-1886.77L-1899.27 48.4648H-1906.59V72H-1925.15ZM-1906.59 33.9141H-1899.37C-1892.34 33.9141 -1888.33 31.375 -1888.33 25.2227C-1888.33 18.9727 -1892.34 16.1406 -1899.37 16.1406H-1906.59V33.9141ZM-1838.72 72V1.29688H-1820.17V29.1289H-1794.09V1.29688H-1775.44V72H-1794.09V44.168H-1820.17V72H-1838.72ZM-1748.49 72H-1768.61L-1745.07 1.29688H-1719.78L-1696.34 72H-1716.36L-1720.56 58.1328H-1744.29L-1748.49 72ZM-1739.99 44.0703H-1724.86L-1732.18 20.3398H-1732.77L-1739.99 44.0703ZM-1689.31 72V1.29688H-1659.23C-1643.41 1.29688 -1633.06 11.2578 -1633.06 26.1016C-1633.06 41.2383 -1643.7 50.7109 -1659.82 50.7109H-1670.75V72H-1689.31ZM-1670.75 36.2578H-1663.53C-1656.5 36.2578 -1652.49 32.3516 -1652.49 26.1016C-1652.49 19.9492 -1656.5 16.1406 -1663.53 16.1406H-1670.75V36.2578ZM-1625.73 72V1.29688H-1595.66C-1579.84 1.29688 -1569.48 11.2578 -1569.48 26.1016C-1569.48 41.2383 -1580.13 50.7109 -1596.24 50.7109H-1607.18V72H-1625.73ZM-1607.18 36.2578H-1599.95C-1592.92 36.2578 -1588.92 32.3516 -1588.92 26.1016C-1588.92 19.9492 -1592.92 16.1406 -1599.95 16.1406H-1607.18V36.2578ZM-1543.61 1.29688V72H-1562.16V1.29688H-1543.61ZM-1534.04 72V1.29688H-1483.55V16.3359H-1515.48V29.1289H-1486.18V44.168H-1515.48V56.9609H-1483.64V72H-1534.04ZM-1473.78 72V1.29688H-1443.7C-1427.88 1.29688 -1417.53 10.2812 -1417.53 25.2227C-1417.53 34.9883 -1422.02 41.9219 -1429.64 45.5352L-1415.19 72H-1435.4L-1447.9 48.4648H-1455.23V72H-1473.78ZM-1455.23 33.9141H-1448C-1440.97 33.9141 -1436.96 31.375 -1436.96 25.2227C-1436.96 18.9727 -1440.97 16.1406 -1448 16.1406H-1455.23V33.9141ZM-1340.77 27.5664C-1341.36 20.9258 -1345.85 16.5312 -1353.37 16.5312C-1363.14 16.5312 -1368.7 24.0508 -1368.7 36.6484C-1368.7 49.9297 -1363.04 56.7656 -1353.47 56.7656C-1346.34 56.7656 -1341.75 52.8594 -1340.77 46.6094L-1321.93 46.8047C-1322.9 58.9141 -1333.55 72.9766 -1353.86 72.9766C-1373.29 72.9766 -1387.84 60.0859 -1387.84 36.6484C-1387.84 13.1133 -1372.9 0.320312 -1353.86 0.320312C-1336.28 0.320312 -1323.49 10.1836 -1321.93 27.5664H-1340.77ZM-1312.94 72V1.29688H-1294.39V29.1289H-1268.31V1.29688H-1249.66V72H-1268.31V44.168H-1294.39V72H-1312.94ZM-1172.22 36.6484C-1172.22 60.1836 -1187.26 72.9766 -1206.4 72.9766C-1225.73 72.9766 -1240.68 60.0859 -1240.68 36.6484C-1240.68 13.1133 -1225.73 0.320312 -1206.4 0.320312C-1187.26 0.320312 -1172.22 13.1133 -1172.22 36.6484ZM-1191.36 36.6484C-1191.36 23.6602 -1196.73 16.5312 -1206.4 16.5312C-1216.16 16.5312 -1221.54 23.6602 -1221.54 36.6484C-1221.54 49.6367 -1216.16 56.7656 -1206.4 56.7656C-1196.73 56.7656 -1191.36 49.6367 -1191.36 36.6484ZM-1144.58 1.29688V72H-1163.14V1.29688H-1144.58ZM-1088.43 27.5664C-1089.02 20.9258 -1093.51 16.5312 -1101.03 16.5312C-1110.79 16.5312 -1116.36 24.0508 -1116.36 36.6484C-1116.36 49.9297 -1110.7 56.7656 -1101.12 56.7656C-1094 56.7656 -1089.41 52.8594 -1088.43 46.6094L-1069.58 46.8047C-1070.56 58.9141 -1081.2 72.9766 -1101.52 72.9766C-1120.95 72.9766 -1135.5 60.0859 -1135.5 36.6484C-1135.5 13.1133 -1120.56 0.320312 -1101.52 0.320312C-1083.94 0.320312 -1071.14 10.1836 -1069.58 27.5664H-1088.43ZM-1060.6 72V1.29688H-1010.11V16.3359H-1042.04V29.1289H-1012.75V44.168H-1042.04V56.9609H-1010.21V72H-1060.6ZM-891.457 72V1.29688H-861.184C-845.07 1.29688 -836.574 8.23047 -836.574 19.0703C-836.574 26.8828 -842.141 32.8398 -850.148 34.5V35.1836C-841.262 35.4766 -833.84 42.0195 -833.84 52.0781C-833.84 63.6016 -843.215 72 -858.645 72H-891.457ZM-863.43 57.0586C-856.789 57.0586 -853.469 54.5195 -853.469 49.7344C-853.469 44.5586 -857.18 41.6289 -863.137 41.6289H-872.902V57.0586H-863.43ZM-864.602 30.0078C-859.426 30.0078 -855.715 27.4688 -855.715 22.9766C-855.715 18.4844 -859.23 15.9453 -864.309 15.9453H-872.902V30.0078H-864.602ZM-826.711 72V1.29688H-776.223V16.3359H-808.156V29.1289H-778.859V44.168H-808.156V56.9609H-776.32V72H-826.711ZM-768.508 16.3359V1.29688H-707.57V16.3359H-728.859V72H-747.219V16.3359H-768.508ZM-702.102 16.3359V1.29688H-641.164V16.3359H-662.453V72H-680.812V16.3359H-702.102ZM-633.645 72V1.29688H-583.156V16.3359H-615.09V29.1289H-585.793V44.168H-615.09V56.9609H-583.254V72H-633.645ZM-573.391 72V1.29688H-543.312C-527.492 1.29688 -517.141 10.2812 -517.141 25.2227C-517.141 34.9883 -521.633 41.9219 -529.25 45.5352L-514.797 72H-535.012L-547.512 48.4648H-554.836V72H-573.391ZM-554.836 33.9141H-547.609C-540.578 33.9141 -536.574 31.375 -536.574 25.2227C-536.574 18.9727 -540.578 16.1406 -547.609 16.1406H-554.836V33.9141ZM-486.965 72V1.29688H-468.41V29.1289H-442.336V1.29688H-423.684V72H-442.336V44.168H-468.41V72H-486.965ZM-396.73 72H-416.848L-393.312 1.29688H-368.02L-344.582 72H-364.602L-368.801 58.1328H-392.531L-396.73 72ZM-388.234 44.0703H-373.098L-380.422 20.3398H-381.008L-388.234 44.0703ZM-337.551 72V1.29688H-307.473C-291.652 1.29688 -281.301 11.2578 -281.301 26.1016C-281.301 41.2383 -291.945 50.7109 -308.059 50.7109H-318.996V72H-337.551ZM-318.996 36.2578H-311.77C-304.738 36.2578 -300.734 32.3516 -300.734 26.1016C-300.734 19.9492 -304.738 16.1406 -311.77 16.1406H-318.996V36.2578ZM-273.977 72V1.29688H-243.898C-228.078 1.29688 -217.727 11.2578 -217.727 26.1016C-217.727 41.2383 -228.371 50.7109 -244.484 50.7109H-255.422V72H-273.977ZM-255.422 36.2578H-248.195C-241.164 36.2578 -237.16 32.3516 -237.16 26.1016C-237.16 19.9492 -241.164 16.1406 -248.195 16.1406H-255.422V36.2578ZM-191.848 1.29688V72H-210.402V1.29688H-191.848ZM-182.277 72V1.29688H-131.789V16.3359H-163.723V29.1289H-134.426V44.168H-163.723V56.9609H-131.887V72H-182.277ZM-122.023 72V1.29688H-91.9453C-76.125 1.29688 -65.7734 10.2812 -65.7734 25.2227C-65.7734 34.9883 -70.2656 41.9219 -77.8828 45.5352L-63.4297 72H-83.6445L-96.1445 48.4648H-103.469V72H-122.023ZM-103.469 33.9141H-96.2422C-89.2109 33.9141 -85.207 31.375 -85.207 25.2227C-85.207 18.9727 -89.2109 16.1406 -96.2422 16.1406H-103.469V33.9141ZM10.9844 27.5664C10.3984 20.9258 5.90625 16.5312 -1.61328 16.5312C-11.3789 16.5312 -16.9453 24.0508 -16.9453 36.6484C-16.9453 49.9297 -11.2812 56.7656 -1.71094 56.7656C5.41797 56.7656 10.0078 52.8594 10.9844 46.6094L29.832 46.8047C28.8555 58.9141 18.2109 72.9766 -2.10156 72.9766C-21.5352 72.9766 -36.0859 60.0859 -36.0859 36.6484C-36.0859 13.1133 -21.1445 0.320312 -2.10156 0.320312C15.4766 0.320312 28.2695 10.1836 29.832 27.5664H10.9844ZM38.8164 72V1.29688H57.3711V29.1289H83.4453V1.29688H102.098V72H83.4453V44.168H57.3711V72H38.8164ZM179.539 36.6484C179.539 60.1836 164.5 72.9766 145.359 72.9766C126.023 72.9766 111.082 60.0859 111.082 36.6484C111.082 13.1133 126.023 0.320312 145.359 0.320312C164.5 0.320312 179.539 13.1133 179.539 36.6484ZM160.398 36.6484C160.398 23.6602 155.027 16.5312 145.359 16.5312C135.594 16.5312 130.223 23.6602 130.223 36.6484C130.223 49.6367 135.594 56.7656 145.359 56.7656C155.027 56.7656 160.398 49.6367 160.398 36.6484ZM207.176 1.29688V72H188.621V1.29688H207.176ZM263.328 27.5664C262.742 20.9258 258.25 16.5312 250.73 16.5312C240.965 16.5312 235.398 24.0508 235.398 36.6484C235.398 49.9297 241.062 56.7656 250.633 56.7656C257.762 56.7656 262.352 52.8594 263.328 46.6094L282.176 46.8047C281.199 58.9141 270.555 72.9766 250.242 72.9766C230.809 72.9766 216.258 60.0859 216.258 36.6484C216.258 13.1133 231.199 0.320312 250.242 0.320312C267.82 0.320312 280.613 10.1836 282.176 27.5664H263.328ZM291.16 72V1.29688H341.648V16.3359H309.715V29.1289H339.012V44.168H309.715V56.9609H341.551V72H291.16ZM460.301 72V1.29688H490.574C506.688 1.29688 515.184 8.23047 515.184 19.0703C515.184 26.8828 509.617 32.8398 501.609 34.5V35.1836C510.496 35.4766 517.918 42.0195 517.918 52.0781C517.918 63.6016 508.543 72 493.113 72H460.301ZM488.328 57.0586C494.969 57.0586 498.289 54.5195 498.289 49.7344C498.289 44.5586 494.578 41.6289 488.621 41.6289H478.855V57.0586H488.328ZM487.156 30.0078C492.332 30.0078 496.043 27.4688 496.043 22.9766C496.043 18.4844 492.527 15.9453 487.449 15.9453H478.855V30.0078H487.156ZM525.047 72V1.29688H575.535V16.3359H543.602V29.1289H572.898V44.168H543.602V56.9609H575.438V72H525.047ZM583.25 16.3359V1.29688H644.188V16.3359H622.898V72H604.539V16.3359H583.25ZM649.656 16.3359V1.29688H710.594V16.3359H689.305V72H670.945V16.3359H649.656ZM718.113 72V1.29688H768.602V16.3359H736.668V29.1289H765.965V44.168H736.668V56.9609H768.504V72H718.113ZM778.367 72V1.29688H808.445C824.266 1.29688 834.617 10.2812 834.617 25.2227C834.617 34.9883 830.125 41.9219 822.508 45.5352L836.961 72H816.746L804.246 48.4648H796.922V72H778.367ZM796.922 33.9141H804.148C811.18 33.9141 815.184 31.375 815.184 25.2227C815.184 18.9727 811.18 16.1406 804.148 16.1406H796.922V33.9141ZM864.793 72V1.29688H883.348V29.1289H909.422V1.29688H928.074V72H909.422V44.168H883.348V72H864.793ZM955.027 72H934.91L958.445 1.29688H983.738L1007.18 72H987.156L982.957 58.1328H959.227L955.027 72ZM963.523 44.0703H978.66L971.336 20.3398H970.75L963.523 44.0703ZM1014.21 72V1.29688H1044.29C1060.11 1.29688 1070.46 11.2578 1070.46 26.1016C1070.46 41.2383 1059.81 50.7109 1043.7 50.7109H1032.76V72H1014.21ZM1032.76 36.2578H1039.99C1047.02 36.2578 1051.02 32.3516 1051.02 26.1016C1051.02 19.9492 1047.02 16.1406 1039.99 16.1406H1032.76V36.2578ZM1077.78 72V1.29688H1107.86C1123.68 1.29688 1134.03 11.2578 1134.03 26.1016C1134.03 41.2383 1123.39 50.7109 1107.27 50.7109H1096.34V72H1077.78ZM1096.34 36.2578H1103.56C1110.59 36.2578 1114.6 32.3516 1114.6 26.1016C1114.6 19.9492 1110.59 16.1406 1103.56 16.1406H1096.34V36.2578ZM1159.91 1.29688V72H1141.36V1.29688H1159.91ZM1169.48 72V1.29688H1219.97V16.3359H1188.04V29.1289H1217.33V44.168H1188.04V56.9609H1219.87V72H1169.48ZM1229.73 72V1.29688H1259.81C1275.63 1.29688 1285.98 10.2812 1285.98 25.2227C1285.98 34.9883 1281.49 41.9219 1273.88 45.5352L1288.33 72H1268.11L1255.61 48.4648H1248.29V72H1229.73ZM1248.29 33.9141H1255.52C1262.55 33.9141 1266.55 31.375 1266.55 25.2227C1266.55 18.9727 1262.55 16.1406 1255.52 16.1406H1248.29V33.9141ZM1362.74 27.5664C1362.16 20.9258 1357.66 16.5312 1350.14 16.5312C1340.38 16.5312 1334.81 24.0508 1334.81 36.6484C1334.81 49.9297 1340.48 56.7656 1350.05 56.7656C1357.18 56.7656 1361.77 52.8594 1362.74 46.6094L1381.59 46.8047C1380.61 58.9141 1369.97 72.9766 1349.66 72.9766C1330.22 72.9766 1315.67 60.0859 1315.67 36.6484C1315.67 13.1133 1330.61 0.320312 1349.66 0.320312C1367.23 0.320312 1380.03 10.1836 1381.59 27.5664H1362.74ZM1390.57 72V1.29688H1409.13V29.1289H1435.2V1.29688H1453.86V72H1435.2V44.168H1409.13V72H1390.57ZM1531.3 36.6484C1531.3 60.1836 1516.26 72.9766 1497.12 72.9766C1477.78 72.9766 1462.84 60.0859 1462.84 36.6484C1462.84 13.1133 1477.78 0.320312 1497.12 0.320312C1516.26 0.320312 1531.3 13.1133 1531.3 36.6484ZM1512.16 36.6484C1512.16 23.6602 1506.79 16.5312 1497.12 16.5312C1487.35 16.5312 1481.98 23.6602 1481.98 36.6484C1481.98 49.6367 1487.35 56.7656 1497.12 56.7656C1506.79 56.7656 1512.16 49.6367 1512.16 36.6484ZM1558.93 1.29688V72H1540.38V1.29688H1558.93ZM1615.09 27.5664C1614.5 20.9258 1610.01 16.5312 1602.49 16.5312C1592.72 16.5312 1587.16 24.0508 1587.16 36.6484C1587.16 49.9297 1592.82 56.7656 1602.39 56.7656C1609.52 56.7656 1614.11 52.8594 1615.09 46.6094L1633.93 46.8047C1632.96 58.9141 1622.31 72.9766 1602 72.9766C1582.57 72.9766 1568.02 60.0859 1568.02 36.6484C1568.02 13.1133 1582.96 0.320312 1602 0.320312C1619.58 0.320312 1632.37 10.1836 1633.93 27.5664H1615.09ZM1642.92 72V1.29688H1693.41V16.3359H1661.47V29.1289H1690.77V44.168H1661.47V56.9609H1693.31V72H1642.92Z" fill="white" fill-opacity="0.6"/>
</svg>
