<svg width="80" height="66" viewBox="0 0 80 66" fill="none" xmlns="http://www.w3.org/2000/svg">
<g clip-path="url(#clip0_2200_6537)">
<path d="M23.4746 36.9623C23.4746 38.6428 22.5712 40.0841 20.7563 41.2971C18.9441 42.5046 16.7655 43.1084 14.2066 43.1084H0V0H8.65267V12.9403H23.4746V36.9651V36.9623ZM14.8275 20.1408H8.65267V36.5143H14.8275V20.1408ZM49.0242 14.7543C47.2121 13.5469 45.0336 12.9376 42.4803 12.9376H36.915V0H28.268V43.1111H36.915V21.5931H36.9206V20.1408H43.0954V43.1111H51.7426V19.0446C51.7286 17.3835 50.828 15.9534 49.027 14.7515M65.7962 12.9376C63.2373 12.9376 61.0587 13.5469 59.2411 14.7543C57.4316 15.9646 56.5254 17.4059 56.5254 19.0891V43.1083H70.7405C73.2854 43.1083 75.4695 42.5018 77.2818 41.2999C79.0939 40.0841 80 38.6401 80 36.9596V31.5564H71.353V36.5143H65.1726V20.1408H71.353V24.3615H80V12.9347H65.7934L65.7962 12.9376Z" fill="#FFCC00"/>
<path d="M11.1417 55.6779H6.42688V52.4163C6.42866 51.4681 6.37844 50.8767 6.27621 50.6419C6.17577 50.4053 5.95354 50.2875 5.60952 50.2884C5.22196 50.2884 4.97617 50.4311 4.87217 50.7165C4.7655 51.0046 4.71216 51.6232 4.71216 52.5723V61.2896C4.71038 62.201 4.76372 62.7947 4.87217 63.0709C4.97617 63.3498 5.21129 63.4893 5.57752 63.4893C5.94287 63.4893 6.15888 63.3512 6.26821 63.0723C6.37488 62.7924 6.42866 62.1375 6.42955 61.1073V58.7489H11.1457V59.4835C11.1457 61.4222 11.0137 62.803 10.7484 63.6122C10.4826 64.426 9.89589 65.1385 8.9883 65.7498C8.08161 66.3601 6.96424 66.6657 5.63619 66.6666C4.30681 66.6666 3.11611 66.4084 2.22141 65.8878C1.32271 65.37 0.733362 64.6547 0.438685 63.7406C0.145342 62.8247 -0.00088489 61.447 4.02833e-06 59.6077V54.123C4.02833e-06 52.7726 0.0444499 51.759 0.133342 51.0824C0.226678 50.4049 0.493354 49.7536 0.933368 49.1285C1.37783 48.5007 1.99563 48.0077 2.78676 47.6496C3.57257 47.2906 4.47749 47.1111 5.50152 47.1111C6.88823 47.1111 8.03405 47.3891 8.93897 47.9451C9.84478 48.5002 10.4395 49.1925 10.723 50.0219C11.0066 50.8513 11.1484 52.1424 11.1484 53.8952V55.6765L11.1417 55.6779ZM24.1381 47.5046V66.2703H19.422V58.3926H18.0113V66.2703H13.2951V47.5046H18.0099V54.2155H19.4233V47.5046H24.1381ZM31.2037 47.5074H26.4876V66.2731H31.2024L31.2037 47.5074ZM44.5628 55.6779H39.848V52.4163C39.848 51.4681 39.7973 50.8767 39.696 50.6419C39.5938 50.4053 39.3715 50.2875 39.0293 50.2884C38.6426 50.2884 38.3933 50.4306 38.2933 50.7165C38.1866 51.0046 38.1333 51.6232 38.1333 52.5723V61.2896C38.1315 62.201 38.1848 62.7947 38.2933 63.0709C38.3946 63.3498 38.6284 63.4893 38.9946 63.4893C39.3586 63.4893 39.576 63.3512 39.6853 63.0723C39.7938 62.7924 39.848 62.1375 39.848 61.1073V58.7489H44.5628V59.4835C44.5628 61.4222 44.4295 62.803 44.1655 63.6122C43.9015 64.426 43.3148 65.1385 42.4054 65.7498C41.4987 66.3601 40.3813 66.6657 39.0533 66.6666C37.7253 66.6666 36.5306 66.4084 35.6359 65.8878C34.738 65.3705 34.1443 64.6547 33.8545 63.7406C33.5629 62.8247 33.4176 61.447 33.4184 59.6077V54.123C33.4184 52.7726 33.4629 51.759 33.5518 51.0824C33.6442 50.4049 33.9109 49.7536 34.3518 49.1285C34.7963 48.5007 35.4127 48.0077 36.2012 47.6496C36.9888 47.2906 37.8946 47.1111 38.9186 47.1111C40.3098 47.1111 41.4556 47.3891 42.3561 47.9451C43.2628 48.5002 43.8521 49.192 44.1375 50.0219C44.4228 50.8513 44.5655 52.1424 44.5655 53.8952V55.6765L44.5628 55.6779ZM57.9553 47.5046L55.2512 55.9789L58.2113 66.2703H53.3405L51.4311 58.2269V66.2703H46.7122V47.5046H51.4311V54.7983L53.5338 47.5046H57.9553ZM59.4833 47.5046H67.3476V51.2647H64.1995V54.8204H67.1462V58.3926H64.1995V62.5158H67.6583V66.2703H59.4846L59.4833 47.5046ZM80 47.5046V66.2703H75.8692L73.4158 57.7408V66.2703H69.4743V47.5046H73.4171L76.0599 55.9582V47.5046H80Z" fill="white"/>
</g>
<defs>
<clipPath id="clip0_2200_6537">
<rect width="80" height="65.5639" fill="white"/>
</clipPath>
</defs>
</svg>
