<svg width="15" height="15" viewBox="0 0 15 15" fill="none" xmlns="http://www.w3.org/2000/svg">
<g clip-path="url(#clip0_2763_21317)">
<path d="M9.81688 8.56688L8.38375 10L9.81688 11.4331C10.0613 11.6775 10.0613 12.0725 9.81688 12.3169C9.695 12.4388 9.535 12.5 9.375 12.5C9.215 12.5 9.055 12.4388 8.93313 12.3169L7.5 10.8837L6.06688 12.3169C5.945 12.4388 5.785 12.5 5.625 12.5C5.465 12.5 5.305 12.4388 5.18313 12.3169C4.93875 12.0725 4.93875 11.6775 5.18313 11.4331L6.61625 10L5.18313 8.56688C4.93875 8.3225 4.93875 7.9275 5.18313 7.68313C5.4275 7.43875 5.8225 7.43875 6.06688 7.68313L7.5 9.11625L8.93313 7.68313C9.1775 7.43875 9.5725 7.43875 9.81688 7.68313C10.0613 7.9275 10.0613 8.3225 9.81688 8.56688ZM15 4.375V11.875C15 13.5981 13.5981 15 11.875 15H3.125C1.40188 15 0 13.5981 0 11.875V4.375C0 2.65188 1.40188 1.25 3.125 1.25H3.75V0.625C3.75 0.279375 4.03 0 4.375 0C4.72 0 5 0.279375 5 0.625V1.25H10V0.625C10 0.279375 10.28 0 10.625 0C10.97 0 11.25 0.279375 11.25 0.625V1.25H11.875C13.5981 1.25 15 2.65188 15 4.375ZM1.25 4.375V5H13.75V4.375C13.75 3.34125 12.9088 2.5 11.875 2.5H3.125C2.09125 2.5 1.25 3.34125 1.25 4.375ZM13.75 11.875V6.25H1.25V11.875C1.25 12.9088 2.09125 13.75 3.125 13.75H11.875C12.9088 13.75 13.75 12.9088 13.75 11.875Z" fill="black"/>
</g>
<defs>
<clipPath id="clip0_2763_21317">
<rect width="15" height="15" fill="white"/>
</clipPath>
</defs>
</svg>
