<svg width="34" height="34" viewBox="0 0 34 34" fill="none" xmlns="http://www.w3.org/2000/svg">
<circle cx="17" cy="17" r="17" fill="#FFCC00"/>
<path d="M11.5704 10.5682C11.221 10.2188 10.6544 10.2188 10.305 10.5682C9.95562 10.9176 9.95562 11.4842 10.305 11.8336L15.4719 17.0004L10.3051 22.1673C9.95567 22.5167 9.95566 23.0832 10.3051 23.4326C10.6545 23.782 11.221 23.782 11.5704 23.4326L16.7372 18.2658L21.9041 23.4326C22.2535 23.782 22.82 23.782 23.1694 23.4326C23.5188 23.0832 23.5188 22.5167 23.1694 22.1673L18.0026 17.0004L23.1695 11.8336C23.5189 11.4842 23.5189 10.9176 23.1695 10.5682C22.82 10.2188 22.2536 10.2188 21.9041 10.5682L16.7372 15.7351L11.5704 10.5682Z" fill="#321F00"/>
</svg>
