<svg width="24" height="25" viewBox="0 0 24 25" fill="none" xmlns="http://www.w3.org/2000/svg">
<path d="M11.9999 2.5C10.6866 2.5 9.38629 2.75866 8.17303 3.2612C6.95978 3.76375 5.85738 4.50035 4.9288 5.42893C3.05343 7.3043 1.99987 9.84784 1.99987 12.5C1.99112 14.8091 2.79066 17.0485 4.25987 18.83L2.25987 20.83C2.12111 20.9706 2.02711 21.1492 1.98974 21.3432C1.95236 21.5372 1.97329 21.7379 2.04987 21.92C2.13292 22.0999 2.26757 22.2511 2.43671 22.3544C2.60586 22.4577 2.80187 22.5083 2.99987 22.5H11.9999C14.652 22.5 17.1956 21.4464 19.0709 19.5711C20.9463 17.6957 21.9999 15.1522 21.9999 12.5C21.9999 9.84784 20.9463 7.3043 19.0709 5.42893C17.1956 3.55357 14.652 2.5 11.9999 2.5ZM11.9999 20.5H5.40987L6.33987 19.57C6.52612 19.3826 6.63066 19.1292 6.63066 18.865C6.63066 18.6008 6.52612 18.3474 6.33987 18.16C5.03045 16.852 4.21504 15.1305 4.03256 13.2888C3.85007 11.447 4.31181 9.59901 5.33909 8.05952C6.36638 6.52004 7.89566 5.38436 9.66638 4.84597C11.4371 4.30759 13.3397 4.3998 15.0501 5.10691C16.7604 5.81402 18.1727 7.09227 19.0463 8.72389C19.9199 10.3555 20.2007 12.2395 19.841 14.055C19.4813 15.8705 18.5032 17.505 17.0734 18.6802C15.6436 19.8554 13.8506 20.4985 11.9999 20.5Z" fill="black"/>
</svg>
