<svg width="24" height="24" viewBox="0 0 24 24" fill="none" xmlns="http://www.w3.org/2000/svg">
<g clip-path="url(#clip0_1875_19968)">
<mask id="mask0_1875_19968" style="mask-type:luminance" maskUnits="userSpaceOnUse" x="0" y="0" width="24" height="24">
<path d="M0 0H24V24H0V0Z" fill="white"/>
</mask>
<g mask="url(#mask0_1875_19968)">
<path d="M5.21817 11.3698L9.99817 5.36982C10.0808 5.26709 10.1828 5.18169 10.2984 5.11852C10.414 5.05534 10.541 5.01564 10.6721 5.0017C10.8031 4.98777 10.9356 4.99986 11.0619 5.03729C11.1883 5.07472 11.306 5.13675 11.4082 5.21982C11.511 5.30234 11.5964 5.40435 11.6595 5.51999C11.7227 5.63563 11.7624 5.76261 11.7764 5.89364C11.7903 6.02467 11.7782 6.15716 11.7408 6.2835C11.7033 6.40984 11.6413 6.52753 11.5582 6.62982L7.28817 11.9998L11.7682 17.3698C11.8524 17.4709 11.9159 17.5875 11.9549 17.7131C11.994 17.8387 12.0079 17.9708 11.9958 18.1018C11.9837 18.2328 11.9459 18.3601 11.8846 18.4764C11.8232 18.5928 11.7395 18.6959 11.6382 18.7798C11.457 18.9253 11.2307 19.0031 10.9982 18.9998C10.8513 19.0001 10.7062 18.9679 10.5731 18.9057C10.44 18.8435 10.3223 18.7527 10.2282 18.6398L5.22817 12.6398C5.07967 12.462 4.99757 12.2382 4.99567 12.0066C4.99387 11.775 5.07257 11.5499 5.21817 11.3698Z" fill="black"/>
<path d="M16.9982 5.36976C17.1653 5.15626 17.4104 5.01788 17.6795 4.98506C17.9486 4.95224 18.2197 5.02767 18.4332 5.19476C18.6467 5.36184 18.7851 5.6069 18.8179 5.87601C18.8508 6.14513 18.7753 6.41626 18.6082 6.62976L14.2882 11.9998L18.7682 17.3598C18.8524 17.4608 18.9159 17.5775 18.9549 17.7031C18.994 17.8287 19.0078 17.9608 18.9958 18.0917C18.9837 18.2227 18.9459 18.35 18.8845 18.4664C18.8232 18.5827 18.7395 18.6858 18.6382 18.7698C18.4583 18.9188 18.2319 19.0002 17.9982 18.9998C17.8513 19 17.7062 18.9679 17.5731 18.9056C17.44 18.8434 17.3223 18.7526 17.2282 18.6398L12.2282 12.6398C12.0812 12.4608 12.0008 12.2364 12.0008 12.0048C12.0008 11.7731 12.0812 11.5487 12.2282 11.3698L16.9982 5.36976Z" fill="black"/>
</g>
</g>
<defs>
<clipPath id="clip0_1875_19968">
<rect width="24" height="24" fill="white" transform="matrix(-1 0 0 1 24 0)"/>
</clipPath>
</defs>
</svg>
