<svg width="24" height="24" viewBox="0 0 24 24" fill="none" xmlns="http://www.w3.org/2000/svg">
<g clip-path="url(#clip0_1875_19988)">
<mask id="mask0_1875_19988" style="mask-type:luminance" maskUnits="userSpaceOnUse" x="0" y="0" width="24" height="24">
<path d="M24 0H0V24H24V0Z" fill="white"/>
</mask>
<g mask="url(#mask0_1875_19988)">
<path d="M18.7818 11.3698L14.0018 5.36982C13.9192 5.26709 13.8172 5.18169 13.7016 5.11852C13.586 5.05534 13.459 5.01564 13.3279 5.0017C13.1969 4.98777 13.0644 4.99986 12.9381 5.03729C12.8117 5.07472 12.694 5.13675 12.5918 5.21982C12.489 5.30234 12.4036 5.40435 12.3405 5.51999C12.2773 5.63563 12.2376 5.76261 12.2236 5.89364C12.2097 6.02467 12.2218 6.15716 12.2592 6.2835C12.2967 6.40984 12.3587 6.52753 12.4418 6.62982L16.7118 11.9998L12.2318 17.3698C12.1476 17.4709 12.0841 17.5875 12.0451 17.7131C12.006 17.8387 11.9921 17.9708 12.0042 18.1018C12.0163 18.2328 12.0541 18.3601 12.1154 18.4764C12.1768 18.5928 12.2605 18.6959 12.3618 18.7798C12.543 18.9253 12.7693 19.0031 13.0018 18.9998C13.1487 19.0001 13.2938 18.9679 13.4269 18.9057C13.56 18.8435 13.6777 18.7527 13.7718 18.6398L18.7718 12.6398C18.9203 12.462 19.0024 12.2382 19.0043 12.0066C19.0061 11.775 18.9274 11.5499 18.7818 11.3698Z" fill="black"/>
<path d="M7.00176 5.36976C6.83467 5.15626 6.58962 5.01788 6.3205 4.98506C6.05139 4.95224 5.78026 5.02767 5.56676 5.19476C5.35326 5.36184 5.21488 5.6069 5.18206 5.87601C5.14924 6.14513 5.22467 6.41626 5.39176 6.62976L9.71176 11.9998L5.23176 17.3598C5.14756 17.4608 5.08412 17.5775 5.04507 17.7031C5.00603 17.8287 4.99215 17.9608 5.00422 18.0917C5.0163 18.2227 5.0541 18.35 5.11545 18.4664C5.1768 18.5827 5.2605 18.6858 5.36176 18.7698C5.54167 18.9188 5.76811 19.0002 6.00176 18.9998C6.14867 19 6.29383 18.9679 6.42691 18.9056C6.56 18.8434 6.67774 18.7526 6.77176 18.6398L11.7718 12.6398C11.9188 12.4608 11.9992 12.2364 11.9992 12.0048C11.9992 11.7731 11.9188 11.5487 11.7718 11.3698L7.00176 5.36976Z" fill="black"/>
</g>
</g>
<defs>
<clipPath id="clip0_1875_19988">
<rect width="24" height="24" fill="white"/>
</clipPath>
</defs>
</svg>
