<svg width="24" height="24" viewBox="0 0 24 24" fill="none" xmlns="http://www.w3.org/2000/svg">
<g clip-path="url(#clip0_1875_19982)">
<mask id="mask0_1875_19982" style="mask-type:luminance" maskUnits="userSpaceOnUse" x="0" y="0" width="24" height="24">
<path d="M0 0H24V24H0V0Z" fill="white"/>
</mask>
<g mask="url(#mask0_1875_19982)">
<path d="M10.1703 19.0003C10.3197 19.0008 10.4673 18.9678 10.6023 18.9038C10.7373 18.8398 10.8562 18.7463 10.9503 18.6303L15.7803 12.6303C15.9274 12.4513 16.0078 12.2269 16.0078 11.9953C16.0078 11.7637 15.9274 11.5392 15.7803 11.3603L10.7803 5.36028C10.6106 5.15606 10.3667 5.02763 10.1022 5.00325C9.8378 4.97888 9.5745 5.06054 9.3703 5.23028C9.1661 5.40001 9.0377 5.64393 9.0133 5.90835C8.9889 6.17278 9.0706 6.43606 9.2403 6.64028L13.7103 12.0003L9.3903 17.3603C9.268 17.5071 9.1904 17.6858 9.1665 17.8753C9.1426 18.0649 9.1735 18.2573 9.2556 18.4299C9.3376 18.6024 9.4674 18.7478 9.6295 18.8489C9.7916 18.95 9.9793 19.0025 10.1703 19.0003Z" fill="black"/>
</g>
</g>
<defs>
<clipPath id="clip0_1875_19982">
<rect width="24" height="24" fill="white" transform="matrix(-1 0 0 1 24 0)"/>
</clipPath>
</defs>
</svg>
