<svg width="120" height="116" viewBox="0 0 120 116" fill="none" xmlns="http://www.w3.org/2000/svg">
<path d="M51.6992 75V41.6992L76.6992 58.3008L51.6992 75ZM60 16.6992C65.7292 16.6992 71.1328 17.806 76.2109 20.0195C81.2891 22.168 85.7161 25.1302 89.4922 28.9062C93.2682 32.6823 96.2305 37.1094 98.3789 42.1875C100.592 47.2005 101.699 52.5716 101.699 58.3008C101.699 64.0951 100.592 69.5312 98.3789 74.6094C96.2305 79.6224 93.2682 84.0169 89.4922 87.793C85.7161 91.569 81.2891 94.5638 76.2109 96.7773C71.1328 98.9258 65.7292 100 60 100C54.2708 100 48.8672 98.9258 43.7891 96.7773C38.7109 94.5638 34.2839 91.569 30.5078 87.793C26.7318 84.0169 23.737 79.6224 21.5234 74.6094C19.375 69.5312 18.3008 64.0951 18.3008 58.3008C18.3008 52.5716 19.375 47.2005 21.5234 42.1875C23.737 37.1094 26.7318 32.6823 30.5078 28.9062C34.2839 25.1302 38.7109 22.168 43.7891 20.0195C48.8672 17.806 54.2708 16.6992 60 16.6992ZM60 91.6992C64.6224 91.6992 68.9518 90.8203 72.9883 89.0625C77.0247 87.3047 80.5404 84.9284 83.5352 81.9336C86.5951 78.8737 88.9714 75.3255 90.6641 71.2891C92.4219 67.2526 93.3008 62.9232 93.3008 58.3008C93.3008 53.7435 92.4219 49.4466 90.6641 45.4102C88.9714 41.3086 86.5951 37.7604 83.5352 34.7656C80.5404 31.7708 77.0247 29.3945 72.9883 27.6367C68.9518 25.8789 64.6224 25 60 25C55.3776 25 51.0482 25.8789 47.0117 27.6367C42.9753 29.3945 39.4271 31.7708 36.3672 34.7656C33.3724 37.7604 30.9961 41.3086 29.2383 45.4102C27.5456 49.4466 26.6992 53.7435 26.6992 58.3008C26.6992 62.9232 27.5456 67.2526 29.2383 71.2891C30.9961 75.3255 33.3724 78.8737 36.3672 81.9336C39.4271 84.9284 42.9753 87.3047 47.0117 89.0625C51.0482 90.8203 55.3776 91.6992 60 91.6992Z" fill="white"/>
</svg>
