<svg width="16" height="16" viewBox="0 0 16 16" fill="none" xmlns="http://www.w3.org/2000/svg">
<g clip-path="url(#clip0_2763_21309)">
<mask id="mask0_2763_21309" style="mask-type:luminance" maskUnits="userSpaceOnUse" x="0" y="0" width="16" height="16">
<path d="M16 0H0V16H16V0Z" fill="white"/>
</mask>
<g mask="url(#mask0_2763_21309)">
<path d="M15.8045 10.8827C15.6795 10.7578 15.5099 10.6875 15.3331 10.6875C15.1564 10.6875 14.9868 10.7578 14.8618 10.8827L11.1105 14.6347L9.31846 12.866C9.19473 12.7392 9.02559 12.6667 8.84839 12.6645C8.67119 12.6623 8.50033 12.7306 8.37346 12.8544C8.24659 12.9782 8.17413 13.1472 8.17193 13.3245C8.16973 13.5017 8.23806 13.6725 8.36179 13.7994L10.1911 15.5994C10.3059 15.7231 10.4445 15.8223 10.5986 15.891C10.7527 15.9598 10.9191 15.9966 11.0878 15.9994H11.1098C11.2752 16 11.439 15.9676 11.5918 15.9044C11.7446 15.841 11.8833 15.748 11.9998 15.6307L15.8045 11.8254C15.9295 11.7004 15.9997 11.5308 15.9997 11.354C15.9997 11.1773 15.9295 11.0078 15.8045 10.8827Z" fill="#0D0D0D"/>
<path d="M7.39333 14.6389C6.10603 14.5213 4.88069 14.0319 3.86649 13.2305C2.85228 12.429 2.09297 11.3499 1.68098 10.1247C1.269 8.8994 1.22211 7.5808 1.54604 6.32936C1.86996 5.07793 2.55072 3.94767 3.50544 3.07617C4.46016 2.20467 5.64765 1.62953 6.92333 1.42077C8.19907 1.21201 9.50793 1.37863 10.6907 1.90035C11.8733 2.42206 12.8789 3.27637 13.5848 4.35927C14.2907 5.44216 14.6666 6.70693 14.6667 7.9996C14.6667 8.20427 14.6567 8.40693 14.6393 8.60693C14.6312 8.69433 14.6403 8.78253 14.6663 8.86633C14.6923 8.9502 14.7347 9.02807 14.7909 9.09553C14.8471 9.163 14.916 9.21867 14.9937 9.2594C15.0715 9.3002 15.1565 9.32513 15.244 9.33293C15.3314 9.34173 15.4197 9.333 15.5036 9.3072C15.5875 9.2814 15.6655 9.23913 15.7329 9.1828C15.8003 9.12647 15.8557 9.0572 15.896 8.9792C15.9362 8.90113 15.9605 8.8158 15.9673 8.72827C15.9887 8.48627 16 8.24427 16 7.9996C15.9999 6.44834 15.5489 4.93057 14.7017 3.63106C13.8545 2.33156 12.6478 1.30639 11.2285 0.680367C9.80913 0.0543462 8.2384 -0.14552 6.70753 0.105102C5.17664 0.355724 3.75164 1.04602 2.60603 2.09195C1.46041 3.13789 0.643599 4.49433 0.255034 5.99613C-0.133531 7.49793 -0.0770853 9.08033 0.4175 10.5506C0.912087 12.0209 1.82347 13.3157 3.0407 14.2774C4.25793 15.239 5.72849 15.826 7.27333 15.9669H7.334C7.5108 15.9748 7.68353 15.9121 7.81407 15.7927C7.94467 15.6732 8.02247 15.5067 8.03033 15.3299C8.0382 15.1531 7.97553 14.9804 7.85607 14.8499C7.7366 14.7193 7.57013 14.6415 7.39333 14.6336V14.6389Z" fill="#0D0D0D"/>
<path d="M7.33341 4.66667V7.724L5.52872 9.52867C5.46505 9.59013 5.41426 9.66373 5.37932 9.74507C5.34438 9.8264 5.32599 9.91387 5.32522 10.0024C5.32445 10.0909 5.34132 10.1787 5.37484 10.2606C5.40836 10.3425 5.45786 10.417 5.52045 10.4796C5.58305 10.5422 5.65749 10.5917 5.73941 10.6252C5.82135 10.6587 5.90913 10.6756 5.99765 10.6748C6.08617 10.6741 6.17365 10.6557 6.25499 10.6207C6.33632 10.5858 6.40989 10.535 6.47138 10.4713L8.47141 8.47133C8.59641 8.34633 8.66667 8.1768 8.66674 8V4.66667C8.66674 4.48985 8.59647 4.32029 8.47147 4.19526C8.34641 4.07024 8.17687 4 8.00007 4C7.82321 4 7.65367 4.07024 7.52867 4.19526C7.40361 4.32029 7.33341 4.48985 7.33341 4.66667Z" fill="#0D0D0D"/>
</g>
</g>
<defs>
<clipPath id="clip0_2763_21309">
<rect width="16" height="16" fill="white"/>
</clipPath>
</defs>
</svg>
