<svg width="42" height="42" viewBox="0 0 42 42" fill="none" xmlns="http://www.w3.org/2000/svg">
<rect width="42" height="42" rx="20" fill="#FFCC00"/>
<mask id="mask0_2763_21298" style="mask-type:luminance" maskUnits="userSpaceOnUse" x="9" y="9" width="24" height="24">
<path d="M32.5388 9.46143H9.46191V32.5383H32.5388V9.46143Z" fill="white"/>
</mask>
<g mask="url(#mask0_2763_21298)">
<path d="M26.7992 25.4391L30.9175 29.5564L29.5569 30.917L25.4396 26.7987C23.9076 28.0268 22.0021 28.6948 20.0386 28.692C15.2617 28.692 11.3848 24.815 11.3848 20.0381C11.3848 15.2612 15.2617 11.3843 20.0386 11.3843C24.8155 11.3843 28.6925 15.2612 28.6925 20.0381C28.6952 22.0016 28.0273 23.9071 26.7992 25.4391ZM24.8703 24.7256C26.0906 23.4707 26.7722 21.7885 26.7694 20.0381C26.7694 16.3189 23.7569 13.3074 20.0386 13.3074C16.3194 13.3074 13.3078 16.3189 13.3078 20.0381C13.3078 23.7564 16.3194 26.7689 20.0386 26.7689C21.789 26.7717 23.4712 26.0901 24.7261 24.8699L24.8703 24.7256Z" fill="black"/>
</g>
</svg>
