<svg width="40" height="40" viewBox="0 0 40 40" fill="none" xmlns="http://www.w3.org/2000/svg">
<rect width="40" height="40" rx="20" fill="#FFCC00"/>
<path d="M25.8398 18.4102C25.8398 19.3867 25.651 20.3112 25.2734 21.1836C24.9089 22.043 24.401 22.7917 23.75 23.4297C23.112 24.0677 22.3633 24.5755 21.5039 24.9531C20.6445 25.3177 19.7266 25.5 18.75 25.5C17.7734 25.5 16.8555 25.3177 15.9961 24.9531C15.1367 24.5755 14.3815 24.0677 13.7305 23.4297C13.0924 22.7917 12.5846 22.043 12.207 21.1836C11.8424 20.3112 11.6602 19.3867 11.6602 18.4102C11.6602 17.4336 11.8424 16.5156 12.207 15.6562C12.5846 14.7969 13.0924 14.0482 13.7305 13.4102C14.3815 12.7721 15.1367 12.2708 15.9961 11.9062C16.8555 11.5286 17.7734 11.3398 18.75 11.3398C19.7266 11.3398 20.6445 11.5286 21.5039 11.9062C22.3633 12.2708 23.112 12.7721 23.75 13.4102C24.401 14.0482 24.9089 14.7969 25.2734 15.6562C25.651 16.5156 25.8398 17.4336 25.8398 18.4102ZM18.75 23.8398C19.4922 23.8398 20.1888 23.6966 20.8398 23.4102C21.5039 23.1237 22.0833 22.7396 22.5781 22.2578C23.0729 21.763 23.457 21.1901 23.7305 20.5391C24.0169 19.875 24.1602 19.1654 24.1602 18.4102C24.1602 17.668 24.0169 16.9714 23.7305 16.3203C23.457 15.6562 23.0729 15.0833 22.5781 14.6016C22.0833 14.1068 21.5039 13.7161 20.8398 13.4297C20.1888 13.1432 19.4922 13 18.75 13C18.0078 13 17.3047 13.1432 16.6406 13.4297C15.9896 13.7161 15.4167 14.1068 14.9219 14.6016C14.4271 15.0833 14.0365 15.6562 13.75 16.3203C13.4766 16.9714 13.3398 17.668 13.3398 18.4102C13.3398 19.1654 13.4766 19.875 13.75 20.5391C14.0365 21.1901 14.4271 21.763 14.9219 22.2578C15.4167 22.7396 15.9896 23.1237 16.6406 23.4102C17.3047 23.6966 18.0078 23.8398 18.75 23.8398ZM23.7305 24.6016L27.1289 28L28.3203 26.7891L24.9414 23.4102L23.7305 24.6016Z" fill="white"/>
</svg>
