<svg width="14" height="14" viewBox="0 0 14 14" fill="none" xmlns="http://www.w3.org/2000/svg">
<path d="M9.67188 5.5H4.32812L7 8.82812L9.67188 5.5ZM7 1.5C6.26042 1.5 5.56771 1.64062 4.92188 1.92188C4.27604 2.20312 3.70833 2.58333 3.21875 3.0625C2.73958 3.54167 2.35938 4.10938 2.07812 4.76562C1.80729 5.41146 1.67188 6.09896 1.67188 6.82812C1.67188 7.56771 1.80729 8.26042 2.07812 8.90625C2.35938 9.55208 2.73958 10.1198 3.21875 10.6094C3.70833 11.0885 4.27604 11.4688 4.92188 11.75C5.56771 12.0312 6.26042 12.1719 7 12.1719C7.73958 12.1719 8.43229 12.0312 9.07812 11.75C9.72396 11.4688 10.2865 11.0885 10.7656 10.6094C11.2552 10.1198 11.6354 9.55208 11.9062 8.90625C12.1875 8.26042 12.3281 7.56771 12.3281 6.82812C12.3281 6.09896 12.1875 5.41146 11.9062 4.76562C11.6354 4.10938 11.2552 3.54167 10.7656 3.0625C10.2865 2.58333 9.72396 2.20312 9.07812 1.92188C8.43229 1.64062 7.73958 1.5 7 1.5ZM7 0.171875C7.91667 0.171875 8.78125 0.348958 9.59375 0.703125C10.4062 1.04688 11.1146 1.52083 11.7188 2.125C12.3229 2.72917 12.7969 3.4375 13.1406 4.25C13.4948 5.05208 13.6719 5.91146 13.6719 6.82812C13.6719 7.75521 13.4948 8.625 13.1406 9.4375C12.7969 10.2396 12.3229 10.9427 11.7188 11.5469C11.1146 12.151 10.4062 12.6302 9.59375 12.9844C8.78125 13.3281 7.91667 13.5 7 13.5C6.08333 13.5 5.21875 13.3281 4.40625 12.9844C3.59375 12.6302 2.88542 12.151 2.28125 11.5469C1.67708 10.9427 1.19792 10.2396 0.84375 9.4375C0.5 8.625 0.328125 7.75521 0.328125 6.82812C0.328125 5.91146 0.5 5.05208 0.84375 4.25C1.19792 3.4375 1.67708 2.72917 2.28125 2.125C2.88542 1.52083 3.59375 1.04688 4.40625 0.703125C5.21875 0.348958 6.08333 0.171875 7 0.171875Z" fill="black"/>
</svg>
