<svg width="84" height="72" viewBox="0 0 84 72" fill="none" xmlns="http://www.w3.org/2000/svg">
<g clip-path="url(#clip0_1696_34510)">
<path d="M24.6483 39.8351C24.6483 41.6074 23.6997 43.1274 21.7941 44.4067C19.8913 45.6802 17.6038 46.317 14.917 46.317H0V0.853271H9.0853V14.5005H24.6483V39.838V39.8351ZM15.5689 22.0945H9.0853V39.3626H15.5689V22.0945ZM51.4754 16.4137C49.5727 15.1403 47.2853 14.4977 44.6043 14.4977H38.7608V0.853271H29.6814V46.3198H38.7608V23.6261H38.7666V22.0945H45.2502V46.3198H54.3297V20.9384C54.315 19.1866 53.3694 17.6783 51.4783 16.4107M69.086 14.4977C66.3991 14.4977 64.1117 15.1403 62.2031 16.4137C60.3032 17.6901 59.3517 19.2101 59.3517 20.9853V46.3169H74.2775C76.9496 46.3169 79.243 45.6772 81.1459 44.4096C83.0486 43.1274 84 41.6045 84 39.8322V34.1338H74.9207V39.3626H68.4312V22.0945H74.9207V26.5458H84V14.4946H69.083L69.086 14.4977Z" fill="#FFCC00"/>
<path d="M11.6983 60.0054H6.74794V56.6986C6.74981 55.7373 6.69707 55.1376 6.58974 54.8996C6.48428 54.6598 6.25094 54.5403 5.88975 54.5412C5.48282 54.5412 5.22475 54.6859 5.11555 54.9752C5.00356 55.2674 4.94756 55.8946 4.94756 56.8568V65.695C4.94569 66.619 5.00169 67.221 5.11555 67.501C5.22475 67.7838 5.47162 67.9252 5.85615 67.9252C6.23974 67.9252 6.46654 67.7852 6.58134 67.5024C6.69334 67.2187 6.74981 66.5546 6.75074 65.5102V63.119H11.7025V63.8638C11.7025 65.8294 11.5639 67.2294 11.2853 68.0498C11.0062 68.8749 10.3902 69.5973 9.43731 70.217C8.48532 70.8358 7.31213 71.1457 5.91775 71.1466C4.52196 71.1466 3.27177 70.8848 2.33238 70.357C1.38879 69.832 0.769997 69.1068 0.4606 68.18C0.152603 67.2514 -0.000929095 65.8546 4.22957e-06 63.9898V58.429C4.22957e-06 57.0598 0.0466704 56.0322 0.140003 55.3462C0.238002 54.6593 0.517999 53.999 0.979995 53.3652C1.44666 52.7287 2.09532 52.2289 2.92598 51.8658C3.75103 51.5018 4.70116 51.3198 5.77635 51.3198C7.23233 51.3198 8.43539 51.6017 9.38551 52.1654C10.3366 52.7282 10.961 53.4301 11.2587 54.271C11.5564 55.112 11.7053 56.421 11.7053 58.198V60.004L11.6983 60.0054ZM25.344 51.7188V70.7448H20.3922V62.7578H18.911V70.7448H13.9593V51.7188H18.9096V58.5228H20.3936V51.7188H25.344ZM32.7625 51.7216H27.8107V70.7476H32.7611L32.7625 51.7216ZM46.789 60.0054H41.8386V56.6986C41.8386 55.7373 41.7854 55.1376 41.679 54.8996C41.5717 54.6598 41.3383 54.5403 40.979 54.5412C40.573 54.5412 40.3112 54.6854 40.2062 54.9752C40.0942 55.2674 40.0382 55.8946 40.0382 56.8568V65.695C40.0364 66.619 40.0924 67.221 40.2062 67.501C40.3126 67.7838 40.5581 67.9252 40.9426 67.9252C41.3248 67.9252 41.553 67.7852 41.6678 67.5024C41.7817 67.2187 41.8386 66.5546 41.8386 65.5102V63.119H46.789V63.8638C46.789 65.8294 46.649 67.2294 46.3718 68.0498C46.0946 68.8749 45.4786 69.5973 44.5238 70.217C43.5718 70.8358 42.3986 71.1457 41.0042 71.1466C39.6098 71.1466 38.3554 70.8848 37.416 70.357C36.4734 69.8325 35.8499 69.1068 35.5457 68.18C35.2395 67.2514 35.0869 65.8546 35.0879 63.9898V58.429C35.0879 57.0598 35.1345 56.0322 35.2279 55.3462C35.3249 54.6593 35.6049 53.999 36.0679 53.3652C36.5345 52.7287 37.1818 52.2289 38.0096 51.8658C38.8366 51.5018 39.7876 51.3198 40.8628 51.3198C42.3235 51.3198 43.5265 51.6017 44.472 52.1654C45.424 52.7282 46.0428 53.4296 46.3424 54.271C46.642 55.112 46.7918 56.421 46.7918 58.198V60.004L46.789 60.0054ZM60.8504 51.7188L58.0112 60.3106L61.1192 70.7448H56.0051L54.0003 62.5898V70.7448H49.0457V51.7188H54.0003V59.1136L56.2081 51.7188H60.8504ZM62.4548 51.7188H70.7119V55.531H67.4066V59.136H70.5005V62.7578H67.4066V66.9382H71.0381V70.7448H62.4562L62.4548 51.7188ZM83.9964 51.7188V70.7448H79.6592L77.0833 62.097V70.7448H72.9449V51.7188H77.0847L79.8594 60.2896V51.7188H83.9964Z" fill="black"/>
</g>
<defs>
<clipPath id="clip0_1696_34510">
<rect width="84" height="70.2933" fill="white" transform="translate(0 0.853271)"/>
</clipPath>
</defs>
</svg>
