<svg width="24" height="25" viewBox="0 0 24 25" fill="none" xmlns="http://www.w3.org/2000/svg">
<path d="M19.7109 3.8641L2.24269 8.79104C2.09574 8.83249 1.96493 8.9178 1.86776 9.03558C1.77059 9.15336 1.71169 9.29799 1.69892 9.45015C1.68615 9.6023 1.72012 9.75473 1.7963 9.88706C1.87248 10.0194 1.98723 10.1253 2.12523 10.1907L10.1512 13.9925C10.3078 14.0666 10.4338 14.1927 10.508 14.3492L14.3098 22.3752C14.3751 22.5132 14.4811 22.628 14.6134 22.7041C14.7457 22.7803 14.8981 22.8143 15.0503 22.8015C15.2025 22.7888 15.3471 22.7299 15.4649 22.6327C15.5826 22.5355 15.668 22.4047 15.7094 22.2578L20.6363 4.78953C20.6725 4.66122 20.6739 4.52558 20.6402 4.39658C20.6066 4.26758 20.5391 4.14988 20.4448 4.05561C20.3506 3.96134 20.2329 3.8939 20.1039 3.86024C19.9749 3.82658 19.8392 3.82791 19.7109 3.8641Z" stroke="black" stroke-width="2" stroke-linecap="round" stroke-linejoin="round"/>
<path d="M10.3931 14.1059L14.6358 9.86328" stroke="black" stroke-width="2" stroke-linecap="round" stroke-linejoin="round"/>
</svg>
